<?xml version="1.0" encoding="utf-8"?>
<!-- Generator: Adobe Illustrator 17.0.0, SVG Export Plug-In . SVG Version: 6.00 Build 0)  -->
<!DOCTYPE svg PUBLIC "-//W3C//DTD SVG 1.1//EN" "http://www.w3.org/Graphics/SVG/1.1/DTD/svg11.dtd">
<svg version="1.1" id="Layer_1" xmlns="http://www.w3.org/2000/svg" xmlns:xlink="http://www.w3.org/1999/xlink" x="0px" y="0px"
	 width="88px" height="41px" viewBox="0 0 88 41" enable-background="new 0 0 88 41" xml:space="preserve">
<g>
	<path fill-rule="evenodd" clip-rule="evenodd" fill="#231F20" d="M0,2.685c0-1.527,1.232-2.776,2.739-2.776h82.476
		c1.506,0,2.739,1.249,2.739,2.776v35.542c0,1.527-1.232,2.776-2.739,2.776H2.739C1.232,41.004,0,39.754,0,38.227V2.685L0,2.685z"/>
	<polygon fill-rule="evenodd" clip-rule="evenodd" fill="#FFFFFF" points="0,3.944 87.954,3.944 87.954,36.968 0,36.968 0,3.944 	
		"/>
	<path fill-rule="evenodd" clip-rule="evenodd" fill="#231F20" d="M74.538,12.521c-4.024,0-7.304,3.326-7.304,7.405
		c0,4.078,3.28,7.404,7.304,7.404c4.023,0,7.304-3.326,7.304-7.404C81.842,15.846,78.562,12.521,74.538,12.521L74.538,12.521z"/>
	<path fill-rule="evenodd" clip-rule="evenodd" fill="#231F20" d="M14.333,12.521c-4.024,0-7.305,3.326-7.305,7.405
		c0,4.078,3.281,7.404,7.305,7.404c4.023,0,7.303-3.326,7.303-7.404C21.636,15.846,18.356,12.521,14.333,12.521L14.333,12.521z"/>
	<path fill-rule="evenodd" clip-rule="evenodd" fill="#231F20" d="M73.965,6.004c-6.762-0.157-9.941,4.238-14.554,9.659
		l-4.352,5.113l6.892,8.364c1.642,2.57-1.492,5.12-3.436,2.769l-6.372-7.706l-6.209,7.297c-1.977,2.323-5.075-0.272-3.398-2.818
		l6.741-7.946l-4.416-5.34L47.7,11.83l4.491,5.469l3.871-4.565c1.899-2.238,3.837-5.205,6.348-6.73H0v28.905h14.592
		c6.763,0,9.833-4.099,14.321-9.626l4.235-5.215l-7.082-8.2c-1.698-2.531,1.376-5.153,3.373-2.848l6.545,7.555l6.043-7.441
		c1.923-2.369,5.079,0.154,3.461,2.738l-6.558,8.102l4.537,5.236l-2.858,3.431l-4.516-5.163l-3.766,4.653
		c-1.848,2.282-3.72,5.193-6.195,6.777h61.822V6.004H73.965L73.965,6.004z M25.872,19.926c0,6.444-5.183,11.699-11.539,11.699
		c-6.358,0-11.541-5.255-11.541-11.699c0-6.445,5.183-11.699,11.541-11.699C20.689,8.227,25.872,13.481,25.872,19.926L25.872,19.926
		z M74.538,31.625c-6.356,0-11.541-5.255-11.541-11.699c0-6.445,5.184-11.699,11.541-11.699c6.357,0,11.54,5.254,11.54,11.699
		C86.078,26.37,80.895,31.625,74.538,31.625L74.538,31.625z"/>
</g>
</svg>
