<?xml version="1.0" standalone="no"?>
<!DOCTYPE svg PUBLIC "-//W3C//DTD SVG 1.1//EN" "http://www.w3.org/Graphics/SVG/1.1/DTD/svg11.dtd" >
<svg>
<metadata>
Created by FontForge 20090914 at Wed Feb  4 17:10:38 2015
 By www-data
ZacharyLucier
</metadata>
<defs>
<font id="ATypewriterForMe" horiz-adv-x="677" >
  <font-face 
    font-family="ATypewriterForMe"
    font-weight="500"
    font-stretch="normal"
    units-per-em="1000"
    panose-1="2 0 6 3 0 0 0 0 0 0"
    ascent="800"
    descent="-200"
    x-height="500.001"
    cap-height="666"
    bbox="-110.167 -241.061 1108.11 886.937"
    underline-thickness="50"
    underline-position="-100"
    unicode-range="U+0020-U+3000"
  />
<missing-glyph horiz-adv-x="364" 
d="M66 33h199v600h-199v-600zM33 0v666h265v-666h-265z" />
    <glyph glyph-name=".notdef" horiz-adv-x="364" 
d="M66 33h199v600h-199v-600zM33 0v666h265v-666h-265z" />
    <glyph glyph-name="space" unicode=" " horiz-adv-x="300" 
 />
    <glyph glyph-name="exclam" unicode="!" horiz-adv-x="338" 
d="M238 660c-2.66699 -16.667 -4 -34.1699 -4 -52.5029s0.5 -39.833 1.5 -64.5s1.5 -44 1.5 -58c0 -92 -1.66699 -191.667 -5 -299c0 -8 -3.16699 -14.833 -9.5 -20.5s-13.5 -8.5 -21.5 -8.5s-14.833 3.16699 -20.5 9.5s-8.5 13.5 -8.5 21.5c3.33301 106 5 205 5 297
c0 10.667 -0.5 28.834 -1.5 54.501s-1.33301 48.834 -1 69.501s1.5 40.334 3.5 59.001c1.33301 8 5.33301 14.5 12 19.5s14 7 22 6s14.5 -4.83301 19.5 -11.5s7.16699 -14 6.5 -22zM228 53.9971c0 -8 -3 -15 -9 -21s-13 -9 -21 -9s-15 3 -21 9s-9 13 -9 21s3 15 9 21
s13 9 21 9s15 -3 21 -9s9 -13 9 -21z" />
    <glyph glyph-name="quotedbl" unicode="&#x22;" horiz-adv-x="362" 
d="M262 634c0 -112 -0.666992 -180.001 -2 -204.001c-0.666992 -8 -4 -14.833 -10 -20.5s-13.167 -8.16699 -21.5 -7.5s-15.333 4 -21 10s-8.16699 13.333 -7.5 22c1.33301 22.667 2 89.334 2 200.001c0 8 3 15 9 21s13 9 21 9s15 -3 21 -9s9 -13 9 -21zM116 635.999
c0 -112 -0.666992 -180.001 -2 -204.001c-0.666992 -8 -4 -14.833 -10 -20.5s-13.167 -8.16699 -21.5 -7.5s-15.333 4 -21 10s-8.16699 13.333 -7.5 22c1.33301 22.667 2 89.334 2 200.001c0 8 3 15 9 21s13 9 21 9s15 -3 21 -9s9 -13 9 -21z" />
    <glyph glyph-name="numbersign" unicode="#" horiz-adv-x="659" 
d="M211 270c46 1.33301 93.666 2 142.999 2c2.66699 13.333 8.33398 37 17.001 71l16 65c-50 0 -97.667 -0.333008 -143 -1l-19 -79zM284.999 624c-10.667 -19.333 -17.667 -44.9941 -21 -76.9941c-0.666992 -7.33301 -1.33398 -16 -2.00098 -26
c-1.33301 -11.333 -2 -17.666 -2 -18.999c-1.33301 -12.667 -2.66602 -24.334 -3.99902 -35.001c45.333 0.666992 93 1.33398 143 2.00098c2 10 3.66699 22.667 5 38c0 1.33301 0.5 7.83301 1.5 19.5s1.83301 20.5 2.5 26.5c4.66699 39.333 13.667 72.333 27 99
c4 7.33301 10 12.166 18 14.499s15.667 1.66602 23 -2.00098s12.166 -9.5 14.499 -17.5s1.83301 -15.667 -1.5 -23c-10.667 -19.333 -17.667 -45 -21 -77c-0.666992 -7.33301 -1.33398 -16 -2.00098 -26c-1.33301 -11.333 -2 -17.666 -2 -18.999
c-1.33301 -12 -2.66602 -23 -3.99902 -33h69c8 0 15 -3 21 -9s9 -13 9 -21s-3 -15 -9 -21s-13 -9 -21 -9h-81c-3.33301 -17.333 -9.66602 -44.333 -18.999 -81l-13 -55h102c8 0 15 -3 21 -9s9 -13 9 -21s-3 -15 -9 -21s-13 -9 -21 -9h-115v-5
c-4 -22.667 -8.83301 -55.667 -14.5 -99s-10.167 -75 -13.5 -95c-1.33301 -8 -5.5 -14.5 -12.5 -19.5s-14.5 -6.83301 -22.5 -5.5s-14.5 5.5 -19.5 12.5s-6.83301 14.5 -5.5 22.5c3.33301 20 7.83301 51 13.5 93s10.167 73.667 13.5 95l-143 -2v-2
c-4 -22.667 -8.83301 -55.667 -14.5 -99s-10.167 -75 -13.5 -95c-1.33301 -8 -5.5 -14.5 -12.5 -19.5s-14.5 -6.83301 -22.5 -5.5s-14.5 5.5 -19.5 12.5s-6.83301 14.5 -5.5 22.5c3.33301 20 7.83301 50.667 13.5 92s10.167 72 13.5 92l-69 -2c-8 0 -15.167 2.66699 -21.5 8
s-9.5 12.166 -9.5 20.499s2.66699 15.666 8 21.999s12.333 9.5 21 9.5c26.667 0.666992 54.334 1.66699 83.001 3l17 74l15 62c-34.667 -0.666992 -68.667 -1.66699 -102 -3c-8 0 -15.167 2.66699 -21.5 8s-9.5 12.166 -9.5 20.499s2.66699 15.666 8 21.999
s12.333 9.5 21 9.5c38 1.33301 77 2.33301 117 3c2 11.333 3.66699 25.333 5 42c0 1.33301 0.5 7.83301 1.5 19.5s1.83301 20.5 2.5 26.5c4.66699 39.333 13.667 72.333 27 99c4 7.33301 10 12.166 18 14.499s15.667 1.66602 23 -2.00098s12.166 -9.5 14.499 -17.5
s1.83301 -15.667 -1.5 -23z" />
    <glyph glyph-name="dollar" unicode="$" horiz-adv-x="647" 
d="M278 364c-0.666992 73.333 0 139.332 2 197.999c0.666992 12.667 1.66699 27.334 3 44.001c-12 -2 -23.333 -4.66699 -34 -8c-49.333 -15.333 -81 -40.333 -95 -75c-4.66699 -10.667 -8.66699 -22 -12 -34l-5 -28c6.66699 -17.333 14.834 -30 24.501 -38
s26.167 -17.667 49.5 -29c33.333 -16 55.666 -26 66.999 -30zM338 287.999c0.666992 -28.667 1.33203 -69.5 1.99902 -122.5s1 -90.833 1 -113.5c32.667 5.33301 61.667 15.333 87 30c52.667 32 70.334 73.333 53.001 124c-7.33301 20.667 -16.5 36 -27.5 46
s-24.5 17.333 -40.5 22c-11.333 4 -30.333 7.66699 -57 11zM351.998 770.999c2.66699 -28 1.99707 -62.668 -2.00293 -104.001c18 -2.66699 34.667 -7 50 -13c20 -8.66699 40.333 -24.334 61 -47.001c4 -4.66699 11 -13.334 21 -26.001l10 -12c3.33301 -2 6 -4.33301 8 -7
c29.333 -38.667 40.333 -72.667 33 -102c-3.33301 -14.667 -10.5 -26.167 -21.5 -34.5s-22.833 -13.5 -35.5 -15.5c-12 -2 -24.333 -1.16699 -37 2.5s-22 11.834 -28 24.501c-7.33301 14.667 -6 30 4 46c7.33301 10.667 19 21.334 35 32.001
c2 1.33301 4.33301 2.66602 7 3.99902l-21 24l-20 24c-14 16 -27.333 26.333 -40 31c-9.33301 4.66699 -20.333 7.66699 -33 9c-1.33301 -17.333 -2.33301 -33 -3 -47c-2 -62 -2.66699 -132.333 -2 -211c5.33301 -1.33301 14.333 -2.66602 27 -3.99902
c28.667 -4.66699 50.334 -9 65.001 -13c52.667 -16 88.334 -51.333 107.001 -106c14.667 -42 14 -80 -2 -114c-16 -33.333 -41.333 -60.333 -76 -81s-73.667 -33.667 -117 -39v-65c0 -8 -3 -15 -9 -21s-13 -9 -21 -9s-15 3 -21 9s-9 13 -9 21v63
c-12 0.666992 -23.333 2.33398 -34 5.00098c-33.333 7.33301 -65.666 22 -96.999 44s-57.666 47.333 -78.999 76c-3.33301 4 -5.33301 8.66699 -6 14c-2 2.66699 -3.33301 5.66699 -4 9c-16 46 -15.667 81.667 1 107c16.667 24.667 40.334 34.334 71.001 29.001
c12 -2 23.5 -7 34.5 -15s17.167 -19 18.5 -33c2 -16 -4.66699 -30 -20 -42c-10 -8 -24.333 -14 -43 -18c-2.66699 -0.666992 -5.33398 -1 -8.00098 -1c0.666992 -2.66699 1.33398 -5.66699 2.00098 -9c0.666992 -1.33301 1.33398 -3 2.00098 -5
c18 -23.333 39.5 -44 64.5 -62s50.167 -30 75.5 -36c6.66699 -1.33301 13.667 -2.33301 21 -3c0 22 -0.333008 61.5 -1 118.5s-1.33398 100.833 -2.00098 131.5c-18.667 6 -49.667 19.333 -93 40c-14 6.66699 -24.667 12.167 -32 16.5s-16.166 10.333 -26.499 18
s-19 16.667 -26 27s-13.5 22.833 -19.5 37.5c-6 15.333 -5 37 3 65c4 15.333 8.66699 29.666 14 42.999c11.333 26 28.833 48.167 52.5 66.5s50.167 32.166 79.5 41.499c19.333 6 39 10.333 59 13c4.66699 40 5.66699 72.333 3 97
c-0.666992 8.66699 1.66602 16.167 6.99902 22.5s12.166 9.83301 20.499 10.5s15.666 -1.66602 21.999 -6.99902s9.83301 -12 10.5 -20z" />
    <glyph glyph-name="percent" unicode="%" horiz-adv-x="854" 
d="M459 518c-24.667 -8.66699 -48.6602 -10.6729 -71.9932 -6.00586c-14 2.66699 -27.333 7.33398 -40 14.001c0 -10 0.333008 -24.833 1 -44.5s0.666992 -34.5 0 -44.5c0 -57.333 -14 -100.666 -42 -129.999c-14.667 -14.667 -30 -25 -46 -31
c-16.667 -5.33301 -36 -8.66602 -58 -9.99902c-41.333 -2.66699 -75.833 8 -103.5 32s-47.834 55 -60.501 93c-11.333 33.333 -16 69.666 -14 108.999c2.66699 38.667 12 72.334 28 101.001c27.333 48.667 68 77 122 85c31.333 4.66699 57.666 1.83398 78.999 -8.49902
s42 -25.166 62 -44.499c2 -2.66699 6.66699 -7.66699 14 -15l15 -14c2 -2.66699 5.83301 -6.5 11.5 -11.5s10.167 -8.5 13.5 -10.5s7.66602 -4.16699 12.999 -6.5s11 -4.16602 17 -5.49902c19.333 -3.33301 41.666 2.66699 66.999 18c19.333 11.333 42 30 68 56l4 10
c4 6.66699 8.33301 12 13 16c11.333 8.66699 23.666 10 36.999 4c16 -6.66699 22.667 -18.667 20 -36c-0.666992 -6.66699 -3.33398 -13.334 -8.00098 -20.001l-7 -10l-3 -4c-10 -18.667 -31 -50 -63 -94c-28 -38.667 -47.667 -68.334 -59 -89.001
c-10 -18 -26.667 -52.333 -50 -103c-22 -48 -39.667 -84 -53 -108c-60 -108 -101.667 -185.333 -125 -232c-4 -8 -9.83301 -13.167 -17.5 -15.5s-15.334 -1.66602 -23.001 2.00098s-12.667 9.33398 -15 17.001s-1.83301 15.167 1.5 22.5
c29.333 58.667 71.666 137.334 126.999 236.001c10.667 18.667 27.334 53 50.001 103c22 48.667 39.667 84.667 53 108c10.667 19.333 25 41.666 43 66.999zM293.007 567.994l-20.9961 22.002c-14.667 15.333 -28.334 26 -41.001 32s-29 7.33301 -49 4
c-34 -4.66699 -60 -23 -78 -55c-11.333 -20.667 -18 -45.667 -20 -75c-2 -30 1.66699 -58.667 11 -86c9.33301 -28 22.666 -49.333 39.999 -64s38.333 -21.334 63 -20.001c16.667 1.33301 29.667 3.5 39 6.5s17.666 8.5 24.999 16.5c17.333 18 26 47.667 26 89
c0.666992 5.33301 0.666992 17.166 0 35.499s-0.833984 34.833 -0.500977 49.5s1.83301 28.334 4.5 41.001c0 1.33301 0.333008 2.66602 1 3.99902zM607.011 333.996c-29.333 2.66699 -54.667 -8 -76 -32s-34.333 -55.333 -39 -94c-5.33301 -40 -0.5 -74.667 14.5 -104
s37.5 -47 67.5 -53c34.667 -6 62.667 2 84 24c20 21.333 32 51.333 36 90c4 40 -1.66699 75.833 -17 107.5s-36.333 51.167 -63 58.5c-2.66699 0.666992 -5 1.66699 -7 3zM627.01 389.996c0.666992 -0.666992 1.66699 -1.00195 3 -1.00195c30.667 -8 56.167 -25 76.5 -51
s34 -54.333 41 -85s9.16699 -61.667 6.5 -93c-5.33301 -53.333 -23 -95.666 -53 -126.999c-36 -37.333 -81.667 -50.666 -137 -39.999c-34.667 6 -63 21.5 -85 46.5s-36.333 52.5 -43 82.5s-8 61 -4 93c3.33301 23.333 9.5 45.833 18.5 67.5s20.833 41.5 35.5 59.5
s33.167 31.833 55.5 41.5s46.5 13.167 72.5 10.5c4.66699 -0.666992 9 -2 13 -4z" />
    <glyph glyph-name="ampersand" unicode="&#x26;" horiz-adv-x="895" 
d="M272 440h0.996094c28 14 48.667 28 62 42c14.667 14.667 26.834 30.5 36.501 47.5s13.834 31.167 12.501 42.5c-1.33301 17.333 -10.666 33.333 -27.999 48s-33.666 20.667 -48.999 18c-34 -4.66699 -55 -25.5 -63 -62.5s-3.33301 -73.833 14 -110.5
c3.33301 -6.66699 8 -15 14 -25zM411.996 242l7.99805 19.0039c21.333 48.667 37 81.667 47 99c16.667 28.667 37.834 56.167 63.501 82.5s52.5 46.833 80.5 61.5c42.667 21.333 81 23.666 115 6.99902c30.667 -14.667 51.667 -40 63 -76
c5.33301 -14.667 7.5 -30.834 6.5 -48.501s-4.16699 -34.334 -9.5 -50.001s-14.666 -30.167 -27.999 -43.5s-29.666 -23.333 -48.999 -30c-12 -4 -27.333 -3.66699 -46 1c-15.333 3.33301 -28 8.33301 -38 15c-25.333 16 -38.666 36.667 -39.999 62
c-1.33301 21.333 6 39.666 22 54.999c4 4 8.83301 7.5 14.5 10.5s13 5 22 6s17.5 -1.5 25.5 -7.5c17.333 -13.333 22.666 -37 15.999 -71c-0.666992 -4.66699 -2.33398 -8.66699 -5.00098 -12l11 -1c18.667 6 31.667 18.333 39 37s8 38.334 2 59.001
c-6.66699 20 -17 33.333 -31 40c-17.333 8 -38 5.66699 -62 -7c-22.667 -11.333 -44.834 -28 -66.501 -50s-39.5 -45.333 -53.5 -70c-8.66699 -15.333 -23.334 -46.333 -44.001 -93l-21 -48l54 -63c31.333 -35.333 53.333 -56 66 -62c28 -14.667 59 -14.667 93 0
c8 2.66699 15.833 2.5 23.5 -0.5s13 -8.33301 16 -16s3 -15.334 0 -23.001s-8.16699 -13.167 -15.5 -16.5c-51.333 -22 -99.666 -21.333 -144.999 2c-18.667 10 -46.334 35.333 -83.001 76l-39 45l-2 -4c-54 -94 -120 -138 -198 -132
c-43.333 3.33301 -80.666 16.333 -111.999 39c-19.333 14 -35.833 33.667 -49.5 59s-22.5 50 -26.5 74c-4.66699 30.667 -3 56.334 5 77.001c6.66699 17.333 20.667 37.333 42 60l35 36c7.33301 7.33301 18.333 17.166 33 29.499s29.334 22.833 44.001 31.5
c6 4 13.667 8.33301 23 13c-6 10 -10.667 18.333 -14 25c-23.333 49.333 -29.666 99 -18.999 149c6 28.667 18.5 53 37.5 73s44.5 32.333 76.5 37c33.333 4.66699 65.333 -6.33301 96 -33c29.333 -25.333 45.666 -54.333 48.999 -87c4 -42 -17.667 -88 -65 -138
c-18 -18 -42.667 -35 -74 -51c30 -44.667 64.333 -91.667 103 -141zM249.994 363.004l-25.0039 -14.001c-11.333 -6.66699 -23.166 -15.167 -35.499 -25.5s-22.166 -19.166 -29.499 -26.499s-18.333 -19 -33 -35c-16.667 -16.667 -26.667 -29.667 -30 -39
c-4 -10.667 -4.33301 -26 -1 -46c2.66699 -18 8.66699 -36 18 -54c10 -18 21.333 -31.667 34 -41c21.333 -16 48 -25 80 -27c28.667 -2 54.334 5.66699 77.001 23s44.334 43.666 65.001 78.999l13 25l-23 29c-42 54.667 -78.667 105.334 -110 152.001z" />
    <glyph glyph-name="quotesingle" unicode="'" horiz-adv-x="221" 
d="M121 629c0 -112 -0.666992 -180.001 -2 -204.001c-0.666992 -8 -4 -14.833 -10 -20.5s-13.167 -8.16699 -21.5 -7.5s-15.333 4 -21 10s-8.16699 13.333 -7.5 22c1.33301 22.667 2 89.334 2 200.001c0 8 3 15 9 21s13 9 21 9s15 -3 21 -9s9 -13 9 -21z" />
    <glyph glyph-name="parenleft" unicode="(" horiz-adv-x="552" 
d="M439 669l-46.999 -31.0029l-50 -33c-10.667 -7.33301 -24 -17.5 -40 -30.5s-30 -25.5 -42 -37.5c-40.667 -42 -73 -90.333 -97 -145s-36.667 -110.5 -38 -167.5s12 -110.833 40 -161.5c17.333 -30 38 -56.167 62 -78.5s57.333 -48.166 100 -77.499
s72.667 -50.666 90 -63.999c6 -5.33301 9.5 -12.166 10.5 -20.499s-1 -15.666 -6 -21.999s-11.667 -10 -20 -11s-15.833 0.833008 -22.5 5.5c-14 12 -36.333 28.333 -67 49l-75 54c-20 14.667 -41.833 34.334 -65.5 59.001s-43.167 50 -58.5 76
c-34.667 60.667 -50.834 124.667 -48.501 192s17 131.5 44 192.5s63.5 114.833 109.5 161.5c12.667 13.333 27.834 27.166 45.501 41.499s32.5 25.5 44.5 33.5l52 35l45 30c6.66699 4.66699 14.167 6.16699 22.5 4.5s14.833 -5.83398 19.5 -12.501
s6.16699 -14.167 4.5 -22.5s-5.83398 -14.833 -12.501 -19.5z" />
    <glyph glyph-name="parenright" unicode=")" horiz-adv-x="479" 
d="M35 -165c12 10 28.9971 22.999 50.9971 38.999l56 44c16 13.333 30.667 26.666 44 39.999c45.333 46.667 80 101 104 163s33.167 125.667 27.5 191s-28.167 122.333 -67.5 171c-20 24 -42.833 45.333 -68.5 64s-56.5 38.834 -92.5 60.501s-65 40.167 -87 55.5
c-6.66699 4.66699 -10.667 11 -12 19s0.5 15.5 5.5 22.5s11.5 11.167 19.5 12.5s15.667 -0.666992 23 -6c16.667 -12 43.334 -29 80.001 -51c38 -22.667 71.833 -45 101.5 -67s55.167 -46 76.5 -72c36 -44 60.333 -94 73 -150s14.334 -111 5.00098 -165
s-26.5 -106.333 -51.5 -157s-56.5 -95 -94.5 -133c-14 -14.667 -30 -29.334 -48 -44.001l-60 -46l-47 -37c-6.66699 -5.33301 -14.167 -7.66602 -22.5 -6.99902s-15 4.33398 -20 11.001s-7.16699 14.167 -6.5 22.5s4.33398 14.833 11.001 19.5z" />
    <glyph glyph-name="asterisk" unicode="*" horiz-adv-x="573" 
d="M357 658c-5.33301 -25.333 -7.99805 -57.9961 -7.99805 -97.9961l78 47c6.66699 4.66699 14.167 6.16699 22.5 4.5s14.666 -6 18.999 -13s5.66602 -14.667 3.99902 -23s-6.16699 -14.5 -13.5 -18.5c-21.333 -14 -54.333 -34.333 -99 -61
c35.333 -20.667 63.333 -38 84 -52c6.66699 -4.66699 10.834 -11 12.501 -19s0.166992 -15.5 -4.5 -22.5s-11 -11.333 -19 -13s-15.667 -0.166992 -23 4.5c-16.667 11.333 -36.667 24 -60 38l-3 -31c-2 -26 -3 -45.667 -3 -59c0 -8 -3 -15 -9 -21s-13 -9 -21 -9s-15 3 -21 9
s-9 13 -9 21c0 15.333 1 36.666 3 63.999c2 22.667 3.33301 38.667 4 48c-39.333 -24 -72.333 -46 -99 -66c-6.66699 -4.66699 -14.167 -6.5 -22.5 -5.5s-14.833 4.83301 -19.5 11.5s-6.5 14.167 -5.5 22.5s4.83301 14.833 11.5 19.5c25.333 18.667 54.666 38.667 87.999 60
c-35.333 22 -65.666 43 -90.999 63c-6 5.33301 -9.5 12.166 -10.5 20.499s1 15.666 6 21.999s11.667 10 20 11s15.833 -0.833008 22.5 -5.5c26 -21.333 59 -44.333 99 -69c-1.33301 57.333 1.66699 102 9 134c1.33301 8 5.5 14.167 12.5 18.5s14.667 5.66602 23 3.99902
s14.666 -6 18.999 -13s5.5 -14.833 3.5 -23.5z" />
    <glyph glyph-name="plus" unicode="+" horiz-adv-x="544" 
d="M279 505c-4 -10 -7.66895 -30.665 -11.002 -61.998c-2 -26 -3.66699 -58 -5 -96c60.667 -1.33301 109 1.33398 145 8.00098c8 2 15.5 0.666992 22.5 -4s11.333 -11 13 -19s0.166992 -15.5 -4.5 -22.5s-11 -11.167 -19 -12.5c-40 -8 -92.667 -11.333 -158 -10v-143
c0 -8 -3 -15 -9 -21s-13 -9 -21 -9s-15 3 -21 9s-9 13 -9 21v145l-69 3c-33.333 2 -57.666 3.33301 -72.999 4c-8 0 -14.833 3 -20.5 9s-8.5 13.167 -8.5 21.5s3 15.333 9 21s13.333 8.5 22 8.5c17.333 -0.666992 43.5 -1.83398 78.5 -3.50098
s55.833 -2.83398 62.5 -3.50098c1.33301 39.333 3.33301 72.333 6 99c3.33301 37.333 8 63.666 14 78.999c3.33301 8 8.83301 13.5 16.5 16.5s15.334 3 23.001 0s13 -8.33301 16 -16s3.16699 -15.167 0.5 -22.5z" />
    <glyph glyph-name="comma" unicode="," horiz-adv-x="300" 
d="M84 -147c26 48 43.333 91.3359 52 130.003c2.66699 11.333 4 21.666 4 30.999c-12.667 -6 -25.334 -8.66699 -38.001 -8c-18.667 0.666992 -33.334 8.66699 -44.001 24c-9.33301 11.333 -13 25.666 -11 42.999s10.333 30.666 25 39.999c10 6.66699 21.667 9 35 7
c2.66699 -0.666992 6.33398 -1.33398 11.001 -2.00098c3.33301 -0.666992 5.33301 -1 6 -1c36.667 -6.66699 60.334 -26.667 71.001 -60c7.33301 -23.333 7.33301 -52.333 0 -87c-10 -44.667 -29.667 -93 -59 -145c-4 -7.33301 -10 -12.166 -18 -14.499
s-15.5 -1.5 -22.5 2.5s-11.667 10 -14 18s-1.5 15.333 2.5 22z" />
    <glyph glyph-name="hyphen" unicode="-" horiz-adv-x="395" 
d="M270 243c-19.333 -2.66699 -40.5 -4.00098 -63.5 -4.00098s-47.833 0.666992 -74.5 2s-45.667 2 -57 2c-8 0 -15 3 -21 9s-9 13 -9 21s3 15 9 21s13 9 21 9c16 0 37.833 -0.666992 65.5 -2s48 -2.16602 61 -2.49902s32.5 1.16699 58.5 4.5c8 1.33301 15.5 -0.5 22.5 -5.5
s11.167 -11.5 12.5 -19.5s-0.5 -15.5 -5.5 -22.5s-11.5 -11.167 -19.5 -12.5z" />
    <glyph glyph-name="period" unicode="." horiz-adv-x="266" 
d="M166 54c0 -8 -3 -15 -9 -21s-13 -9 -21 -9s-15 3 -21 9s-9 13 -9 21s3 15 9 21s13 9 21 9s15 -3 21 -9s9 -13 9 -21z" />
    <glyph glyph-name="slash" unicode="/" horiz-adv-x="475" 
d="M372 660c-24 -46 -50.9961 -105.995 -80.9961 -179.995l-74 -186l-61 -140l-74 -172c-20 -48.667 -38 -96.334 -54 -143.001c-2 -8 -6.83301 -13.833 -14.5 -17.5s-15.334 -4.33398 -23.001 -2.00098s-13.334 7.33301 -17.001 15s-4.16699 15.167 -1.5 22.5
c15.333 47.333 33.333 95.666 54 144.999l74 174c29.333 66 49.666 113.333 60.999 142l75 185c32.667 80 60 141.667 82 185c4 7.33301 10 12.166 18 14.499s15.667 1.66602 23 -2.00098s12.166 -9.5 14.499 -17.5s1.83301 -15.667 -1.5 -23z" />
    <glyph glyph-name="zero" unicode="0" horiz-adv-x="680" 
d="M518 343c0 2 0.333008 8.49805 1 19.498s1 19.5 1 25.5c0.666992 23.333 -0.666016 40.333 -3.99902 51c-8 28.667 -22.667 57.167 -44 85.5s-46.333 51.833 -75 70.5c-62.667 40.667 -120 43.667 -172 9c-33.333 -22 -61 -59.167 -83 -111.5
s-34.333 -103.166 -37 -152.499c-2.66699 -47.333 0.666016 -90 9.99902 -128c9.33301 -37.333 22.833 -67.166 40.5 -89.499s37.167 -39.166 58.5 -50.499s44 -17.333 68 -18s48 4.33301 72 15s46.833 26.667 68.5 48s40.5 50.166 56.5 86.499s26.667 77.5 32 123.5
c0.666992 6 3 11.333 7 16zM569 306.998c-14 -98.667 -48.498 -176.001 -103.498 -232.001s-116.833 -83 -185.5 -81c-71.333 2 -129.833 34.333 -175.5 97s-65.5 147 -59.5 253c3.33301 56 17.666 114.333 42.999 175s59.666 105.667 102.999 135
c26 17.333 53.5 27.833 82.5 31.5s56.333 1.83398 82 -5.49902s50.5 -19 74.5 -35c34 -22 64 -50.167 90 -84.5s44 -69.5 54 -105.5c4.66699 -16 6.66699 -38.667 6 -68c0 -6.66699 -0.333008 -16.667 -1 -30s-1 -23 -1 -29c0 -8.66699 -3 -15.667 -9 -21z" />
    <glyph glyph-name="one" unicode="1" horiz-adv-x="593" 
d="M159 62c34 2 73.333 2.6709 118 2.00391c1.33301 39.333 3.66602 135.666 6.99902 288.999c1.33301 72.667 2.33301 134 3 184v59v13c-6 2.66699 -15.333 4 -28 4c-5.33301 0 -26.666 -1.66699 -63.999 -5c-8.66699 -0.666992 -16.167 1.66602 -22.5 6.99902
s-9.83301 12.166 -10.5 20.499s1.66602 15.666 6.99902 21.999s12 9.83301 20 10.5c40 3.33301 63.667 5 71 5c43.333 -0.666992 71.333 -14 84 -40l3 -11v-3v-5v-18v-60c-0.666992 -50 -2 -111.333 -4 -184c-2.66699 -148 -4.66699 -244 -6 -288c66 -1.33301 108 -2 126 -2
c8 0 15 -3 21 -9s9 -13 9 -21s-3 -15 -9 -21s-13 -9 -21 -9c-22.667 0 -56.167 0.333008 -100.5 1s-77.666 1 -99.999 1s-55.5 -0.666992 -99.5 -2c-8.66699 -0.666992 -16 1.83301 -22 7.5s-9.33301 12.667 -10 21s1.83301 15.5 7.5 21.5s12.5 9.33301 20.5 10z" />
    <glyph glyph-name="two" unicode="2" horiz-adv-x="687" 
d="M509 133c-18 -1.33301 -32.6611 -1.33008 -43.9941 0.00292969c-14 0.666992 -25 3.66699 -33 9c-8.66699 6.66699 -13.667 15 -15 25c-0.666992 8.66699 1.66602 17 6.99902 25c4.66699 6 11.667 11.667 21 17c12.667 7.33301 28.334 13.666 47.001 18.999
c8.66699 2 16.334 3.33301 23.001 4c12 2 22 0.666992 30 -4c34.667 -19.333 48.667 -58.333 42 -117c-2.66699 -21.333 -8 -42.166 -16 -62.499s-18 -35.833 -30 -46.5c-28 -26 -61.333 -34.333 -100 -25c-24 6 -54 21 -90 45l-34 24c-20.667 14 -36.334 24.333 -47.001 31
c-26 15.333 -46.667 22.666 -62 21.999c-12.667 -0.666992 -28 -6 -46 -16c-8.66699 -4.66699 -14.667 -9.33398 -18 -14.001c1.33301 -0.666992 4.33301 -2 9 -4c10 -5.33301 17.333 -10.333 22 -15c12.667 -12 16.667 -26 12 -42
c-4.66699 -16.667 -16.334 -27 -35.001 -31c-12.667 -2 -24.334 -1 -35.001 3c-20.667 8 -34.667 26.333 -42 55c-5.33301 19.333 -7.33301 42.666 -6 69.999c1.33301 24.667 5 48 11 70c6.66699 24.667 15 43 25 55c10 12.667 22 24.334 36 35.001s30.333 20.5 49 29.5
s34.5 16.167 47.5 21.5s31 12.166 54 20.499s38.5 14.166 46.5 17.499c45.333 18 79.666 36.667 102.999 56s36.666 44.333 39.999 75c4 38.667 -7.5 70 -34.5 94s-63.833 38 -110.5 42c-46 4.66699 -88.333 -1.66602 -127 -18.999s-63.667 -41.333 -75 -72
c-2.66699 -7.33301 -4.66699 -14.333 -6 -21c20.667 10 38.667 13 54 9c22.667 -4.66699 35 -19.334 37 -44.001c2 -14.667 -1 -29.334 -9 -44.001c-8.66699 -17.333 -20.334 -28.666 -35.001 -33.999c-11.333 -3.33301 -23.333 -2.33301 -36 3c-2 1.33301 -5 3 -9 5
c-2.66699 1.33301 -4.66699 2 -6 2c-30.667 13.333 -49.334 35.333 -56.001 66c-4 22.667 -0.666992 48.667 10 78c11.333 32 32 58.667 62 80c29.333 22 61.333 36.833 96 44.5s69.667 9.83398 105 6.50098c27.333 -2 53.166 -7.66699 77.499 -17s46.5 -22 66.5 -38
s35.167 -36.667 45.5 -62s13.833 -53.666 10.5 -84.999c-2.66699 -25.333 -9.66699 -47.833 -21 -67.5s-26.333 -36.667 -45 -51s-36.5 -26 -53.5 -35s-37.5 -18.167 -61.5 -27.5l-50 -19l-51 -19c-11.333 -4.66699 -24.833 -10.834 -40.5 -18.501
s-28.834 -15.5 -39.501 -23.5s-20 -16.667 -28 -26c-4 -5.33301 -8.33301 -16 -13 -32c-2 -8 -3.66699 -16.333 -5 -25c26 15.333 50.333 23.333 73 24c27.333 0.666992 59 -9.66602 95 -30.999c8.66699 -4.66699 17.334 -10 26.001 -16l31 -22l26 -18
c30 -20 53.667 -32 71 -36c18 -4.66699 33.333 -1.33398 46 9.99902c4.66699 4.66699 9.66699 13.667 15 27s9 28.333 11 45c0.666992 8.66699 1 16.334 1 23.001c-5.33301 -4.66699 -11.666 -7.33398 -18.999 -8.00098z" />
    <glyph glyph-name="three" unicode="3" horiz-adv-x="648" 
d="M126 436c-8.66699 12 -15.334 24.8311 -20.001 38.498s-7.5 24.834 -8.5 33.501s-1.83301 21.334 -2.5 38.001c-1.33301 32.667 -2 50 -2 52c2 33.333 15.333 55.333 40 66c6 2 14.667 3.33301 26 4c7.33301 0.666992 16.666 0.666992 27.999 0
c18 -0.666992 42 -2.33398 72 -5.00098c13.333 -1.33301 29.5 -2.83301 48.5 -4.5s34.667 -3.16699 47 -4.5s20.833 -2 25.5 -2h67c18.667 -0.666992 32.667 -1 42 -1h14c2.66699 -0.666992 4.83398 -1 6.50098 -1s3.16699 -0.333008 4.5 -1c1.33301 0 3 -0.333008 5 -1
c7.33301 -3.33301 12.666 -9 15.999 -17c3.33301 -8.66699 3 -18.334 -1 -29.001c-2 -4.66699 -5 -9.66699 -9 -15c-5.33301 -8.66699 -13.666 -19 -24.999 -31c-18 -20 -43.333 -45.667 -76 -77l-70 -64l12 1c13.333 1.33301 22.666 1.66602 27.999 0.999023
c19.333 -4 41.666 -14.333 66.999 -31c32 -22 55.5 -50.833 70.5 -86.5s20.5 -71.334 16.5 -107.001s-16.167 -70.167 -36.5 -103.5s-46.833 -58.666 -79.5 -75.999c-24.667 -12.667 -55.334 -19.667 -92.001 -21s-71 2.66699 -103 12
c-36 8.66699 -68.667 22.334 -98 41.001s-50.666 41.334 -63.999 68.001c-28.667 57.333 -33.667 102.333 -15 135c9.33301 15.333 21.666 25.833 36.999 31.5s30.666 7.83398 45.999 6.50098c14 -1.33301 26.333 -5 37 -11c18.667 -11.333 26.667 -26 24 -44
c-2.66699 -17.333 -14.667 -30.333 -36 -39c-13.333 -5.33301 -31.666 -9.33301 -54.999 -12c3.33301 -12 8.66602 -25.667 15.999 -41c8 -16 23 -31 45 -45s48 -24.833 78 -32.5s58.667 -11 86 -10s49.333 6.16699 66 15.5c32.667 16.667 56.334 42.667 71.001 78
s17.834 71 9.50098 107s-27.5 64 -57.5 84c-18 12.667 -32.333 19.667 -43 21c-1.33301 0 -5.66602 -0.333008 -12.999 -1c-16 -0.666992 -27 -1.33398 -33 -2.00098c-15.333 0 -28 1 -38 3c-21.333 6 -33.666 18 -36.999 36c-1.33301 6 -1 11.667 1 17
c0.666992 2 1.66699 3.66699 3 5c0.666992 1.33301 1.33398 2.33301 2.00098 3l2 2l1 1l2 2l7 7l26 23l75 70c29.333 28 52.333 51 69 69h-4h-69c-5.33301 0 -14.333 0.666992 -27 2s-28.667 2.83301 -48 4.5s-35.666 3.16699 -48.999 4.5
c-29.333 2.66699 -52.333 4.33398 -69 5.00098h-24h-4h-1c-1.33301 -2 -2.33301 -6.66699 -3 -14c-0.666992 -6.66699 -1 -11.667 -1 -15l2 -15c0.666992 -6.66699 1 -12 1 -16c0.666992 -20.667 2.16699 -36 4.5 -46s7.16602 -20 14.499 -30
c5.33301 -7.33301 7.33301 -15 6 -23s-5.5 -14.5 -12.5 -19.5s-14.5 -6.83301 -22.5 -5.5s-14.333 5.33301 -19 12z" />
    <glyph glyph-name="four" unicode="4" horiz-adv-x="708" 
d="M100 269c4 -0.666992 8.33398 -1.33203 13.001 -1.99902c7.33301 0 19.333 0.333008 36 1s26.667 1 30 1c50 -1.33301 118.333 -1 205 1c2 125.333 3 211.666 3 258.999c0 6.66699 0.166992 19 0.5 37s0.5 30 0.5 36l-1 -2c-18.667 -18.667 -33.334 -35 -44.001 -49
l-28 -32l-56 -63l-58 -66l-81 -96zM443.001 211.002c-0.666992 -50 -0.998047 -94.0039 -0.998047 -132.004v-1c41.333 -1.33301 88 -5.33301 140 -12c8 -1.33301 14.5 -5.16602 19.5 -11.499s7 -13.666 6 -21.999s-4.66699 -15 -11 -20s-13.833 -7.16699 -22.5 -6.5
c-136 17.333 -248.667 17.666 -338 0.999023c-8 -1.33301 -15.333 0.333984 -22 5.00098s-10.834 11.167 -12.501 19.5s-0.166992 15.833 4.5 22.5s11.334 11 20.001 13c48 8.66699 100 13 156 13c0 37.333 0.333008 80.666 1 129.999c-87.333 -2 -156 -2.33301 -206 -1
l-25 -1c-16.667 -0.666992 -30.334 -1 -41.001 -1c-18 1.33301 -32.667 4 -44 8c-22 8.66699 -34 23.334 -36 44.001c-0.666992 6.66699 1.33301 14.334 6 23.001c2 4 5 8.66699 9 14c6 9.33301 15 21.333 27 36l82 97l59 65l54 62c14 16 23 27 27 33
c12.667 15.333 29 33 49 53c13.333 13.333 24.666 23.333 33.999 30c6 5.33301 12 9.33301 18 12c12 5.33301 23 5.33301 33 0c4 -2 7.33301 -4.66699 10 -8s4.33398 -6 5.00098 -8l2 -4c0.666992 -2 1 -4.66699 1 -8c0.666992 -3.33301 1 -8 1 -14
c0.666992 -8.66699 0.666992 -21 0 -37c0 -7.33301 -0.166992 -20.166 -0.5 -38.499s-0.5 -30.833 -0.5 -37.5c0 -47.333 -1 -133.333 -3 -258c46 1.33301 84.333 2 115 2c8 0 15 -3 21 -9s9 -13 9 -21s-3 -15 -9 -21s-13 -9 -21 -9
c-30.667 0 -69.334 -0.666992 -116.001 -2z" />
    <glyph glyph-name="five" unicode="5" horiz-adv-x="674" 
d="M486 498c-2.66699 6.66699 -6.33398 24.6699 -11.001 54.0029c-2.66699 16.667 -5.33398 27 -8.00098 31c-2 2.66699 -6 4.66699 -12 6c-9.33301 2.66699 -36.666 2.66699 -81.999 0c-58 -3.33301 -92.333 -4.66602 -103 -3.99902c-5.33301 0 -13.666 1 -24.999 3
c-14 2 -23 3.33301 -27 4c-14 2 -24 2.66699 -30 2c-1.33301 -3.33301 -3 -7 -5 -11c-5.33301 -14.667 -8 -43.334 -8 -86.001c0 -6 0.166992 -22.667 0.5 -50s0.166016 -42 -0.500977 -44c30.667 20.667 65 34.667 103 42s75.333 6.33301 112 -3
c30 -8 60.167 -21.167 90.5 -39.5s52.5 -40.166 66.5 -65.499c16 -28 25.167 -59.333 27.5 -94s-2.83398 -68.334 -15.501 -101.001s-31.667 -59.334 -57 -80.001c-32 -24.667 -68.667 -43.5 -110 -56.5s-84.833 -17 -130.5 -12s-85.167 20.5 -118.5 46.5
c-4 3.33301 -12.667 12 -26 26c-14 14.667 -22.333 23.667 -25 27c-14.667 22.667 -21.667 50 -21 82c0.666992 20 6 36 16 48c14 17.333 33.333 24.333 58 21c15.333 -2 28.166 -9.16699 38.499 -21.5s13.166 -26.5 8.49902 -42.5
c-6.66699 -23.333 -25.667 -35.666 -57 -36.999c2.66699 -8 5 -13.333 7 -16l18 -20c11.333 -12 17.666 -18.333 18.999 -19c40.667 -28.667 88.167 -40.334 142.5 -35.001s101.833 24.333 142.5 57c26 20 42 50.167 48 90.5s0.333008 75.833 -17 106.5
c-9.33301 16.667 -25.666 32 -48.999 46s-47.333 24.333 -72 31c-27.333 7.33301 -55.833 8 -85.5 2s-56.5 -17.333 -80.5 -34l-23 -20l-17 -15l-7 -6c-0.666992 -0.666992 -1.66699 -1.33398 -3 -2.00098c-0.666992 -0.666992 -1.66699 -1.33398 -3 -2.00098l-4 -2
c-0.666992 0 -1.5 -0.166992 -2.5 -0.5s-3.5 -0.833008 -7.5 -1.5s-7.33301 0 -10 2c-14.667 4.66699 -23 14.667 -25 30c-0.666992 6 0.333008 12.667 3 20c0 1.33301 0.333008 3.33301 1 6l2 4l1 2c0.666992 4 1.16699 10 1.5 18s0.5 12.667 0.5 14
c0.666992 12 1 21.5 1 28.5s-0.166992 18.167 -0.5 33.5s-0.5 27.333 -0.5 36c0 49.333 3.83301 84.666 11.5 105.999s18.834 36 33.501 44c14 6.66699 36 8.33398 66 5.00098c4.66699 -0.666992 14 -2.33398 28 -5.00098c9.33301 -1.33301 15.333 -2 18 -2
c6 -0.666992 38.667 0.666016 98 3.99902c51.333 2.66699 85 2 101 -2c18.667 -5.33301 33.334 -14.666 44.001 -27.999c8.66699 -11.333 15.334 -30.666 20.001 -57.999c4 -25.333 6.33301 -39.666 7 -42.999c2.66699 -8 2.33398 -15.667 -0.999023 -23s-9 -12.333 -17 -15
s-15.667 -2.33398 -23 0.999023s-12.333 9 -15 17z" />
    <glyph glyph-name="six" unicode="6" horiz-adv-x="686" 
d="M116 352c47.333 37.333 85.6641 64.001 114.997 80.001c62.667 32 121.334 39.333 176.001 22c22.667 -7.33301 45.167 -18.333 67.5 -33s39.833 -31.334 52.5 -50.001c34.667 -48 54.334 -105.333 59.001 -172c5.33301 -77.333 -13.667 -135.666 -57 -174.999
c-45.333 -42 -102.666 -63 -171.999 -63c-74 0 -135 21.667 -183 65c-46.667 42 -80 97.333 -100 166c-18 62 -23 126.667 -15 194c8 68.667 27.333 128.667 58 180c28 46 65.5 81.333 112.5 106s97.333 34.167 151 28.5s101.5 -28.167 143.5 -67.5
c36 -34.667 47.667 -73.334 35 -116.001c-6 -20.667 -16.333 -36.5 -31 -47.5s-29.5 -16.167 -44.5 -15.5s-29.167 3.66699 -42.5 9c-10.667 5.33301 -19.5 12.833 -26.5 22.5s-9.83301 21.167 -8.5 34.5c2.66699 24.667 20.667 44.667 54 60
c6.66699 2.66699 13 3.66699 19 3c1.33301 1.33301 3 2.66602 5 3.99902l-2 2c-30.667 30 -66.5 47.333 -107.5 52s-80 -2.66602 -117 -21.999s-66.5 -47.666 -88.5 -84.999c-31.333 -50.667 -49 -111.334 -53 -182.001zM117.998 282.001
c2 -26 6.66406 -50.666 13.9971 -73.999c16 -56.667 43 -102 81 -136s86 -51 144 -51c53.333 0 97.333 15.667 132 47c28.667 26.667 41 69 37 127c-4 55.333 -19.667 102.666 -47 141.999c-8.66699 12 -21.5 23.5 -38.5 34.5s-34.167 19.167 -51.5 24.5
c-39.333 13.333 -82.666 7.33301 -129.999 -18c-7.33301 -3.33301 -15 -7.5 -23 -12.5s-14.667 -9.33301 -20 -13s-12.666 -9.16699 -21.999 -16.5l-20 -15l-22 -17c-11.333 -8.66699 -17.666 -14 -18.999 -16c-4.66699 -3.33301 -9.66699 -5.33301 -15 -6z" />
    <glyph glyph-name="seven" unicode="7" horiz-adv-x="675" 
d="M574 590c-4.66699 -26 -11.6699 -50.1641 -21.0029 -72.4971s-21.166 -43 -35.499 -62s-26.666 -34.333 -36.999 -46s-25.166 -26.5 -44.499 -44.5l-38 -37c-13.333 -14 -24.666 -27 -33.999 -39s-18.5 -27.167 -27.5 -45.5s-15.667 -37.333 -20 -57
s-6.5 -43.667 -6.5 -72s3 -59.166 9 -92.499c1.33301 -8 -0.5 -15.5 -5.5 -22.5s-11.5 -11.167 -19.5 -12.5s-15.5 0.5 -22.5 5.5s-11.167 11.5 -12.5 19.5c-4.66699 31.333 -7.5 60.666 -8.5 87.999s0.166992 52.166 3.5 74.499s8 42.666 14 60.999
s13.833 35.666 23.5 51.999s19.334 30.833 29.001 43.5s21.167 25.667 34.5 39c7.33301 8 21.5 21.833 42.5 41.5s37.667 36.5 50 50.5s23.166 29 32.499 45c-42.667 -7.33301 -87 7.66699 -133 45l-25 22c-12 10 -20.167 16.667 -24.5 20s-10.5 7.16602 -18.5 11.499
s-15.667 6.83301 -23 7.5c-14 2.66699 -32 -3.33301 -54 -18c-5.33301 -4 -16.666 -12 -33.999 -24c-14.667 -11.333 -26.667 -19.333 -36 -24l-4 -2c0 -11.333 0.333008 -33.166 1 -65.499s0.666992 -55.5 0 -69.5c0 -8 -3 -14.833 -9 -20.5s-13.167 -8.5 -21.5 -8.5
s-15.333 3 -21 9s-8.5 13.333 -8.5 22c0.666992 13.333 0.5 36.833 -0.5 70.5s-0.833008 64.167 0.5 91.5s4.66602 52.333 9.99902 75c1.33301 8.66699 5.5 15.167 12.5 19.5s14.667 5.66602 23 3.99902s14.666 -6 18.999 -13s5.5 -14.5 3.5 -22.5
c-0.666992 -6 -1.66699 -11.667 -3 -17l35 25c35.333 23.333 67.666 32.666 96.999 27.999c12 -2 24.5 -6.5 37.5 -13.5s22.667 -12.667 29 -17s16.5 -12.666 30.5 -24.999s21.333 -18.833 22 -19.5c18 -14 34.167 -23.667 48.5 -29s30.166 -5.33301 47.499 0
c8.66699 2.66699 16 11.334 22 26.001l2 4c-6 -0.666992 -11.667 0.333008 -17 3c-12 6.66699 -21.333 13.667 -28 21c-11.333 13.333 -13.666 27.333 -6.99902 42c5.33301 11.333 15 18.666 29 21.999c8.66699 2 17.667 2 27 0c22.667 -4.66699 39.334 -16.667 50.001 -36
c6 -10.667 9 -22.667 9 -36c6 -7.33301 8 -15.666 6 -24.999z" />
    <glyph glyph-name="eight" unicode="8" horiz-adv-x="676" 
d="M185 371c-4 2 -7.67285 4.33105 -11.0059 6.99805c-30 19.333 -52 46 -66 80s-15.833 68.667 -5.5 104s33.166 62.666 68.499 81.999c29.333 16.667 59.833 28.5 91.5 35.5s64.834 7.83301 99.501 2.5s66 -17.666 94 -36.999c20.667 -14.667 38.334 -33 53.001 -55
s24 -44.667 28 -68c4.66699 -27.333 0.833984 -52.666 -11.499 -75.999s-33.5 -40.666 -63.5 -51.999c-1.33301 -0.666992 -2.66602 -1 -3.99902 -1c-6 -3.33301 -12.333 -6.66602 -19 -9.99902c14.667 -8.66699 33.334 -23.334 56.001 -44.001
c50 -44.667 77 -92.334 81 -143.001c4 -47.333 -11.333 -90.333 -46 -129c-31.333 -35.333 -72.666 -61 -123.999 -77c-51.333 -15.333 -103.333 -16.666 -156 -3.99902c-56 12.667 -99.833 37.667 -131.5 75s-47.5 79 -47.5 125c0 36.667 9.83301 71.5 29.5 104.5
s47.834 59.833 84.501 80.5zM462.994 462.998c13.333 11.333 18.332 27.667 14.999 49c-2.66699 14.667 -9.16699 29.667 -19.5 45s-22.5 28 -36.5 38c-32.667 21.333 -68.5 31.333 -107.5 30s-77.5 -12.333 -115.5 -33c-19.333 -10.667 -32.166 -26.334 -38.499 -47.001
s-5.5 -42 2.5 -64s22.333 -39.667 43 -53c21.333 -14 47 -21.333 77 -22s59 3.83301 87 13.5s55 22.5 81 38.5c3.33301 2.66699 7.33301 4.33398 12 5.00098zM262.993 338.999c-43.333 -12.667 -76.167 -33.1699 -98.5 -61.5029s-33.5 -58.5 -33.5 -90.5
s11.167 -61.333 33.5 -88s55.5 -45 99.5 -55c42 -9.33301 83.5 -8 124.5 4s73.5 31.333 97.5 58c22.667 26 32.667 54.333 30 85c-2.66699 34.667 -23 69.334 -61 104.001c-18.667 16.667 -34.5 29.334 -47.5 38.001s-28.833 16 -47.5 22
c-30 -7.33301 -58.333 -10.333 -85 -9c-3.33301 -3.33301 -7.33301 -5.66602 -12 -6.99902z" />
    <glyph glyph-name="nine" unicode="9" horiz-adv-x="647" 
d="M487 314c-13.333 -17.333 -24.6621 -31.0059 -33.9951 -41.0059c-36.667 -41.333 -72.334 -66.333 -107.001 -75c-4.66699 -1.33301 -9.66699 -2.16602 -15 -2.49902s-10.333 -0.5 -15 -0.5s-10 0.5 -16 1.5s-11 2 -15 3s-9 2.16699 -15 3.5s-10.333 2.5 -13 3.5
s-6.83398 2.33301 -12.501 4s-8.83398 2.5 -9.50098 2.5c-66 20.667 -114.833 54.5 -146.5 101.5s-43.167 104.833 -34.5 173.5c6.66699 46.667 20 82 40 106c13.333 16 30.833 29.667 52.5 41s40.167 19.5 55.5 24.5s34 9.83301 56 14.5c56 12.667 104 13.667 144 3
c40.667 -11.333 73.334 -41.333 98.001 -90c19.333 -39.333 32.666 -88 39.999 -146c6.66699 -52 8.33398 -103.667 5.00098 -155s-10.666 -92 -21.999 -122c-30 -76.667 -68.667 -130 -116 -160c-54.667 -34.667 -121.334 -40 -200.001 -16
c-36.667 11.333 -63.667 25.666 -81 42.999c-24.667 24 -35.667 55 -33 93v2c0 0.666992 -0.166992 1.83398 -0.5 3.50098s-0.5 4.16699 -0.5 7.5c-0.666992 12 1.66602 22.667 6.99902 32c5.33301 8 12.166 14.833 20.499 20.5s17.666 8.83398 27.999 9.50098
s20.166 -3.66602 29.499 -12.999c11.333 -13.333 16.333 -27.166 15 -41.499s-6.33301 -29.166 -15 -44.499c-4.66699 -6.66699 -11 -11 -19 -13c2.66699 -4.66699 6 -9 10 -13c10.667 -10.667 29.667 -20 57 -28c60.667 -19.333 110.667 -16.666 150 8.00098
c36.667 23.333 67.334 67.333 92.001 132c11.333 29.333 18 72 20 128zM484.004 404.994c-0.666992 9.33301 -1.66406 18.668 -2.99707 28.001c-6.66699 51.333 -18.334 93.666 -35.001 126.999c-16.667 32.667 -36.667 52.334 -60 59.001c-30 8.66699 -68 7.66699 -114 -3
c-66.667 -15.333 -110.667 -35.333 -132 -60c-12.667 -15.333 -21.334 -40.666 -26.001 -75.999c-14 -106.667 32.333 -176.334 139 -209.001c40.667 -12.667 67 -17.667 79 -15c22 5.33301 47.333 24 76 56c6.66699 7.33301 19 22.666 37 45.999l35 44
c1.33301 1.33301 2.66602 2.33301 3.99902 3z" />
    <glyph glyph-name="colon" unicode=":" horiz-adv-x="271" 
d="M170 379c0 -8 -3 -15 -9 -21s-13 -9 -21 -9s-15 3 -21 9s-9 13 -9 21s3 15 9 21s13 9 21 9s15 -3 21 -9s9 -13 9 -21zM171 47c0 -8 -3 -15 -9 -21s-13 -9 -21 -9s-15 3 -21 9s-9 13 -9 21s3 15 9 21s13 9 21 9s15 -3 21 -9s9 -13 9 -21z" />
    <glyph glyph-name="semicolon" unicode=";" horiz-adv-x="297" 
d="M81 -142c26 48 43.333 91.3359 52 130.003c2.66699 11.333 4 21.666 4 30.999c-12.667 -6 -25.334 -8.66699 -38.001 -8c-18.667 0.666992 -33.334 8.66699 -44.001 24c-9.33301 11.333 -13 25.666 -11 42.999s10.333 30.666 25 39.999c10 6.66699 21.667 9 35 7
c2.66699 -0.666992 6.33398 -1.33398 11.001 -2.00098c3.33301 -0.666992 5.33301 -1 6 -1c36.667 -6.66699 60.334 -26.667 71.001 -60c7.33301 -23.333 7.33301 -52.333 0 -87c-10 -44.667 -29.667 -93 -59 -145c-4 -7.33301 -10 -12.166 -18 -14.499
s-15.5 -1.5 -22.5 2.5s-11.667 10 -14 18s-1.5 15.333 2.5 22zM151 379.003c0 -8 -3 -15 -9 -21s-13 -9 -21 -9s-15 3 -21 9s-9 13 -9 21s3 15 9 21s13 9 21 9s15 -3 21 -9s9 -13 9 -21z" />
    <glyph glyph-name="less" unicode="&#x3c;" horiz-adv-x="568" 
d="M455 507c-10 -6.66699 -24.3281 -17.6621 -42.9951 -32.9951c-20 -17.333 -35.667 -30 -47 -38c-34 -23.333 -89 -50.333 -165 -81c-2 -0.666992 -6 -2.33398 -12 -5.00098l-26 -9l-26 -10l-28 -11c6 -4 16.667 -9 32 -15c31.333 -12.667 49.333 -20.334 54 -23.001
l237 -123c8 -4 13.167 -9.83301 15.5 -17.5s1.66602 -15.334 -2.00098 -23.001s-9.33398 -12.667 -17.001 -15s-15.167 -1.83301 -22.5 1.5c-90.667 45.333 -170.334 87 -239.001 125c-2.66699 1.33301 -18.667 7.66602 -48 18.999c-28 10.667 -47.333 22 -58 34
c-6.66699 7.33301 -12 15 -16 23c-6 13.333 -6.66699 26.333 -2 39c0.666992 3.33301 2.16699 6.33301 4.5 9s4.16602 4.66699 5.49902 6l3 1c1.33301 1.33301 3.33301 2.66602 6 3.99902c4 2 9 4.33301 15 7c9.33301 4 22 9 38 15l27 11l25 8
c6 2.66699 10 4.33398 12 5.00098c70.667 29.333 121.667 54.333 153 75c10 6.66699 24.333 17.667 43 33c20 17.333 35.667 30 47 38c6.66699 4.66699 14.167 6.16699 22.5 4.5s14.833 -5.83398 19.5 -12.501s6.16699 -14.167 4.5 -22.5s-5.83398 -14.833 -12.501 -19.5z
" />
    <glyph glyph-name="equal" unicode="=" horiz-adv-x="572" 
d="M434 231c-46.667 -2.66699 -112.667 -3.33398 -198 -2.00098c-93.333 1.33301 -158.333 1.33301 -195 0c-8 0 -15.167 2.83301 -21.5 8.5s-9.5 12.5 -9.5 20.5s2.83301 15.167 8.5 21.5s12.5 9.5 20.5 9.5c38 1.33301 104 1.33301 198 0
c84.667 -1.33301 149 -0.666016 193 2.00098c8.66699 0.666992 16 -1.83301 22 -7.5s9.33301 -12.667 10 -21s-1.83301 -15.5 -7.5 -21.5s-12.5 -9.33301 -20.5 -10zM444 385c-46.667 -2.66699 -112.667 -3.33398 -198 -2.00098c-93.333 1.33301 -158.333 1.33301 -195 0
c-8 0 -15.167 2.83301 -21.5 8.5s-9.5 12.5 -9.5 20.5s2.83301 15.167 8.5 21.5s12.5 9.5 20.5 9.5c38 1.33301 104 1.33301 198 0c84.667 -1.33301 149 -0.666016 193 2.00098c8.66699 0.666992 16 -1.83301 22 -7.5s9.33301 -12.667 10 -21s-1.83301 -15.5 -7.5 -21.5
s-12.5 -9.33301 -20.5 -10z" />
    <glyph glyph-name="greater" unicode="&#x3e;" horiz-adv-x="549" 
d="M44 142c9.33301 6.66699 22.6709 18.665 40.0039 35.998c19.333 17.333 34.666 30.333 45.999 39c31.333 24 84.666 53.667 159.999 89c2 1.33301 6.33301 3.33301 13 6l25 10l26 11c11.333 5.33301 20.333 9.33301 27 12c-6 4 -16.667 8.66699 -32 14
c-32 10.667 -50.667 17.334 -56 20.001c-88.667 44 -169.334 81 -242.001 111c-8 3.33301 -13.5 8.83301 -16.5 16.5s-3 15.334 0 23.001s8.33301 13 16 16s15.167 3.16699 22.5 0.5c69.333 -28.667 151.333 -66.334 246 -113.001c3.33301 -1.33301 19.666 -7 48.999 -17
c28 -9.33301 47.667 -19.666 59 -30.999c20 -19.333 27 -39.666 21 -60.999c-2 -6 -5.66699 -11.333 -11 -16c-2 -1.33301 -4.33301 -3 -7 -5c-4 -2 -9 -4.66699 -15 -8l-38 -17l-25 -11l-24 -10c-6 -2.66699 -10 -4.33398 -12 -5.00098c-72 -34 -122 -61.667 -150 -83
c-9.33301 -7.33301 -23 -19 -41 -35c-19.333 -18 -34.333 -31.333 -45 -40c-6.66699 -4.66699 -14 -6.5 -22 -5.5s-14.5 4.83301 -19.5 11.5s-7 14 -6 22s4.83301 14.667 11.5 20z" />
    <glyph glyph-name="question" unicode="?" horiz-adv-x="636" 
d="M207 474c0 -0.666992 0.169922 -0.995117 0.50293 -0.995117s0.666016 -0.166992 0.999023 -0.5s1.33301 -1 3 -2s3.5 -2.16699 5.5 -3.5c14 -10.667 20.667 -23.334 20 -38.001c-0.666992 -13.333 -5 -24.333 -13 -33s-18 -14 -30 -16
c-18 -3.33301 -37.333 0.666992 -58 12c-20 10.667 -36.333 27 -49 49s-18.334 47.667 -17.001 77c2 42.667 20.667 76.667 56 102s83.666 43.666 144.999 54.999c70.667 13.333 123.667 8.66602 159 -14.001c23.333 -14.667 47.333 -41.334 72 -80.001
c34 -52.667 42.667 -100.334 26 -143.001c-5.33301 -13.333 -12.5 -25.833 -21.5 -37.5s-20 -22.667 -33 -33s-23.833 -18.166 -32.5 -23.499l-35 -22c-20.667 -12 -36 -21.167 -46 -27.5s-20 -14 -30 -23s-16.667 -18.167 -20 -27.5
c-1.33301 -2.66699 -3 -10.334 -5 -23.001l-4 -30c-1.33301 -8 -5.33301 -14.5 -12 -19.5s-14 -7 -22 -6s-14.5 4.83301 -19.5 11.5s-7.16699 14 -6.5 22c2.66699 20 4 30.333 4 31c2.66699 17.333 5.66699 30 9 38c6.66699 14.667 17.167 29 31.5 43s26.833 24.5 37.5 31.5
s25.334 15.833 44.001 26.5c4 2.66699 6.66699 4.33398 8 5.00098c28 16.667 49.667 31.167 65 43.5s26 26.5 32 42.5c9.33301 24 2.66602 53.667 -20.001 89c-20.667 31.333 -38.667 52 -54 62c-22 14 -60.667 15.667 -116 5c-52.667 -9.33301 -92.667 -24 -120 -44
c-20 -14.667 -30.667 -33.334 -32 -56.001c-1.33301 -28 7 -49.667 25 -65c-0.666992 9.33301 2.33301 17.333 9 24c6 5.33301 13.167 8 21.5 8s15.5 -3 21.5 -9zM296.003 59.0049c0 -8 -3 -15 -9 -21s-13 -9 -21 -9s-15 3 -21 9s-9 13 -9 21s3 15 9 21s13 9 21 9
s15 -3 21 -9s9 -13 9 -21z" />
    <glyph glyph-name="at" unicode="@" horiz-adv-x="739" 
d="M437 438c-36 14 -65.667 17.334 -89 10.001c-16.667 -4.66699 -36 -20.334 -58 -47.001c-22.667 -27.333 -41 -57.333 -55 -90c-13.333 -33.333 -18.333 -60.666 -15 -81.999c3.33301 -17.333 14.666 -28 33.999 -32c20 -4 38 -2.16699 54 5.5s34.333 21.5 55 41.5
c4 3.33301 8.66699 5.66602 14 6.99902c0.666992 3.33301 1 6.33301 1 9c3.33301 24 11 52.667 23 86c6.66699 20 17.334 47.333 32.001 82zM565 110.001c-6 -3.33301 -22.6631 -14.999 -49.9961 -34.999c-23.333 -16 -44 -27.667 -62 -35
c-40.667 -16.667 -83.5 -25.834 -128.5 -27.501s-87.833 4.5 -128.5 18.5c-43.333 16 -79.333 40.833 -108 74.5s-46.334 75.5 -53.001 125.5c0 0.666992 -1.66699 12.334 -5 35.001s-5.33301 38.667 -6 48s-0.666992 22.833 0 40.5s3 33.5 7 47.5l6 14
c2 5.33301 3.83301 9.83301 5.5 13.5s4.33398 8.16699 8.00098 13.5s6.16699 9.16602 7.5 11.499s4.16602 6.33301 8.49902 12s7 9 8 10s4.16699 4.5 9.5 10.5l7 9c3.33301 4.66699 11 14.667 23 30s23 28.666 33 39.999s20.333 21.333 31 30
c36 30.667 78.5 52.334 127.5 65.001s99 13.167 150 1.5s93.167 -36.167 126.5 -73.5c23.333 -25.333 40.666 -69 51.999 -131c11.333 -65.333 6.33301 -125.333 -15 -180c-26.667 -68 -73 -109.333 -139 -124c-20 -4.66699 -34.333 -6.33398 -43 -5.00098
c-16.667 2.66699 -31.334 13.334 -44.001 32.001c-1.33301 1.33301 -2.66602 3 -3.99902 5c-47.333 -42 -96.333 -57.667 -147 -47c-22.667 4 -40.834 13.167 -54.501 27.5s-22.5 31.833 -26.5 52.5c-6 32 0.333008 70.333 19 115
c16.667 39.333 38.334 74.666 65.001 105.999c29.333 35.333 57.666 57.333 84.999 66c36.667 11.333 80 7.33301 130 -12c8 13.333 19.333 17.666 34 12.999c8 -2.66699 13.833 -7.66699 17.5 -15s4.5 -15 2.5 -23c-2 -6.66699 -10.667 -28 -26 -64
c-14 -33.333 -24.333 -59.666 -31 -78.999c-10 -29.333 -16.333 -53.666 -19 -72.999c-2.66699 -18.667 -1.66699 -31.334 3 -38.001c2.66699 -3.33301 4.66699 -5.33301 6 -6c2 0 8.33301 1 19 3c45.333 10 77.666 39.333 96.999 88c17.333 43.333 21 92.666 11 147.999
c-8.66699 50.667 -20.667 84.334 -36 101.001c-40 42 -92 62.5 -156 61.5s-119.333 -21.167 -166 -60.5c-8.66699 -7.33301 -17 -15.666 -25 -24.999l-29 -35l-25 -32l-22 -27c-4 -4.66699 -8.83301 -11.5 -14.5 -20.5s-9.5 -17.833 -11.5 -26.5
c-3.33301 -10 -5.16602 -21.5 -5.49902 -34.5s-0.166016 -23.167 0.500977 -30.5s2.66699 -21.333 6 -42l5 -38c9.33301 -74.667 49.666 -125 120.999 -151c32.667 -12 68 -17.333 106 -16s74.333 9.33301 109 24c13.333 5.33301 29.666 15 48.999 29
c29.333 20 47.5 32.167 54.5 36.5s14.5 5.5 22.5 3.5s14.167 -6.5 18.5 -13.5s5.5 -14.5 3.5 -22.5s-6.66699 -14.333 -14 -19z" />
    <glyph glyph-name="A" unicode="A" horiz-adv-x="851" 
d="M255 291c66.667 6.66699 138.666 10.332 215.999 10.999l-16 50c-24 74.667 -43.333 131.334 -58 170.001c-8.66699 24 -16 42.667 -22 56c-3.33301 6.66699 -6 11.667 -8 15v1c-1.33301 0 -2.16602 0.166992 -2.49902 0.5s-0.166016 0.833008 0.500977 1.5
c-4 -2.66699 -8.33301 -9 -13 -19c-4.66699 -9.33301 -9.66699 -22.333 -15 -39c-7.33301 -22 -11.333 -34.333 -12 -37c-9.33301 -23.333 -23 -63.666 -41 -120.999c-12.667 -40.667 -22.334 -70.334 -29.001 -89.001zM231.999 228.998
c-2.66699 -6.66699 -14.9941 -34.0049 -36.9941 -82.0049c-14.667 -33.333 -25.667 -61.333 -33 -84h147c8 0 15 -3 21 -9s9 -13 9 -21s-3 -15 -9 -21s-13 -9 -21 -9h-291c-8 0 -15 3 -21 9s-9 13 -9 21s3 15 9 21s13 9 21 9h81c8.66699 29.333 22.667 65.333 42 108
c24.667 56 39.667 91 45 105c9.33301 24.667 22.666 65.334 39.999 122.001c17.333 54.667 31.666 96.334 42.999 125.001c0.666992 1.33301 4.33398 12.333 11.001 33c6 20 12 36 18 48c10 20.667 22.333 35 37 43c21.333 12.667 43.666 11.334 66.999 -3.99902
c5.33301 -4 10.666 -10 15.999 -18c3.33301 -6 7 -13.333 11 -22c7.33301 -14.667 15.666 -34.667 24.999 -60c14 -39.333 33.333 -97 58 -173l24 -74l24 -76l20 -61l18 -53l11 -32c2 -3.33301 3 -7 3 -11c34.667 -1.33301 72 -3.66602 112 -6.99902
c8 -0.666992 14.667 -4.16699 20 -10.5s7.66602 -13.666 6.99902 -21.999s-4.16699 -15.166 -10.5 -20.499s-13.833 -7.66602 -22.5 -6.99902c-118.667 10.667 -223.334 10.334 -314.001 -0.999023c-8.66699 -0.666992 -16.167 1.5 -22.5 6.5s-10 11.667 -11 20
s1 15.666 6 21.999s11.5 10.166 19.5 11.499c46.667 5.33301 97.667 8.33301 153 9c-10 25.333 -29.667 84.666 -59 177.999c-94 0 -180 -4.33301 -258 -13z" />
    <glyph glyph-name="B" unicode="B" horiz-adv-x="712" 
d="M206 587c2.66699 -57.333 3.66699 -123 3 -197h3c55.333 -7.33301 104.333 -10.666 147 -9.99902c60.667 1.33301 103 10.333 127 27c27.333 20 40.333 48.833 39 86.5s-16.333 64.5 -45 80.5c-2.66699 1.33301 -8.66699 2.66602 -18 3.99902
c-12.667 2 -29 3.66699 -49 5c-39.333 2.66699 -86 4 -140 4h-67zM205 58c19.333 -1.33301 36.002 -2.33301 50.002 -3c86 -3.33301 148 1.33398 186 14.001c36.667 12.667 64 29.334 82 50.001s28 43.334 30 68.001c1.33301 24 -5.16699 49.167 -19.5 75.5
s-36.5 50.166 -66.5 71.499c-28.667 -8 -64.334 -12.667 -107.001 -14c-44 -0.666992 -94.333 2.66602 -151 9.99902c-0.666992 -20.667 -1.33398 -49.334 -2.00098 -86.001s-1.16699 -70.167 -1.5 -100.5s-0.5 -58.833 -0.5 -85.5zM48.002 64
c22.667 0.666992 55.002 0.000976562 97.002 -1.99902c0 39.333 0.666992 97.5 2 174.5s2.16602 135 2.49902 174s-0.833984 97.5 -3.50098 175.5c-53.333 -2 -86.666 -4.66699 -99.999 -8c-8 -2 -15.5 -0.833008 -22.5 3.5s-11.5 10.5 -13.5 18.5s-0.833008 15.5 3.5 22.5
s10.5 11.5 18.5 13.5c30 7.33301 110.333 11 241 11c56 0 104 -1.66699 144 -5c21.333 -1.33301 39.333 -3 54 -5c18 -2.66699 31 -6.33398 39 -11.001c30.667 -17.333 52.167 -42.833 64.5 -76.5s14 -67.834 5 -102.501s-26.5 -62.667 -52.5 -84
c29.333 -25.333 51.5 -53.666 66.5 -84.999s21.167 -63 18.5 -95c-2 -38 -16.167 -72 -42.5 -102s-62.5 -52.667 -108.5 -68c-46 -16 -115.667 -22 -209 -18c-16 1.33301 -38.667 2.83301 -68 4.5s-54.833 3 -76.5 4s-40.834 1.16699 -57.501 0.5
c-8.66699 0 -16 2.83301 -22 8.5s-9 12.667 -9 21s2.83301 15.5 8.5 21.5s12.5 9 20.5 9z" />
    <glyph glyph-name="C" unicode="C" horiz-adv-x="674" 
d="M565 655c-2.66699 -34 -3.66895 -74.3301 -3.00195 -120.997l3 -126c0 -8 -3 -15 -9 -21s-13 -9 -21 -9s-15 3 -21 9s-9 13 -9 21c0 12 -0.166992 25 -0.5 39s-0.666016 29.333 -0.999023 46s-0.833008 29.667 -1.5 39v7l-28 17l-28 18
c-5.33301 3.33301 -13.833 8.33301 -25.5 15s-20.834 11.5 -27.501 14.5s-15.167 6.33301 -25.5 10s-19.5 6 -27.5 7s-16.667 1.66699 -26 2s-18.333 -0.5 -27 -2.5c-43.333 -10 -78.666 -34.5 -105.999 -73.5s-46 -87.167 -56 -144.5
c-9.33301 -55.333 -9.66602 -110 -0.999023 -164c8 -54.667 23 -98.667 45 -132c22.667 -34.667 59.667 -56.334 111 -65.001c64.667 -11.333 117.667 3.66699 159 45c38 38 63 93 75 165c1.33301 8 5.5 14.5 12.5 19.5s14.5 6.83301 22.5 5.5s14.5 -5.5 19.5 -12.5
s6.83301 -14.5 5.5 -22.5c-14.667 -84.667 -45.667 -150.667 -93 -198c-56 -55.333 -126.333 -76 -211 -62c-68 12 -118.333 42.333 -151 91c-27.333 41.333 -45.666 93.333 -54.999 156s-8.66602 124 2.00098 184c7.33301 43.333 19 82 35 116c16 35.333 38.833 67 68.5 95
s64.167 46.333 103.5 55c12 2.66699 24.333 4.16699 37 4.5s24.5 -0.333984 35.5 -2.00098s22.667 -4.5 35 -8.5s23.333 -8 33 -12s20.334 -9.16699 32.001 -15.5s21.167 -11.833 28.5 -16.5l28 -18c0.666992 18 1.66699 35 3 51c0.666992 8 4.16699 14.667 10.5 20
s13.666 7.66602 21.999 6.99902s15.166 -4.16699 20.499 -10.5s7.66602 -13.833 6.99902 -22.5z" />
    <glyph glyph-name="D" unicode="D" horiz-adv-x="768" 
d="M206 596c-2 -22.667 -3.00098 -39.8281 -3.00098 -51.4951s0.666992 -29.834 2 -54.501s2 -44.334 2 -59.001c0 -18 -0.5 -56.333 -1.5 -115s-1 -106.834 0 -144.501s3.83301 -74.834 8.5 -111.501c38.667 -1.33301 69.667 -2 93 -2c98 0 169.667 15.667 215 47
c59.333 40.667 88.333 103 87 187c-0.666992 37.333 -7.33398 74.833 -20.001 112.5s-29.334 71.167 -50.001 100.5c-3.33301 4 -8.16602 10.667 -14.499 20s-10.666 15.5 -12.999 18.5s-6 6.83301 -11 11.5s-10.167 8.66699 -15.5 12
c-12.667 7.33301 -39 13.666 -79 18.999c-37.333 4.66699 -81.666 8 -132.999 10h-67zM145.999 595.006c-47.333 -2 -81.0039 -4.99902 -101.004 -8.99902c-8 -2 -15.5 -0.833008 -22.5 3.5s-11.333 10.666 -13 18.999s-0.333984 16 3.99902 23s10.833 11.167 19.5 12.5
c28 6.66699 74 10.667 138 12c6 2 12 2.33301 18 1c1.33301 0 2.33301 -0.333008 3 -1c28 0.666992 55.667 0.666992 83 0c53.333 -2 99.666 -5.33301 138.999 -10c48 -6.66699 81.667 -15.667 101 -27c8.66699 -5.33301 17.167 -11.833 25.5 -19.5
s14.333 -13.834 18 -18.501s9.16699 -12.334 16.5 -23.001s11.333 -17 12 -19c24.667 -33.333 44.334 -71.666 59.001 -114.999s22.334 -87 23.001 -131c0.666992 -48 -8.16602 -92.833 -26.499 -134.5s-47.166 -76.167 -86.499 -103.5c-56 -38 -139 -57 -249 -57
c-18 0 -61.333 1.33301 -130 4c-51.333 2 -89.666 2.33301 -114.999 1c-8.66699 -0.666992 -16 1.83301 -22 7.5s-9.33301 12.667 -10 21s1.83301 15.5 7.5 21.5s12.5 9.33301 20.5 10c24.667 1.33301 56.334 1.33301 95.001 0c-4 36.667 -6.5 74.5 -7.5 113.5s-1 87 0 144
s1.5 93.833 1.5 110.5c0 10.667 -0.5 27.667 -1.5 51s-1.66699 41.833 -2 55.5s0.5 32.834 2.5 57.501z" />
    <glyph glyph-name="E" unicode="E" horiz-adv-x="684" 
d="M60 656c123.333 -9.33301 213.329 -12.001 269.996 -8.00098c2.66699 0 20.167 2 52.5 6s57.166 5.66699 74.499 5c2.66699 0 7 0.333008 13 1c10 0.666992 15.667 1 17 1c19.333 1.33301 35.333 -1.66699 48 -9c8.66699 -5.33301 15.334 -14 20.001 -26
c3.33301 -7.33301 6 -16.666 8 -27.999c4 -17.333 7.66699 -40 11 -68c5.33301 -44.667 8.66602 -83.334 9.99902 -116.001c0 -8 -2.83301 -15.167 -8.5 -21.5s-12.5 -9.5 -20.5 -9.5s-15.167 2.83301 -21.5 8.5s-9.5 12.5 -9.5 20.5
c-1.33301 30.667 -4.33301 67.667 -9 111c-3.33301 26 -6.66602 46.667 -9.99902 62c-1.33301 6.66699 -3 12 -5 16c-2 0.666992 -5 0.666992 -9 0c-0.666992 0 -6 -0.333008 -16 -1c-8 -0.666992 -14.667 -1 -20 -1c-15.333 0.666992 -36.666 -0.833008 -63.999 -4.5
s-46.333 -5.83398 -57 -6.50098c-36 -2.66699 -76.667 -3.33398 -122 -2.00098c0 -53.333 1 -122.333 3 -207c8.66699 0.666992 23 2.33398 43 5.00098s38.333 4.83398 55 6.50098s32.667 2.5 48 2.5c0.666992 43.333 3.66699 80.666 9 111.999
c2 8.66699 6.33301 15.334 13 20.001s14.167 6.16699 22.5 4.5s14.833 -5.83398 19.5 -12.501s6.33398 -14 5.00098 -22c-5.33301 -26.667 -8.33301 -54.667 -9 -84s-0.333984 -65.166 0.999023 -107.499s2 -72.5 2 -90.5c0 -8 -3 -15 -9 -21s-13 -9 -21 -9s-15 3 -21 9
s-9 13 -9 21c0 14.667 -0.5 37.167 -1.5 67.5s-1.5 48.166 -1.5 53.499c-13.333 -0.666992 -27.666 -1.66699 -42.999 -3s-32.666 -3.33301 -51.999 -6s-35 -4.66699 -47 -6h-3c2 -109.333 3 -193.333 3 -252l89 -2l161 -3l50 -2c0 2.66699 0.333008 5.66699 1 9
c1.33301 15.333 2.33301 36.666 3 63.999v48c0 13.333 -0.166992 27 -0.5 41s-0.5 22.667 -0.5 26c0 8 3 15 9 21s13 9 21 9s15 -3 21 -9s9 -13 9 -21c0 -3.33301 0.166992 -12.166 0.5 -26.499s0.5 -28.166 0.5 -41.499v-48c-0.666992 -29.333 -1.66699 -52.666 -3 -69.999
c-1.33301 -11.333 -3 -20.666 -5 -27.999c-3.33301 -13.333 -9 -22.666 -17 -27.999c-4 -4 -10 -6 -18 -6h-1h-1h-2h-2h-14l-52 2l-161 3c-158.667 3.33301 -247 5 -265 5c-8 0 -15 3 -21 9s-9 13 -9 21s3 15 9 21s13 9 21 9c11.333 0 50.333 -0.666992 117 -2
c0 58.667 -1.16699 145.834 -3.5 261.501s-3.5 202.167 -3.5 259.5l-96 7c-8.66699 0.666992 -15.667 4.16699 -21 10.5s-7.66602 13.666 -6.99902 21.999s4.16699 15.166 10.5 20.499s13.5 7.66602 21.5 6.99902z" />
    <glyph glyph-name="F" unicode="F" horiz-adv-x="684" 
d="M60 656c123.333 -9.33301 213.329 -11.9961 269.996 -7.99609c2.66699 0 20.167 2 52.5 6s57.166 5.66699 74.499 5c2.66699 0 7 0.333008 13 1c10 0.666992 15.667 1 17 1c19.333 1.33301 35.333 -1.66699 48 -9c8.66699 -5.33301 15.334 -14 20.001 -26
c3.33301 -7.33301 6 -16.666 8 -27.999c4 -17.333 7.66699 -40 11 -68c5.33301 -44.667 8.66602 -83.334 9.99902 -116.001c0 -8 -2.83301 -15.167 -8.5 -21.5s-12.5 -9.5 -20.5 -9.5s-15.167 2.83301 -21.5 8.5s-9.5 12.5 -9.5 20.5
c-1.33301 30.667 -4.33301 67.667 -9 111c-3.33301 26 -6.66602 46.667 -9.99902 62c-1.33301 6.66699 -3 12 -5 16c-2 0.666992 -5 0.666992 -9 0c-0.666992 0 -6 -0.333008 -16 -1c-8 -0.666992 -14.667 -1 -20 -1c-15.333 0.666992 -36.666 -0.833008 -63.999 -4.5
s-46.333 -5.83398 -57 -6.50098c-36 -2.66699 -76.667 -3.33398 -122 -2.00098c0 -53.333 1 -122.333 3 -207c8.66699 0.666992 23 2.33398 43 5.00098s38.333 4.83398 55 6.50098s32.667 2.5 48 2.5c0.666992 43.333 3.66699 80.666 9 111.999
c2 8.66699 6.33301 15.334 13 20.001s14.167 6.16699 22.5 4.5s14.833 -5.83398 19.5 -12.501s6.33398 -14 5.00098 -22c-5.33301 -26.667 -8.33301 -54.667 -9 -84s-0.333984 -65.166 0.999023 -107.499s2 -72.5 2 -90.5c0 -8 -3 -15 -9 -21s-13 -9 -21 -9s-15 3 -21 9
s-9 13 -9 21c0 14.667 -0.5 37.167 -1.5 67.5s-1.5 48.166 -1.5 53.499c-13.333 -0.666992 -27.666 -1.66699 -42.999 -3s-32.666 -3.33301 -51.999 -6s-35 -4.66699 -47 -6h-3c2 -117.333 3 -207.333 3 -270c0 -8 -3 -15 -9 -21s-13 -9 -21 -9s-15 3 -21 9s-9 13 -9 21
c0 62.667 -1.16699 154.167 -3.5 274.5s-3.5 208.833 -3.5 265.5l-96 7c-8.66699 0.666992 -15.667 4.16699 -21 10.5s-7.66602 13.666 -6.99902 21.999s4.16699 15.166 10.5 20.499s13.5 7.66602 21.5 6.99902z" />
    <glyph glyph-name="G" unicode="G" horiz-adv-x="776" 
d="M591 258c-7.33301 -29.333 -11.3389 -69.998 -12.0059 -121.998c-2 -66.667 -4.33301 -111 -7 -133c-1.33301 -8 -5.33301 -14.5 -12 -19.5s-14 -7 -22 -6s-14.5 4.83301 -19.5 11.5s-7.16699 14 -6.5 22c2.66699 20 4.66699 45.667 6 77
c-11.333 -16.667 -23.666 -31.667 -36.999 -45c-56 -55.333 -126.333 -76 -211 -62c-68 12 -118.333 42.333 -151 91c-27.333 41.333 -45.666 93.333 -54.999 156s-8.66602 124 2.00098 184c7.33301 43.333 19 82 35 116c16 35.333 38.833 67 68.5 95
s64.167 46.333 103.5 55c12 2.66699 24.333 4.16699 37 4.5s24.5 -0.333984 35.5 -2.00098s22.667 -4.5 35 -8.5s23.333 -8 33 -12s20.334 -9.16699 32.001 -15.5s21.167 -11.833 28.5 -16.5l28 -18c0.666992 18 1.66699 35 3 51c0.666992 8 4.16699 14.667 10.5 20
s13.666 7.66602 21.999 6.99902s15.166 -4.16699 20.499 -10.5s7.66602 -13.833 6.99902 -22.5c-2.66699 -34 -3.66699 -74.333 -3 -121l3 -126c0 -8 -3 -15 -9 -21s-13 -9 -21 -9s-15 3 -21 9s-9 13 -9 21c0 12 -0.166992 25 -0.5 39s-0.666016 29.333 -0.999023 46
s-0.833008 29.667 -1.5 39v7l-28 17l-28 18c-5.33301 3.33301 -13.833 8.33301 -25.5 15s-20.834 11.5 -27.501 14.5s-15.167 6.33301 -25.5 10s-19.5 6 -27.5 7s-16.667 1.66699 -26 2s-18.333 -0.5 -27 -2.5c-43.333 -10 -78.666 -34.5 -105.999 -73.5
s-46 -87.167 -56 -144.5c-9.33301 -55.333 -9.66602 -110 -0.999023 -164c8 -54.667 23 -98.667 45 -132c22.667 -34.667 59.667 -56.334 111 -65.001c64.667 -11.333 117.667 3.66699 159 45c38 38 63 93 75 165l2 6v3l1 18c-55.333 -1.33301 -100.666 1 -135.999 7
c-8 2 -14.5 6.33301 -19.5 13s-6.66699 14 -5 22s5.83398 14.5 12.501 19.5s14 6.83301 22 5.5c24 -4.66699 49.5 -7.16699 76.5 -7.5s58.833 0.333984 95.5 2.00098s64.334 2.5 83.001 2.5c8 0 15 -3 21 -9s9 -13 9 -21s-3 -15 -9 -21s-13 -9 -21 -9
c-14.667 0 -34 -0.333008 -58 -1c4 -7.33301 5 -15 3 -23z" />
    <glyph glyph-name="H" unicode="H" horiz-adv-x="842" 
d="M29 62c31.333 8 69.6758 12.002 115.009 12.002c6 105.333 9 281.333 9 528c-6.66699 -0.666992 -12.667 -1.33398 -18 -2.00098c-28.667 -2 -52.667 -2.66699 -72 -2c-8 0 -14.833 3.16699 -20.5 9.5s-8.5 13.5 -8.5 21.5s3.16699 14.833 9.5 20.5s13.5 8.5 21.5 8.5
c16.667 -0.666992 38.667 0 66 2c2.66699 0.666992 13 1.66699 31 3l41 3c62 3.33301 112 -2 150 -16c7.33301 -2.66699 12.666 -7.83398 15.999 -15.501s3.66602 -15.334 0.999023 -23.001s-7.83398 -13.167 -15.501 -16.5s-15.5 -3.66602 -23.5 -0.999023
c-28.667 10.667 -68 14.667 -118 12v-230c33.333 -2 85.666 -2.33301 156.999 -1c84 1.33301 143.333 1.33301 178 0v223c-3.33301 0 -10 -0.666992 -20 -2l-23 -2c-28.667 -2 -52.667 -2.66699 -72 -2c-8 0 -14.833 3.16699 -20.5 9.5s-8.5 13.5 -8.5 21.5
s3.16699 14.833 9.5 20.5s13.5 8.5 21.5 8.5c16.667 -0.666992 38.667 0 66 2c2.66699 0.666992 13 1.66699 31 3l41 3c62 3.33301 112 -2 150 -16c7.33301 -2.66699 12.666 -7.83398 15.999 -15.501s3.66602 -15.334 0.999023 -23.001s-7.83398 -13.167 -15.501 -16.5
s-15.5 -3.66602 -23.5 -0.999023c-24 9.33301 -55 13.666 -93 12.999c0 -252.667 -2.66699 -430 -8 -532c46 -2.66699 76.333 -4 91 -4c8 0 15 -3 21 -9s9 -13 9 -21s-3 -15 -9 -21s-13 -9 -21 -9c-21.333 0 -51.333 1.33301 -90 4s-72.334 3.83398 -101.001 3.50098
s-55 -3.83301 -79 -10.5c-8 -2 -15.667 -1 -23 3s-12 10 -14 18s-1 15.667 3 23s10 12 18 14c35.333 9.33301 80.333 13.333 135 12c4 72 6.33301 153 7 243c-34 1.33301 -93 1.33301 -177 0c-70 -1.33301 -122.667 -1 -158 1c-1.33301 -90.667 -4 -172 -8 -244
c66 -3.33301 103 -5 111 -5s15 -3 21 -9s9 -13 9 -21s-3 -15 -9 -21s-13 -9 -21 -9c-21.333 0 -51.333 1.33301 -90 4s-72.334 3.83398 -101.001 3.50098s-55 -3.83301 -79 -10.5c-8 -2 -15.667 -1 -23 3s-12 10 -14 18s-1 15.667 3 23s10 12 18 14z" />
    <glyph glyph-name="I" unicode="I" horiz-adv-x="472" 
d="M29 62c31.333 8 69.6709 12.001 115.004 12.001c6 105.333 9 281.333 9 528c-6.66699 -0.666992 -12.667 -1.33398 -18 -2.00098c-28.667 -2 -52.667 -2.66699 -72 -2c-8 0 -14.833 3.16699 -20.5 9.5s-8.5 13.5 -8.5 21.5s3.16699 14.833 9.5 20.5s13.5 8.5 21.5 8.5
c16.667 -0.666992 38.667 0 66 2c2.66699 0.666992 13 1.66699 31 3l41 3c62 3.33301 112 -2 150 -16c7.33301 -2.66699 12.666 -7.83398 15.999 -15.501s3.66602 -15.334 0.999023 -23.001s-7.83398 -13.167 -15.501 -16.5s-15.5 -3.66602 -23.5 -0.999023
c-28.667 10.667 -68 14.667 -118 12c0 -250.667 -3 -428.667 -9 -534c66 -3.33301 103 -5 111 -5s15 -3 21 -9s9 -13 9 -21s-3 -15 -9 -21s-13 -9 -21 -9c-21.333 0 -51.333 1.33301 -90 4s-72.334 3.83398 -101.001 3.50098s-55 -3.83301 -79 -10.5c-8 -2 -15.667 -1 -23 3
s-12 10 -14 18s-1 15.667 3 23s10 12 18 14z" />
    <glyph glyph-name="J" unicode="J" horiz-adv-x="731" 
d="M301 652c37.333 3.33301 88 4 152 2c72.667 -1.33301 121.667 -1.66602 147 -0.999023c8 0 15.167 -2.83301 21.5 -8.5s9.5 -12.5 9.5 -20.5s-2.83301 -15.167 -8.5 -21.5s-12.5 -9.5 -20.5 -9.5c-27.333 -0.666992 -64.333 -0.666992 -111 0
c6 -98.667 8.33301 -182.667 7 -252c-1.33301 -64.667 -5.33301 -117.334 -12 -158.001c-8.66699 -54 -22.334 -93.667 -41.001 -119c-30 -40 -73 -65 -129 -75c-70 -12 -133 -4.66699 -189 22c-32 15.333 -57.333 37 -76 65c-18.667 27.333 -27.334 60.666 -26.001 99.999
c1.33301 50 11 86.667 29 110c12.667 15.333 28 26.333 46 33s35.333 9.33398 52 8.00098s32.334 -5.33301 47.001 -12c26 -12.667 42 -30.667 48 -54c6 -28 -4.33301 -53.667 -31 -77c-6.66699 -5.33301 -14 -7.66602 -22 -6.99902s-14.833 4.16699 -20.5 10.5
s-8.16699 13.5 -7.5 21.5s4 15 10 21c4.66699 3.33301 7.83398 6.5 9.50098 9.5s2.5 4.83301 2.5 5.5v2c-1.33301 4.66699 -6.33301 9 -15 13c-12 6 -25 8 -39 6s-24.667 -8 -32 -18c-10 -12 -15.667 -36.667 -17 -74c-1.33301 -50 21.334 -86.333 68.001 -109
c44.667 -21.333 95.667 -26.666 153 -15.999c40 6.66699 70.333 23.667 91 51c12.667 17.333 22.667 48.333 30 93c6.66699 38.667 10.334 88.334 11.001 149.001c1.33301 68.667 -1.33398 153 -8.00098 253c-50 0.666992 -91.667 -0.333008 -125 -3
c-8 -0.666992 -15.167 1.66602 -21.5 6.99902s-9.83301 12.166 -10.5 20.499s1.66602 15.666 6.99902 21.999s12.333 9.83301 21 10.5z" />
    <glyph glyph-name="K" unicode="K" horiz-adv-x="878" 
d="M613 585c-42 -38 -106.66 -89.3311 -193.993 -153.998l-22 -16c14.667 -22 31.334 -49.333 50.001 -82l54 -92c10.667 -18 31.667 -47 63 -87c27.333 -34.667 47.333 -63.334 60 -86.001c46 0 88 -1.33301 126 -4c8 -0.666992 14.833 -4.16699 20.5 -10.5
s8.16699 -13.5 7.5 -21.5s-4.16699 -14.833 -10.5 -20.5s-13.5 -8.16699 -21.5 -7.5c-68.667 4.66699 -174.334 4.66699 -317.001 0c-8 0 -15.167 2.83301 -21.5 8.5s-9.5 12.5 -9.5 20.5s2.83301 15.167 8.5 21.5s12.5 9.5 20.5 9.5c56 2 98.333 3 127 3
c-8 12.667 -20.333 29.334 -37 50.001c-33.333 42 -56 72.667 -68 92l-54 94c-18 31.333 -33.333 56.666 -46 75.999c-47.333 -36 -87.333 -68.667 -120 -98c-5.33301 -4 -11.333 -6.33301 -18 -7c-1.33301 -73.333 -3.66602 -140.666 -6.99902 -201.999
c66 -3.33301 103 -5 111 -5s15 -3 21 -9s9 -13 9 -21s-3 -15 -9 -21s-13 -9 -21 -9c-21.333 0 -51.333 1.33301 -90 4s-72.334 3.83398 -101.001 3.50098s-55 -3.83301 -79 -10.5c-8 -2 -15.667 -1 -23 3s-12 10 -14 18s-1 15.667 3 23s10 12 18 14
c31.333 8 69.666 12 114.999 12c6 105.333 9 281.333 9 528c-6.66699 -0.666992 -12.667 -1.33398 -18 -2.00098c-28.667 -2 -52.667 -2.66699 -72 -2c-8 0 -14.833 3.16699 -20.5 9.5s-8.5 13.5 -8.5 21.5s3.16699 14.833 9.5 20.5s13.5 8.5 21.5 8.5
c16.667 -0.666992 38.667 0 66 2c2.66699 0.666992 13 1.66699 31 3l41 3c62 3.33301 112 -2 150 -16c7.33301 -2.66699 12.666 -7.83398 15.999 -15.501s3.66602 -15.334 0.999023 -23.001s-7.83398 -13.167 -15.501 -16.5s-15.5 -3.66602 -23.5 -0.999023
c-28.667 10.667 -68 14.667 -118 12v-259c36 30.667 92.667 74.667 170 132c65.333 48 112.666 84.667 141.999 110c-36.667 1.33301 -71.334 4.33301 -104.001 9c-8.66699 1.33301 -15.334 5.33301 -20.001 12s-6.5 14.167 -5.5 22.5s4.83301 14.833 11.5 19.5
s14 6.66699 22 6c64 -9.33301 159 -12 285 -8c8 0 15.167 -2.83301 21.5 -8.5s9.5 -12.5 9.5 -20.5s-2.83301 -15.167 -8.5 -21.5s-12.5 -9.5 -20.5 -9.5l-100 -3c-1.33301 -0.666992 -2.33301 -1.33398 -3 -2.00098z" />
    <glyph glyph-name="L" unicode="L" horiz-adv-x="686" 
d="M331 594c-28.667 10.667 -68 14.6709 -118 12.0039c0 -249.333 -3 -426.666 -9 -531.999c41.333 1.33301 100.833 0.666016 178.5 -2.00098s121.834 -4.33398 132.501 -5.00098c-1.33301 21.333 -2 46.666 -2 75.999v33c0 9.33301 -0.166992 20 -0.5 32s-0.5 23 -0.5 33
c0 8.66699 2.83301 16 8.5 22s12.667 9 21 9s15.5 -2.83301 21.5 -8.5s9 -12.5 9 -20.5l1 -100c0.666992 -37.333 1.66699 -65.333 3 -84c6.66699 -6 10 -13.333 10 -22c0 -8 -3 -15 -9 -21s-13 -9 -21 -9c-35.333 0 -87.666 1.5 -156.999 4.5
s-130.666 4.16699 -183.999 3.5s-103.666 -4.66699 -150.999 -12c-8 -1.33301 -15.333 0.5 -22 5.5s-10.667 11.667 -12 20s0.5 15.833 5.5 22.5s11.833 10.667 20.5 12c27.333 4 56.666 7 87.999 9c6 105.333 9 282 9 530
c-6.66699 -0.666992 -12.667 -1.33398 -18 -2.00098c-28.667 -2 -52.667 -2.66699 -72 -2c-8 0 -14.833 3.16699 -20.5 9.5s-8.5 13.5 -8.5 21.5s3.16699 14.833 9.5 20.5s13.5 8.5 21.5 8.5c16.667 -0.666992 38.667 0 66 2c2.66699 0.666992 13 1.66699 31 3l41 3
c62 3.33301 112 -2 150 -16c7.33301 -2.66699 12.666 -7.83398 15.999 -15.501s3.66602 -15.334 0.999023 -23.001s-7.83398 -13.167 -15.501 -16.5s-15.5 -3.66602 -23.5 -0.999023z" />
    <glyph glyph-name="M" unicode="M" horiz-adv-x="1019" 
d="M43 658c2.66699 0 41.3389 -0.671875 116.006 -2.00488h19h5c2 0 4 -0.333008 6 -1c16 0 29.167 -0.166992 39.5 -0.5s18.5 -0.833008 24.5 -1.5c3.33301 0 6.33301 -0.333008 9 -1h5c4.66699 -1.33301 9 -3.33301 13 -6c4 -4 7.66699 -9 11 -15l5 -12
c3.33301 -8 7 -19 11 -33c8 -22.667 17.333 -53.334 28 -92.001c19.333 -66 33.666 -117.667 42.999 -155c10 -40.667 29.333 -101.334 58 -182.001l21 -57c6 15.333 13 35 21 59c12.667 38.667 28.667 91 48 157c6 21.333 20 63 42 125
c17.333 50.667 29.666 91.334 36.999 122.001l1 5c0.666992 4 1.5 8.16699 2.5 12.5s2.16699 8.5 3.5 12.5l5 20c1.33301 3.33301 2.33301 6.33301 3 9c2 4.66699 4.33301 8.66699 7 12c9.33301 11.333 23.666 19.333 42.999 24c22 5.33301 55.333 7.66602 100 6.99902
c60.667 -1.33301 92 -2 94 -2c8 0 15.167 -2.83301 21.5 -8.5s9.5 -12.5 9.5 -20.5s-2.83301 -15.167 -8.5 -21.5s-12.5 -9.5 -20.5 -9.5c-6 0 -37 0.666992 -93 2c0 -254 -2.66699 -432 -8 -534l42 -3c17.333 -0.666992 32.666 -1.33398 45.999 -2.00098s25.333 -1 36 -1
c8 0 15 -3 21 -9s9 -13 9 -21s-3 -15 -9 -21s-13 -9 -21 -9c-21.333 0 -51.333 1.33301 -90 4s-72.334 3.83398 -101.001 3.50098s-55 -3.83301 -79 -10.5c-8 -2 -15.667 -1 -23 3s-12 10 -14 18s-1 15.667 3 23s10 12 18 14c29.333 7.33301 63.333 11.333 102 12
c5.33301 101.333 8 278.666 8 531.999c-11.333 -0.666992 -21 -2 -29 -4l-9 -3v-1l-5 -17c-0.666992 -4 -1.5 -8.16699 -2.5 -12.5s-2.16699 -8.5 -3.5 -12.5l-1 -5c-7.33301 -32.667 -20.333 -75 -39 -127c-20.667 -61.333 -34 -102 -40 -122
c-18.667 -65.333 -35 -118.666 -49 -159.999c-12.667 -37.333 -23 -65.666 -31 -84.999c-6 -12.667 -11.333 -22.667 -16 -30c-3.33301 -5.33301 -6.66602 -9.66602 -9.99902 -12.999c-8 -7.33301 -17 -10.666 -27 -9.99902c-7.33301 0.666992 -14 3.66699 -20 9
c-1.33301 1.33301 -2.33301 3 -3 5c-1.33301 1.33301 -2.33301 3 -3 5c-1.33301 2 -2.66602 4.66699 -3.99902 8c-2.66699 6.66699 -6.33398 15.334 -11.001 26.001l-30 82c-29.333 82.667 -49.333 145.334 -60 188.001c-8 32 -22 82.667 -42 152l-28 91
c-3.33301 10.667 -6.33301 19.334 -9 26.001h-14c-4 0.666992 -8.66699 1 -14 1c0 -242 -3 -416.333 -9 -523c66 -3.33301 103 -5 111 -5s15 -3 21 -9s9 -13 9 -21s-3 -15 -9 -21s-13 -9 -21 -9c-21.333 0 -51.333 1.33301 -90 4s-72.334 3.83398 -101.001 3.50098
s-55 -3.83301 -79 -10.5c-8 -2 -15.667 -1 -23 3s-12 10 -14 18s-1 15.667 3 23s10 12 18 14c31.333 8 69.666 12 114.999 12c6 106 9 280 9 522c-71.333 1.33301 -109.333 2 -114 2c-8 0.666992 -14.833 4.16699 -20.5 10.5s-8.16699 13.5 -7.5 21.5
s4.16699 14.833 10.5 20.5s13.5 8.16699 21.5 7.5z" />
    <glyph glyph-name="N" unicode="N" horiz-adv-x="849" 
d="M34 652c4 0 18.335 0.330078 43.002 0.99707c8.66699 0 22.834 0.333008 42.501 1s31.167 1 34.5 1c10 0.666992 19 1 27 1h2c18.667 0.666992 33.334 1 44.001 1h26h9c2 -0.666992 3.66699 -1 5 -1c6.66699 -0.666992 12.334 -4 17.001 -10
c10 -11.333 15.667 -28 17 -50c0.666992 -12 1.33398 -18.667 2.00098 -20l43 -74l52 -89l41 -75c7.33301 -14 23.5 -48.667 48.5 -104s46.833 -96.666 65.5 -123.999c0.666992 8.66699 1.16699 17.5 1.5 26.5s0.666016 17 0.999023 24s0.5 11.167 0.5 12.5
c10.667 180.667 14.334 325 11.001 433c-6 -0.666992 -15.167 -1.5 -27.5 -2.5s-21.5 -1.83301 -27.5 -2.5c-28.667 -2 -52.667 -2.66699 -72 -2c-8 0 -14.833 3.16699 -20.5 9.5s-8.5 13.5 -8.5 21.5s3.16699 14.833 9.5 20.5s13.5 8.5 21.5 8.5
c16.667 -0.666992 38.667 0 66 2c2.66699 0.666992 13 1.66699 31 3l41 3c62 3.33301 112 -2 150 -16c7.33301 -2.66699 12.666 -7.83398 15.999 -15.501s3.66602 -15.334 0.999023 -23.001s-7.83398 -13.167 -15.501 -16.5s-15.5 -3.66602 -23.5 -0.999023
c-22 8 -49 12.333 -81 13c3.33301 -110 -0.333984 -256.333 -11.001 -439c0 -0.666992 -0.166992 -5.16699 -0.5 -13.5s-0.833008 -17.5 -1.5 -27.5l-2 -29c-1.33301 -18 -3 -32.667 -5 -44c-1.33301 -7.33301 -3 -13.333 -5 -18c-1.33301 -4 -3 -7.33301 -5 -10
c-4.66699 -7.33301 -10.667 -12.333 -18 -15c-19.333 -5.33301 -34.666 1.66699 -45.999 21l-5 10l-1 2c-20.667 24.667 -39 51.834 -55 81.501s-32.333 63.5 -49 101.5s-29.334 65.333 -38.001 82c-12 24 -25.333 48.667 -40 74l-51 89l-43 73
c-6 10 -9.33301 25.667 -10 47v4h-13h-15c0 -243.333 -3 -418.333 -9 -525c66 -3.33301 103 -5 111 -5s15 -3 21 -9s9 -13 9 -21s-3 -15 -9 -21s-13 -9 -21 -9c-21.333 0 -51.333 1.33301 -90 4s-72.334 3.83398 -101.001 3.50098s-55 -3.83301 -79 -10.5
c-8 -2 -15.667 -1 -23 3s-12 10 -14 18s-1 15.667 3 23s10 12 18 14c31.333 8 69.666 12 114.999 12c6 106 9 279.667 9 521c-6 0 -14.333 -0.166992 -25 -0.5s-20 -0.666016 -28 -0.999023s-15.333 -0.5 -22 -0.5c-26 -0.666992 -42 -1 -48 -1
c-8 0.666992 -14.833 4 -20.5 10s-8.16699 13.167 -7.5 21.5s4 15.333 10 21s13.333 8.16699 22 7.5z" />
    <glyph glyph-name="O" unicode="O" 
d="M543 528c4.66699 -4 7.66602 -9.00098 8.99902 -15.001c46 -196.667 27.667 -347.667 -55 -453c-18 -22 -37.333 -37.833 -58 -47.5s-45.667 -16.834 -75 -21.501c-69.333 -10 -130.5 6 -183.5 48s-88.5 97 -106.5 165c-14.667 55.333 -14.667 126 0 212
c16 94 43.333 159.667 82 197c28 28 62 47 102 57c39.333 10.667 78.333 12.334 117 5.00098c40 -7.33301 75.333 -23.666 106 -48.999s51.334 -58 62.001 -98zM485.999 510.999c-7.33301 28 -21.8311 50.998 -43.498 68.998s-47.834 30 -78.501 36c-30 6 -60 5 -90 -3
s-55.333 -22 -76 -42c-29.333 -28.667 -51 -83.667 -65 -165c-12.667 -77.333 -13 -139.333 -1 -186c14.667 -56 42.667 -100.167 84 -132.5s88 -44.5 140 -36.5c23.333 3.33301 41.833 8.33301 55.5 15s26.167 17.334 37.5 32.001
c71.333 88.667 86.666 221.334 45.999 398.001c-4.66699 4 -7.66699 9 -9 15z" />
    <glyph glyph-name="P" unicode="P" horiz-adv-x="698" 
d="M212 345c11.333 0 33.168 -0.667969 65.501 -2.00098s57.5 -1.66602 75.5 -0.999023c54 0.666992 96 9 126 25c24 13.333 41.167 34 51.5 62s11.666 56.5 3.99902 85.5s-23.5 51.5 -47.5 67.5c-26 18 -66.333 27 -121 27c-18 0 -42.333 -1.33301 -73 -4
c-46 -4 -69.333 -6 -70 -6h-10c0 -126 -0.333008 -210.667 -1 -254zM24.002 649.999c27.333 8.66699 61.666 12.334 102.999 11.001c6 0 14.333 -0.333008 25 -1s18.334 -1 23.001 -1c17.333 -0.666992 32 -0.666992 44 0l68 6c31.333 2.66699 57.666 4 78.999 4
c66.667 0 118.334 -12.333 155.001 -37c35.333 -24 59 -57.333 71 -100s10 -84.667 -6 -126c-15.333 -40.667 -41.666 -71 -78.999 -91c-38 -20.667 -89 -31.667 -153 -33c-18 -0.666992 -43.5 -0.333984 -76.5 0.999023s-54.833 2 -65.5 2c-1.33301 -78 -4 -149 -8 -213
c66 -3.33301 103 -5 111 -5s15 -3 21 -9s9 -13 9 -21s-3 -15 -9 -21s-13 -9 -21 -9c-21.333 0 -51.333 1.33301 -90 4s-72.334 3.83398 -101.001 3.50098s-55 -3.83301 -79 -10.5c-8 -2 -15.667 -1 -23 3s-12 10 -14 18s-1 15.667 3 23s10 12 18 14
c31.333 8 69.666 12 114.999 12c6 105.333 9 280.666 9 525.999c-12.667 0.666992 -22 1 -28 1c-34.667 1.33301 -62.334 -1.66699 -83.001 -9c-8 -2 -15.667 -1.16699 -23 2.5s-12.166 9.5 -14.499 17.5s-1.66602 15.667 2.00098 23s9.5 12.333 17.5 15z" />
    <glyph glyph-name="Q" unicode="Q" horiz-adv-x="718" 
d="M396 60c4.66699 34.667 6 62 4 82c-3.33301 24 -12.333 41 -27 51c-8.66699 6 -24.334 10 -47.001 12c-42.667 3.33301 -69 -5.66699 -79 -27c-10.667 -23.333 -4 -53.333 20 -90c6.66699 -9.33301 7.33398 -19 2.00098 -29c28 -10 57 -12.667 87 -8c16 2 29.333 5 40 9z
M386 -5c-6.66699 -1.33301 -14.001 -2.66992 -22.001 -4.00293c-69.333 -10 -130.5 6 -183.5 48s-88.5 97 -106.5 165c-14.667 55.333 -14.667 126 0 212c16 94 43.333 159.667 82 197c28 28 62 47 102 57c39.333 10.667 78.333 12.334 117 5.00098
c40 -7.33301 75.333 -23.666 106 -48.999s51.334 -58 62.001 -98c4.66699 -4 7.66699 -9 9 -15c46 -196.667 27.667 -347.667 -55 -453c-14 -17.333 -29.667 -31 -47 -41c-6 -38 -9.33301 -64.667 -10 -80c-2.66699 -31.333 0 -54.666 8 -69.999c10 -18 26.333 -25 49 -21
c11.333 2 21.833 6.33301 31.5 13s16.834 14.667 21.501 24c2.66699 5.33301 5.33398 23 8.00098 53c0.666992 8 4.16699 14.667 10.5 20s13.666 7.66602 21.999 6.99902s15.166 -4.16699 20.499 -10.5s7.66602 -13.833 6.99902 -22.5
c-3.33301 -37.333 -8 -61.666 -14 -72.999c-9.33301 -18.667 -22.833 -34.167 -40.5 -46.5s-36.5 -20.166 -56.5 -23.499c-22 -4 -43.167 -1.66699 -63.5 7s-36.166 23.667 -47.499 45c-14 24.667 -19.333 58.667 -16 102c0.666992 13.333 2.66699 30.666 6 51.999z
M485.999 510.996c-7.33301 28 -21.8301 50.998 -43.4971 68.998s-47.834 30 -78.501 36c-30 6 -60 5 -90 -3s-55.333 -22 -76 -42c-29.333 -28.667 -51 -83.667 -65 -165c-12.667 -77.333 -13 -139.333 -1 -186c11.333 -42.667 30.666 -79 57.999 -109
c-10.667 34.667 -9.66699 65.334 3 92.001c10.667 22.667 28 39.334 52 50.001s52.333 14.667 85 12c34 -2.66699 59.667 -10 77 -22c29.333 -20.667 46.666 -52 51.999 -94c1.33301 -11.333 2 -23.333 2 -36c60.667 88 72 215.667 34 383c-4.66699 4 -7.66699 9 -9 15z" />
    <glyph glyph-name="R" unicode="R" horiz-adv-x="801" 
d="M213 371c24 -1.33301 58.667 -1.33398 104 -0.000976562s83.666 5.33301 114.999 12c37.333 8 65 20.333 83 37c19.333 18 28 42 26 72c-0.666992 14.667 -3 29.334 -7 44.001c-4.66699 15.333 -9.33398 26 -14.001 32c-2 2 -8.33301 4.66699 -19 8
c-12.667 4 -30 7.66699 -52 11c-39.333 6 -89.666 10.333 -150.999 13c-27.333 0.666992 -55.666 1 -84.999 1v-230zM32 653.999c20 3.33301 55.498 5.49902 106.498 6.49902s104.833 0.833008 161.5 -0.5c64 -2.66699 116.667 -7.33398 158 -14.001
c24.667 -3.33301 45 -7.66602 61 -12.999c21.333 -6.66699 36.333 -15 45 -25c12 -12.667 21.333 -31.667 28 -57c4.66699 -18.667 7.66699 -37 9 -55c3.33301 -49.333 -11.667 -89.333 -45 -120c-17.333 -15.333 -39 -28 -65 -38c40.667 -38.667 58.334 -90 53.001 -154
c0 -4.66699 -1.33301 -17.334 -4 -38.001c-1.33301 -14 -2 -25 -2 -33c0 -20 4 -35.667 12 -47c5.33301 -7.33301 9.66602 -11.666 12.999 -12.999c2 -1.33301 10 -3.66602 24 -6.99902c15.333 -3.33301 26.333 -2 33 4c7.33301 6 12.666 17.333 15.999 34
c2 8.66699 3.5 18.667 4.5 30s1.5 21.166 1.5 29.499s-0.166992 19.166 -0.5 32.499s-0.5 22.666 -0.5 27.999c0 8 3 15 9 21s13 9 21 9s15 -3 21 -9s9 -13 9 -21c0 -3.33301 0.166992 -12 0.5 -26s0.5 -25.667 0.5 -35s-0.666992 -21 -2 -35s-3 -26.333 -5 -37
c-6.66699 -30 -18.667 -52.333 -36 -67c-22 -18.667 -50 -24 -84 -16c-19.333 4 -32.333 7.66699 -39 11c-12 6 -23.333 16.333 -34 31c-16.667 22.667 -24.667 50.667 -24 84c0 10 1 23 3 39c2 20 3.33301 32 4 36c2 26 -0.666992 48.5 -8 67.5
s-23.666 37.167 -48.999 54.5c-3.33301 2.66699 -6 5.66699 -8 9c-17.333 -3.33301 -37.166 -5.66602 -59.499 -6.99902s-39.666 -2.16602 -51.999 -2.49902s-31.166 -0.333008 -56.499 0s-38.666 0.5 -39.999 0.5c-1.33301 -88.667 -4 -168.334 -8 -239.001
c66 -3.33301 103 -5 111 -5s15 -3 21 -9s9 -13 9 -21s-3 -15 -9 -21s-13 -9 -21 -9c-21.333 0 -51.333 1.33301 -90 4s-72.334 3.83398 -101.001 3.50098s-55 -3.83301 -79 -10.5c-8 -2 -15.667 -1 -23 3s-12 10 -14 18s-1 15.667 3 23s10 12 18 14
c31.333 8 69.666 12 114.999 12c6 105.333 9 281 9 527c-54 -1.33301 -91 -3.66602 -111 -6.99902c-8 -1.33301 -15.5 0.5 -22.5 5.5s-11.167 11.5 -12.5 19.5s0.5 15.5 5.5 22.5s11.5 11.167 19.5 12.5z" />
    <glyph glyph-name="S" unicode="S" horiz-adv-x="635" 
d="M448 542l-20.0039 27.0039l-19 25c-13.333 16.667 -25.666 28 -36.999 34c-23.333 11.333 -48.833 15 -76.5 11s-53.834 -14.5 -78.501 -31.5s-43.167 -37.667 -55.5 -62s-16.5 -48.833 -12.5 -73.5c3.33301 -22 22 -43.667 56 -65c28 -17.333 60.667 -31.666 98 -42.999
c13.333 -4 37.666 -9.33301 72.999 -16c30.667 -6.66699 53.667 -13.334 69 -20.001c52 -22.667 82 -70 90 -142c4 -36.667 -2.66699 -69.834 -20 -99.501s-41.333 -53.834 -72 -72.501c-28.667 -17.333 -60 -29 -94 -35s-67 -5 -99 3
c-44.667 10.667 -86.334 36.334 -125.001 77.001c0.666992 -16 1.66699 -31.333 3 -46c0.666992 -8.66699 -1.66602 -16.167 -6.99902 -22.5s-12.166 -9.83301 -20.499 -10.5s-15.666 1.66602 -21.999 6.99902s-9.83301 12 -10.5 20
c-3.33301 37.333 -4.66602 81 -3.99902 131c0 12.667 0.166992 33.334 0.5 62.001s0.5 50.667 0.5 66c0 8 3 15 9 21s13 9 21 9s15 -3 21 -9s9 -13 9 -21c0 -14.667 -0.166992 -35.667 -0.5 -63s-0.5 -44 -0.5 -50c3.33301 -2.66699 6.33301 -6 9 -10
c16 -24 35.667 -45.667 59 -65c24 -19.333 48 -32 72 -38c23.333 -6 48.333 -6.66699 75 -2s51 13.667 73 27c47.333 29.333 68.333 67.666 63 114.999c-2.66699 28.667 -8.5 49.667 -17.5 63s-21.167 23.333 -36.5 30c-11.333 5.33301 -30.333 10.666 -57 15.999
c-36.667 7.33301 -62.334 13 -77.001 17c-43.333 12.667 -81.333 29.334 -114 50.001c-49.333 31.333 -77.333 66.666 -84 105.999c-6 38.667 0 75.167 18 109.5s43.333 62.833 76 85.5c32 22 66.5 35.667 103.5 41s74.167 0 111.5 -16c18 -8.66699 35.333 -23 52 -43v18
c0 8 3 15 9 21s13 9 21 9s15 -3 21 -9s9 -13 9 -21c0 -15.333 -0.166992 -37.5 -0.5 -66.5s-0.5 -49.5 -0.5 -61.5c-0.666992 -49.333 0.666016 -91 3.99902 -125c0.666992 -8.66699 -1.66602 -16.167 -6.99902 -22.5s-12.166 -9.83301 -20.499 -10.5
s-15.666 1.66602 -21.999 6.99902s-9.83301 12 -10.5 20c-3.33301 37.333 -4.66602 81 -3.99902 131v12z" />
    <glyph glyph-name="T" unicode="T" horiz-adv-x="684" 
d="M581 611c0 -21.333 0.5 -52.998 1.5 -94.998s1.5 -73.667 1.5 -95c0 -8 -3 -15 -9 -21s-13 -9 -21 -9s-15 3 -21 9s-9 13 -9 21c0 20.667 -0.5 50.5 -1.5 89.5s-1.5 66.833 -1.5 83.5c-50 9.33301 -110 13 -180 11c0 -252.667 -3 -431.667 -9 -537l121 -6
c8 0 15 -3 21 -9s9 -13 9 -21s-3 -15 -9 -21s-13 -9 -21 -9c-21.333 0 -51.333 1.33301 -90 4s-72.334 3.83398 -101.001 3.50098s-55 -3.83301 -79 -10.5c-8 -2 -15.667 -1 -23 3s-12 10 -14 18s-1 15.667 3 23s10 12 18 14c29.333 8 64.333 12 105 12
c6 105.333 9 283.333 9 534c-110 -5.33301 -177.667 -8 -203 -8c6 -80 9 -133.667 9 -161c0 -8 -3 -15 -9 -21s-13 -9 -21 -9s-15 3 -21 9s-9 13 -9 21c0 19.333 -0.5 39.166 -1.5 59.499s-2.66699 43.833 -5 70.5s-3.83301 46.334 -4.5 59.001
c-0.666992 8.66699 1.83301 16 7.5 22s12.5 9.33301 20.5 10c2.66699 0 5.33398 -0.333008 8.00098 -1c2 0.666992 4.33301 1 7 1c33.333 -0.666992 83.833 1 151.5 5s130.334 5.66699 188.001 5s110.167 -6.33398 157.5 -17.001
c7.33301 -1.33301 13.166 -4.83301 17.499 -10.5s6.5 -11.834 6.5 -18.501c0.666992 -2.66699 1 -5.33398 1 -8.00098z" />
    <glyph glyph-name="U" unicode="U" horiz-adv-x="789" 
d="M296 588c-27.333 10.667 -64.6582 15.0029 -111.991 13.0029v-2c0 -100 -0.333008 -156 -1 -168c-0.666992 -14.667 -3.33398 -43.334 -8.00098 -86.001c-4.66699 -36.667 -7.33398 -67 -8.00098 -91c-2.66699 -69.333 6 -121 26 -155
c12 -20.667 30.667 -36.167 56 -46.5s54 -14.833 86 -13.5c31.333 2 60.5 9.16699 87.5 21.5s47.5 27.833 61.5 46.5c8.66699 13.333 15.667 41.333 21 84c4.66699 36 7.33398 84.333 8.00098 145c0.666992 42.667 0.333984 95 -0.999023 157c-2 64.667 -3 98.667 -3 102
c-6.66699 -0.666992 -16.334 -1.5 -29.001 -2.5s-22 -1.83301 -28 -2.5c-28.667 -2 -52.667 -2.66699 -72 -2c-8 0 -14.833 3.16699 -20.5 9.5s-8.5 13.5 -8.5 21.5s3.16699 14.833 9.5 20.5s13.5 8.5 21.5 8.5c16.667 -0.666992 38.667 0 66 2
c2.66699 0.666992 13 1.66699 31 3l41 3c62 3.33301 112 -2 150 -16c7.33301 -2.66699 12.666 -7.83398 15.999 -15.501s3.66602 -15.334 0.999023 -23.001s-7.83398 -13.167 -15.501 -16.5s-15.5 -3.66602 -23.5 -0.999023c-21.333 8 -47.666 12.333 -78.999 13
c0 -4.66699 1 -39.334 3 -104.001c1.33301 -62 1.66602 -114.333 0.999023 -157c-0.666992 -64 -3.33398 -115 -8.00098 -153c-6.66699 -52.667 -17.667 -89.334 -33 -110.001c-19.333 -28 -46.833 -50.167 -82.5 -66.5s-72.834 -25.5 -111.501 -27.5
c-40.667 -2 -78.834 4.33301 -114.501 19s-63.167 38.334 -82.5 71.001c-26 44.667 -37.333 107.334 -34 188.001c1.33301 23.333 4 55 8 95c4.66699 40.667 7.33398 68.334 8.00098 83.001c0.666992 13.333 1 67 1 161c-10 -0.666992 -18 -1.33398 -24 -2.00098
c-28.667 -2 -52.667 -2.66699 -72 -2c-8 0 -14.833 3.16699 -20.5 9.5s-8.5 13.5 -8.5 21.5s3.16699 14.833 9.5 20.5s13.5 8.5 21.5 8.5c16.667 -0.666992 38.667 0 66 2c2.66699 0.666992 13 1.66699 31 3l41 3c62 3.33301 112 -2 150 -16
c7.33301 -2.66699 12.666 -7.83398 15.999 -15.501s3.66602 -15.334 0.999023 -23.001s-7.83398 -13.167 -15.501 -16.5s-15.5 -3.66602 -23.5 -0.999023z" />
    <glyph glyph-name="V" unicode="V" horiz-adv-x="818" 
d="M306 588c-26 10 -60.3262 14.335 -102.993 13.002c6.66699 -26 17.667 -60 33 -102l43 -119l27 -100c10.667 -40 20.667 -71.667 30 -95c2.66699 -8 7.83398 -20.833 15.501 -38.5s13.5 -31.5 17.5 -41.5c2.66699 4 5.33398 8.66699 8.00098 14l35 76
c22 50.667 45.333 118 70 202c35.333 120 55.666 187.667 60.999 203c-8 0 -19 -0.666992 -33 -2s-23.667 -2.33301 -29 -3c-28.667 -2 -52.667 -2.66699 -72 -2c-8 0 -14.833 3.16699 -20.5 9.5s-8.5 13.5 -8.5 21.5s3.16699 14.833 9.5 20.5s13.5 8.5 21.5 8.5
c16.667 -0.666992 38.667 0 66 2c2.66699 0.666992 13 1.66699 31 3l41 3c62 3.33301 112 -2 150 -16c7.33301 -2.66699 12.666 -7.83398 15.999 -15.501s3.66602 -15.334 0.999023 -23.001s-7.83398 -13.167 -15.501 -16.5s-15.5 -3.66602 -23.5 -0.999023
c-20 8 -44.333 12.333 -73 13c0.666992 -4.66699 0 -9.33398 -2 -14.001c-8 -24.667 -28.667 -93.667 -62 -207c-26 -89.333 -50.667 -159.333 -74 -210c-20 -45.333 -32 -72 -36 -80c-10.667 -20 -20.667 -35 -30 -45c-20.667 -22 -41.334 -27.333 -62.001 -16
c-12 6.66699 -19 18.334 -21 35.001c-0.666992 5.33301 -1 8.66602 -1 9.99902c-4 12 -10.333 28 -19 48s-14.334 33.333 -17.001 40c-10 26.667 -20.667 60.334 -32 101.001c-14.667 56 -23.667 88.667 -27 98c-6 19.333 -19.667 58.333 -41 117
c-19.333 52.667 -32 92 -38 118c-16 -1.33301 -26.667 -2.33301 -32 -3c-28.667 -2 -52.667 -2.66699 -72 -2c-8 0 -14.833 3.16699 -20.5 9.5s-8.5 13.5 -8.5 21.5s3.16699 14.833 9.5 20.5s13.5 8.5 21.5 8.5c16.667 -0.666992 38.667 0 66 2
c2.66699 0.666992 13 1.66699 31 3l41 3c62 3.33301 112 -2 150 -16c7.33301 -2.66699 12.666 -7.83398 15.999 -15.501s3.66602 -15.334 0.999023 -23.001s-7.83398 -13.167 -15.501 -16.5s-15.5 -3.66602 -23.5 -0.999023z" />
    <glyph glyph-name="W" unicode="W" horiz-adv-x="1023" 
d="M161 596c4.66699 -29.333 13.6719 -67.9961 27.0049 -115.996c16.667 -60 27 -99.667 31 -119l20 -100c8 -38.667 15.667 -70.667 23 -96c0.666992 -1.33301 1.33398 -3.66602 2.00098 -6.99902l2 -10c1.33301 -4.66699 2.33301 -8.66699 3 -12l8 -28
c12.667 33.333 21 55.666 25 66.999c14.667 45.333 31.667 113.333 51 204c22 103.333 38 173.333 48 210c2 7.33301 6.5 13.166 13.5 17.499s14.167 5.5 21.5 3.5c4.66699 6 10.667 9.66699 18 11c8 1.33301 15.5 -0.5 22.5 -5.5s11.167 -11.5 12.5 -19.5
c5.33301 -31.333 14.333 -70 27 -116c16.667 -60 27 -99.667 31 -119l20 -100c8 -38.667 15.667 -70.667 23 -96c0.666992 -1.33301 1.33398 -3.66602 2.00098 -6.99902l2 -10c1.33301 -4.66699 2.33301 -8.66699 3 -12l8 -28c12.667 33.333 21 55.666 25 66.999
c14.667 45.333 31.667 113.333 51 204c22 103.333 38 173.333 48 210c1.33301 4 3 7.33301 5 10c-4.66699 0 -12.334 -0.5 -23.001 -1.5s-19 -1.83301 -25 -2.5c-28.667 -2 -52.667 -2.66699 -72 -2c-8 0 -14.833 3.16699 -20.5 9.5s-8.5 13.5 -8.5 21.5
s3.16699 14.833 9.5 20.5s13.5 8.5 21.5 8.5c16.667 -0.666992 38.667 0 66 2c2.66699 0.666992 13 1.66699 31 3l41 3c62 3.33301 112 -2 150 -16c7.33301 -2.66699 12.666 -7.83398 15.999 -15.501s3.66602 -15.334 0.999023 -23.001s-7.83398 -13.167 -15.501 -16.5
s-15.5 -3.66602 -23.5 -0.999023c-26 10 -60.333 14.333 -103 13c8 -8 10.667 -17.667 8 -29c-9.33301 -33.333 -25 -102 -47 -206c-18.667 -88.667 -36.667 -158.667 -54 -210c-3.33301 -12 -9.16602 -29 -17.499 -51s-13.5 -35.333 -15.5 -40v-1
c0 -0.666992 -0.333008 -4 -1 -10c-2.66699 -21.333 -13 -33.666 -31 -36.999c-19.333 -4.66699 -36 2.66602 -50 21.999c-7.33301 10 -14 23.667 -20 41c-4 10.667 -8 24 -12 40c-0.666992 3.33301 -1.66699 7 -3 11l-2 10c-0.666992 2.66699 -1.33398 5 -2.00098 7
c-7.33301 26.667 -15 60 -23 100c-12 60 -18.667 92.667 -20 98c-4.66699 18.667 -15 57.667 -31 117c-6 20 -10.667 37.333 -14 52l-32 -149c-18.667 -89.333 -36.667 -159.333 -54 -210c-3.33301 -12 -9.16602 -29 -17.499 -51s-13.5 -35.333 -15.5 -40v-1
c0 -0.666992 -0.333008 -4 -1 -10c-2.66699 -21.333 -13 -33.666 -31 -36.999c-19.333 -4.66699 -36 2.66602 -50 21.999c-7.33301 10 -14 23.667 -20 41c-4 10.667 -8 24 -12 40c-0.666992 3.33301 -1.66699 7 -3 11l-2 10c-0.666992 2.66699 -1.33398 5 -2.00098 7
c-7.33301 26.667 -15 60 -23 100c-12 60 -18.667 92.667 -20 98c-4.66699 18.667 -15 57.667 -31 117c-14.667 55.333 -24.334 96 -29.001 122v7l-11 -1c-28.667 -2 -52.667 -2.66699 -72 -2c-8 0 -14.833 3.16699 -20.5 9.5s-8.5 13.5 -8.5 21.5s3.16699 14.833 9.5 20.5
s13.5 8.5 21.5 8.5c16.667 -0.666992 38.667 0 66 2c2.66699 0.666992 13 1.66699 31 3l41 3c62 3.33301 112 -2 150 -16c7.33301 -2.66699 12.666 -7.83398 15.999 -15.501s3.66602 -15.334 0.999023 -23.001s-7.83398 -13.167 -15.501 -16.5
s-15.5 -3.66602 -23.5 -0.999023c-29.333 11.333 -70.666 15.333 -123.999 12h-2c0 -0.666992 0.333008 -1.33398 1 -2.00098z" />
    <glyph glyph-name="X" unicode="X" horiz-adv-x="862" 
d="M331 594c-26 10 -60.6582 14.332 -103.991 12.999l162 -207l136 185c-6.66699 -0.666992 -12.667 -1.33398 -18 -2.00098c-28.667 -2 -52.667 -2.66699 -72 -2c-8 0 -14.833 3.16699 -20.5 9.5s-8.5 13.5 -8.5 21.5s3.16699 14.833 9.5 20.5s13.5 8.5 21.5 8.5
c16.667 -0.666992 38.667 0 66 2c2.66699 0.666992 13 1.66699 31 3l41 3c62 3.33301 112 -2 150 -16c7.33301 -2.66699 12.666 -7.83398 15.999 -15.501s3.66602 -15.334 0.999023 -23.001s-7.83398 -13.167 -15.501 -16.5s-15.5 -3.66602 -23.5 -0.999023
c-25.333 10 -59 14.333 -101 13l-2 -4l-173 -235l205 -261c5.33301 -7.33301 7 -15.666 5 -24.999c49.333 -2.66699 81 -4 95 -4c8 0 15 -3 21 -9s9 -13 9 -21s-3 -15 -9 -21s-13 -9 -21 -9c-21.333 0 -51.333 1.33301 -90 4s-72.334 3.83398 -101.001 3.50098
s-55 -3.83301 -79 -10.5c-8 -2 -15.667 -1 -23 3s-12 10 -14 18s-1 15.667 3 23s10 12 18 14c34 8.66699 76.333 12.667 127 12l-184 234c-64.667 -82 -128.334 -158.333 -191.001 -229c74 -4 113 -6 117 -6c8 0 15 -3 21 -9s9 -13 9 -21s-3 -15 -9 -21s-13 -9 -21 -9
c-21.333 0 -51.333 1.33301 -90 4s-72.334 3.83398 -101.001 3.50098s-55 -3.83301 -79 -10.5c-8 -2 -15.667 -1 -23 3s-12 10 -14 18s-1 15.667 3 23s10 12 18 14c30 8 66.333 12 109 12c-3.33301 10.667 -1 20.334 7 29.001c67.333 76 136 158.667 206 248l-183 234
c-4 5.33301 -6.33301 11.333 -7 18l-26 -3c-28.667 -2 -52.667 -2.66699 -72 -2c-8 0 -14.833 3.16699 -20.5 9.5s-8.5 13.5 -8.5 21.5s3.16699 14.833 9.5 20.5s13.5 8.5 21.5 8.5c16.667 -0.666992 38.667 0 66 2c2.66699 0.666992 13 1.66699 31 3l41 3
c62 3.33301 112 -2 150 -16c7.33301 -2.66699 12.666 -7.83398 15.999 -15.501s3.66602 -15.334 0.999023 -23.001s-7.83398 -13.167 -15.501 -16.5s-15.5 -3.66602 -23.5 -0.999023z" />
    <glyph glyph-name="Y" unicode="Y" horiz-adv-x="821" 
d="M274 594c-23.333 8.66699 -52.9912 13.0029 -88.9912 13.0029c29.333 -60 86.333 -153 171 -279c73.333 84.667 135 175.667 185 273c-6.66699 -0.666992 -16.334 -1.5 -29.001 -2.5s-22 -1.83301 -28 -2.5c-28.667 -2 -52.667 -2.66699 -72 -2
c-8 0 -14.833 3.16699 -20.5 9.5s-8.5 13.5 -8.5 21.5s3.16699 14.833 9.5 20.5s13.5 8.5 21.5 8.5c16.667 -0.666992 38.667 0 66 2c2.66699 0.666992 13 1.66699 31 3l41 3c62 3.33301 112 -2 150 -16c7.33301 -2.66699 12.666 -7.83398 15.999 -15.501
s3.66602 -15.334 0.999023 -23.001s-7.83398 -13.167 -15.501 -16.5s-15.5 -3.66602 -23.5 -0.999023c-19.333 7.33301 -43 11.666 -71 12.999c-56 -114.667 -126.333 -221 -211 -319c-3.33301 -3.33301 -7 -5.66602 -11 -6.99902c1.33301 -60.667 -1 -133.334 -7 -218.001
c74 -4 113 -6 117 -6c8 0 15 -3 21 -9s9 -13 9 -21s-3 -15 -9 -21s-13 -9 -21 -9c-21.333 0 -51.333 1.33301 -90 4s-72.334 3.83398 -101.001 3.50098s-55 -3.83301 -79 -10.5c-8 -2 -15.667 -1 -23 3s-12 10 -14 18s-1 15.667 3 23s10 12 18 14c30 8 66.333 12 109 12
c6 81.333 8.66699 150.666 8 207.999c-4.66699 2 -8.33398 5 -11.001 9c-102 153.333 -167.667 262.333 -197 327c-2.66699 0 -9 -0.5 -19 -1.5s-17.667 -1.83301 -23 -2.5c-28.667 -2 -52.667 -2.66699 -72 -2c-8 0 -14.833 3.16699 -20.5 9.5s-8.5 13.5 -8.5 21.5
s3.16699 14.833 9.5 20.5s13.5 8.5 21.5 8.5c16.667 -0.666992 38.667 0 66 2c2.66699 0.666992 13 1.66699 31 3l41 3c62 3.33301 112 -2 150 -16c7.33301 -2.66699 12.666 -7.83398 15.999 -15.501s3.66602 -15.334 0.999023 -23.001s-7.83398 -13.167 -15.501 -16.5
s-15.5 -3.66602 -23.5 -0.999023z" />
    <glyph glyph-name="Z" unicode="Z" horiz-adv-x="655" 
d="M511 9c-9.33301 0 -37.6709 -1.00195 -85.0039 -3.00195c-66 -3.33301 -112.667 -5.33301 -140 -6c-58 -2 -103.333 -2.66699 -136 -2c-20.667 1.33301 -37.334 2.66602 -50.001 3.99902c-7.33301 1.33301 -14 3 -20 5c-8.66699 3.33301 -15.667 8 -21 14
c-14 16 -14.333 36.333 -1 61c6.66699 12 17.667 26.667 33 44c7.33301 8.66699 19.666 21.334 36.999 38.001c12 12.667 19.333 20.667 22 24l45 64c23.333 32.667 42 57.667 56 75c16 20.667 46.333 54.334 91 101.001c39.333 41.333 68 74.333 86 99l39 54l13 20
c-15.333 2.66699 -35.666 5 -60.999 7c-14.667 0.666992 -30.5 1.33398 -47.5 2.00098s-32.167 1.16699 -45.5 1.5s-21.333 0.5 -24 0.5c-50.667 2.66699 -108 7 -172 13c-5.33301 -20.667 -8.66602 -41.5 -9.99902 -62.5s-1.5 -47.667 -0.5 -80s1.5 -56.166 1.5 -71.499
c0 -8.66699 -3 -15.834 -9 -21.501s-13.167 -8.5 -21.5 -8.5s-15.333 3 -21 9s-8.5 13 -8.5 21c0 10 -0.5 32.833 -1.5 68.5s-0.666992 66 1 91s5.83398 49.5 12.501 73.5c1.33301 4.66699 3.66602 8.66699 6.99902 12v4c0.666992 8 4.33398 14.667 11.001 20
s14 7.66602 22 6.99902c72.667 -7.33301 136.334 -12.333 191.001 -15c3.33301 0 11.833 -0.166992 25.5 -0.5s29 -0.833008 46 -1.5s32.833 -1.66699 47.5 -3c30 -2 54 -4.66699 72 -8c12 -2.66699 21.667 -5.66699 29 -9c14 -5.33301 23.333 -13.666 28 -24.999
c2 -5.33301 2.66699 -10.666 2 -15.999l-2 -6l-2 -4c-0.666992 -1.33301 -1.66699 -3 -3 -5l-8 -13l-23 -34l-40 -56c-18.667 -25.333 -48.667 -60 -90 -104c-43.333 -46 -73 -78.667 -89 -98c-13.333 -16.667 -31.333 -41.334 -54 -74.001s-37.667 -53.667 -45 -63
c-4 -5.33301 -13.333 -15.333 -28 -30l-35 -36c-8.66699 -10 -15.334 -18.333 -20.001 -25c10 -1.33301 22.333 -2.33301 37 -3c31.333 -0.666992 75.333 0 132 2c26.667 0.666992 73 2.66699 139 6c32 1.33301 55 2.33301 69 3c0 2.66699 0.5 12.334 1.5 29.001
s1.5 27.167 1.5 31.5s0.166992 13.166 0.5 26.499s0.333008 23.5 0 30.5s-1 15.833 -2 26.5s-2.16699 20.667 -3.5 30c-1.33301 8 0.5 15.333 5.5 22s11.667 10.667 20 12s15.833 -0.5 22.5 -5.5s10.667 -11.833 12 -20.5c2.66699 -17.333 4.33398 -36.166 5.00098 -56.499
s0.833984 -37.333 0.500977 -51s-1.16602 -32.334 -2.49902 -56.001s-2 -40.5 -2 -50.5c0 -8 -3 -14.833 -9 -20.5s-13.333 -8.5 -22 -8.5c-2 0 -4.33301 0.333008 -7 1h-2z" />
    <glyph glyph-name="bracketleft" unicode="[" horiz-adv-x="508" 
d="M377 594l-117.002 5.00586l-70 3c-4 0 -7.66699 0.333008 -11 1c0 -1.33301 -0.333008 -2.66602 -1 -3.99902c-1.33301 -12 -2 -28 -2 -48c-0.666992 -16.667 0 -46.334 2 -89.001c0.666992 -11.333 1.66699 -32 3 -62l3 -70
c0.666992 -16.667 1.16699 -37.834 1.5 -63.501s0.166016 -49.5 -0.500977 -71.5s-1.66699 -43.333 -3 -64c-0.666992 -10 -2 -23.667 -4 -41l-4 -46c-1.33301 -14 -2 -27.333 -2 -40c0 -2 -0.5 -13.167 -1.5 -33.5s-1.5 -37.5 -1.5 -51.5
c0 -18.667 0.666992 -33.334 2 -44.001c0 -2.66699 0.333008 -5 1 -7c3.33301 -0.666992 8 -1.33398 14 -2.00098c13.333 -0.666992 31 -1 53 -1c15.333 -0.666992 34.5 -0.666992 57.5 0s35.833 1 38.5 1c8 0 15 -3 21 -9s9 -13 9 -21s-3 -15 -9 -21s-13 -9 -21 -9
c-2.66699 0 -15.5 -0.333008 -38.5 -1s-42.5 -0.666992 -58.5 0c-23.333 0 -42.666 0.666992 -57.999 2c-9.33301 0.666992 -17.333 1.66699 -24 3c-10 2 -18 5.33301 -24 10c-7.33301 5.33301 -12.666 13.666 -15.999 24.999c-2 6 -3.66699 13.667 -5 23
c-1.33301 13.333 -2 30.666 -2 51.999c0 13.333 0.5 30.333 1.5 51s1.5 31.667 1.5 33c0 13.333 0.666992 27.333 2 42l4 48c2 18 3.33301 31.667 4 41c1.33301 20 2.33301 40.5 3 61.5s0.833984 44 0.500977 69s-0.833008 45.5 -1.5 61.5l-3 69
c-1.33301 30.667 -2.33301 52 -3 64c-2 43.333 -2.66699 73.666 -2 90.999c0 22.667 1 41.334 3 56.001c1.33301 10 3 18.333 5 25c4 10.667 9.66699 19 17 25l11 5c1.33301 0.666992 2.66602 1 3.99902 1h2h4h7c5.33301 0 13 -0.333008 23 -1
c16.667 -0.666992 40.334 -1.66699 71.001 -3c24 -1.33301 40.333 -2 49 -2c20 -0.666992 35.5 -1.33398 46.5 -2.00098s17.833 -1 20.5 -1c8 0 14.833 -3.16699 20.5 -9.5s8.5 -13.5 8.5 -21.5s-3.16699 -14.833 -9.5 -20.5s-13.5 -8.5 -21.5 -8.5z" />
    <glyph glyph-name="backslash" unicode="\" horiz-adv-x="529" 
d="M96 735c17.333 -49.333 42.999 -112.666 76.999 -189.999c46 -104.667 73.667 -168.334 83 -191.001l30 -76l36 -86l30 -72c13.333 -32 25.833 -60.333 37.5 -85s23.834 -49 36.501 -73c3.33301 -7.33301 3.83301 -15 1.5 -23s-7.16602 -13.833 -14.499 -17.5
s-15 -4.33398 -23 -2.00098s-14 7.16602 -18 14.499l-32 66l-28 63c-8.66699 18 -18.667 41 -30 69l-27 64l-29 70l-26 66l-82 189c-34 78.667 -60 143.334 -78 194.001c-2.66699 8 -2.33398 15.667 0.999023 23s9 12.333 17 15s15.667 2.33398 23 -0.999023
s12.333 -9 15 -17z" />
    <glyph glyph-name="bracketright" unicode="]" horiz-adv-x="438" 
d="M79 -129h20.9971h46c18 0 34.333 -0.333008 49 -1h71h11v4c1.33301 12 1.66602 28.333 0.999023 49c-0.666992 16.667 -2.66699 46 -6 88c-7.33301 90.667 -11 233 -11 427v17v33v37v51v6c-2.66699 0 -11.167 4 -25.5 12s-27.5 12.333 -39.5 13c-13.333 0 -31 -1 -53 -3
c-29.333 -2.66699 -46.333 -4 -51 -4c-8 0 -15.167 2.83301 -21.5 8.5s-9.5 12.5 -9.5 20.5s2.83301 15.167 8.5 21.5s12.5 9.5 20.5 9.5c5.33301 0 21 1.33301 47 4c24.667 2 44.667 3 60 3c55.333 -0.666992 94 -16.334 116 -47.001
c2.66699 -3.33301 4.33398 -7.33301 5.00098 -12c0.666992 -1.33301 1 -2.66602 1 -3.99902c0.666992 -2 1 -4.66699 1 -8c0.666992 -4.66699 1 -11 1 -19v-52v-37v-33v-17c0 -191.333 3.66699 -332.333 11 -423c3.33301 -41.333 5.33301 -71.666 6 -90.999
c0.666992 -22.667 0.333984 -41.334 -0.999023 -56.001c-1.33301 -9.33301 -2.66602 -17.333 -3.99902 -24c-3.33301 -11.333 -8.33301 -20 -15 -26c-3.33301 -2.66699 -7 -4.66699 -11 -6c-1.33301 0 -2.66602 -0.333008 -3.99902 -1h-3h-3h-8
c-5.33301 -0.666992 -13 -1 -23 -1h-71c-14.667 0.666992 -31 1 -49 1h-46h-21c-8 0 -15 3 -21 9s-9 13 -9 21s3 15 9 21s13 9 21 9z" />
    <glyph glyph-name="asciicircum" unicode="^" horiz-adv-x="542" 
d="M36 369c2.66699 10 12.6709 30.332 30.0039 60.999c16.667 29.333 35 60 55 92c22.667 36 42 65 58 87c9.33301 12.667 17 22.667 23 30c4.66699 4.66699 8.66699 8.33398 12 11.001c7.33301 6 14.666 9.33301 21.999 10c12.667 0.666992 25.667 -4.33301 39 -15
c8 -6 17 -15 27 -27c15.333 -18.667 33.333 -44.667 54 -78l50 -82c19.333 -33.333 29.666 -51.333 30.999 -54c4.66699 -7.33301 6 -15 4 -23s-6.5 -14.167 -13.5 -18.5s-14.5 -5.5 -22.5 -3.5s-14 6.33301 -18 13c-2 2.66699 -12.5 20.5 -31.5 53.5s-35.5 60.5 -49.5 82.5
c-20 31.333 -36.667 55 -50 71l-13 15c-4.66699 -5.33301 -9.66699 -12 -15 -20c-15.333 -21.333 -34 -49.333 -56 -84c-19.333 -31.333 -37 -61.333 -53 -90c-16 -27.333 -25 -43.666 -27 -48.999c-2 -8 -6.83301 -13.833 -14.5 -17.5s-15.334 -4.33398 -23.001 -2.00098
s-13.334 7.33301 -17.001 15s-4.16699 15.167 -1.5 22.5z" />
    <glyph glyph-name="underscore" unicode="_" horiz-adv-x="619" 
d="M488 -130c-16 0.666992 -95.333 1.33691 -238 2.00391c-102.667 0.666992 -183.334 3.66699 -242.001 9c-8 0.666992 -14.667 4.16699 -20 10.5s-7.66602 13.666 -6.99902 21.999s4.16699 15.166 10.5 20.499s13.833 7.66602 22.5 6.99902
c57.333 -5.33301 136 -8.33301 236 -9c143.333 -0.666992 223.333 -1.33398 240 -2.00098c8 0 14.833 -3 20.5 -9s8.5 -13.167 8.5 -21.5s-3 -15.333 -9 -21s-13.333 -8.5 -22 -8.5z" />
    <glyph glyph-name="grave" unicode="`" horiz-adv-x="423" 
d="M185 690c45.333 -38 86.3359 -67.667 123.003 -89c7.33301 -4 12 -10 14 -18s1 -15.667 -3 -23s-10 -12 -18 -14s-15.667 -1 -23 3c-40 22.667 -83.667 54.334 -131 95.001c-6.66699 5.33301 -10.334 12.166 -11.001 20.499s1.66602 15.666 6.99902 21.999
s12.166 9.83301 20.499 10.5s15.5 -1.66602 21.5 -6.99902z" />
    <glyph glyph-name="a" unicode="a" horiz-adv-x="663" 
d="M361 252l-8.99805 -2.99707c-21.333 -8.66699 -37.333 -14.334 -48 -17.001s-29.667 -6.33398 -57 -11.001c-26.667 -4 -46.667 -7.66699 -60 -11c-40.667 -10 -65.334 -24.333 -74.001 -43c-1.33301 -4 -2.33301 -11.667 -3 -23v-32
c0.666992 -24.667 14.667 -41.667 42 -51c28.667 -9.33301 62 -10.333 100 -3c38 6.66699 72.333 29 103 67c-0.666992 15.333 -0.333984 33.666 0.999023 54.999c0 5.33301 1.66699 29.333 5 72zM121.002 352.003v-1v1zM554.002 192.003
c0 -6.66699 1.32812 -17.9961 3.99512 -33.9961c2.66699 -20 4.33398 -35 5.00098 -45c2.66699 -42.667 -5 -75.334 -23 -98.001c-10 -12.667 -21.667 -21.5 -35 -26.5s-26 -6.83301 -38 -5.5s-24 5 -36 11c-27.333 13.333 -47.666 33.333 -60.999 60
c-33.333 -30 -69.333 -48.667 -108 -56c-48 -8.66699 -91 -6.66699 -129 6c-24 8 -43.667 21 -59 39s-23.333 41 -24 69v35c0.666992 18.667 3.66699 33.334 9 44.001c16.667 37.333 54.667 63.333 114 78c14.667 3.33301 36 7.33301 64 12
c28.667 4.66699 45.667 7.66699 51 9c9.33301 2.66699 23.333 7.66699 42 15c14.667 5.33301 26.334 9.33301 35.001 12c0 37.333 -4 67.666 -12 90.999s-22.333 40.666 -43 51.999c-24.667 13.333 -55 16.333 -91 9s-62 -22 -78 -44c-3.33301 -4 -5.66602 -8 -6.99902 -12
c7.33301 0 14 -2.66699 20 -8c10 -10 17 -19 21 -27c8 -16.667 6.66699 -31 -4 -43c-8.66699 -10 -20.667 -14 -36 -12c-8.66699 1.33301 -17 4.66602 -25 9.99902c-19.333 12 -31.666 28.333 -36.999 49c-6.66699 26 0 52.333 20 79c25.333 34 63.5 56.167 114.5 66.5
s94.5 5.16602 130.5 -15.501c20 -10.667 36.333 -24.167 49 -40.5s21.5 -35 26.5 -56s8.33301 -40.5 10 -58.5s1.83398 -38.333 0.500977 -61c-0.666992 -14.667 -2.16699 -35.5 -4.5 -62.5s-3.83301 -45.833 -4.5 -56.5c-2 -40.667 0 -70.334 6 -89.001
c2 -7.33301 6.5 -14.833 13.5 -22.5s14.833 -13.5 23.5 -17.5c15.333 -7.33301 27.333 -5.66602 36 5.00098c8 10 11 28.667 9 56c-0.666992 8 -2.33398 21.667 -5.00098 41c-2.66699 18 -4 31.333 -4 40s2.83301 16 8.5 22s12.667 9 21 9s15.5 -2.83301 21.5 -8.5
s9 -12.5 9 -20.5z" />
    <glyph glyph-name="b" unicode="b" horiz-adv-x="610" 
d="M157 123c14.667 -23.333 28.667 -39.335 42 -48.002c14.667 -10 35 -14.667 61 -14c59.333 1.33301 101.333 9 126 23c40 22.667 61.667 62.334 65 119.001c2.66699 56.667 -11.333 111.334 -42 164.001s-66.667 82.667 -108 90c-46 8.66699 -91.667 -16 -137 -74
c-2 -2 -4 -3.66699 -6 -5v-21c0 -132.667 -0.333008 -210.667 -1 -234zM-5 674.998c45.333 -6 92.667 -8.99902 142 -8.99902c8 0 15 -3 21 -9s9 -13 9 -21c0 -12.667 -6 -21.667 -18 -27c6 -39.333 9.33301 -87 10 -143c48.667 43.333 99.667 60 153 50
c30.667 -5.33301 58.667 -18.666 84 -39.999s47 -47.666 65 -78.999c36.667 -62.667 53 -128.334 49 -197.001c-4 -79.333 -35.333 -135.333 -94 -168c-33.333 -18.667 -84.666 -29 -153.999 -31c-38.667 -1.33301 -70.667 6.33398 -96 23.001
c-4.66699 3.33301 -9 6.66602 -13 9.99902v-5c-0.666992 -8 -4.16699 -14.833 -10.5 -20.5s-13.5 -8.16699 -21.5 -7.5s-14.833 4.16699 -20.5 10.5s-8.16699 13.5 -7.5 21.5c3.33301 49.333 5 157.333 5 324c0 8 0.166992 28.5 0.5 61.5s0.333008 56 0 69
s-1.33301 31.333 -3 55s-3.83398 45.167 -6.50098 64.5c-34.667 1.33301 -68.667 4 -102 8c-8 1.33301 -14.5 5.16602 -19.5 11.499s-7 13.666 -6 21.999s4.66699 15 11 20s13.833 7.16699 22.5 6.5z" />
    <glyph glyph-name="c" unicode="c" horiz-adv-x="563" 
d="M390 392c-10 21.333 -21.3291 36.3359 -33.9961 45.0029c-34.667 24 -76.334 30.333 -125.001 19s-84 -35 -106 -71c-18 -28.667 -27.667 -72.334 -29 -131.001c-0.666992 -58.667 7 -103 23 -133c6.66699 -10.667 18 -21.334 34 -32.001s35 -19.334 57 -26.001
c46.667 -14 83 -14.333 109 -1c18 10 33.5 25.667 46.5 47s26.167 48 39.5 80c3.33301 8 8.83301 13.5 16.5 16.5s15.334 3 23.001 0s13 -8.33301 16 -16s3.16699 -15.167 0.5 -22.5c-6.66699 -16.667 -12.667 -30.5 -18 -41.5s-12.666 -24.833 -21.999 -41.5
s-20.333 -31.334 -33 -44.001s-26.334 -22.667 -41.001 -30c-40.667 -22 -92.334 -23.667 -155.001 -5c-27.333 8.66699 -52.333 20.5 -75 35.5s-39.334 32.5 -50.001 52.5c-22 38.667 -32.333 92.667 -31 162s13.666 123.333 36.999 162
c20.667 32.667 49.5 58.334 86.5 77.001s76.667 27.667 119 27s79.5 -12 111.5 -34c24.667 -17.333 44.667 -44 60 -80c20 -48.667 14.667 -85.667 -16 -111c-8.66699 -7.33301 -20.667 -11.333 -36 -12c-14 -1.33301 -26 1 -36 7c-19.333 11.333 -26.666 27.333 -21.999 48
c3.33301 14.667 13.666 30 30.999 46c5.33301 4.66699 11.666 7 18.999 7z" />
    <glyph glyph-name="d" unicode="d" horiz-adv-x="681" 
d="M412 367c-2.66699 2 -5 4.33203 -7 6.99902c-7.33301 12.667 -13 21.834 -17 27.501s-9 11.5 -15 17.5s-12.667 10.667 -20 14c-16 6.66699 -36 10 -60 10s-48 -4 -72 -12c-24.667 -8 -45.667 -19 -63 -33c-16.667 -13.333 -27.334 -28 -32.001 -44
c-14.667 -48 -15.667 -96.667 -3 -146s34.334 -90 65.001 -122c30.667 -30.667 63 -45 97 -43c40 2 78.667 27 116 75c2.66699 3.33301 6 6 10 8c0.666992 20.667 1 98 1 232v9zM334 673.999c45.333 -6 92.6689 -8.99707 142.002 -8.99707c8 0 15 -3 21 -9s9 -13 9 -21
s-3 -15 -9 -21s-13 -9 -21 -9h-12c2.66699 -19.333 4.66699 -41 6 -65s2.16602 -43.167 2.49902 -57.5s0.333008 -36.666 0 -66.999s-0.5 -49.5 -0.5 -57.5c0 -154.667 -1 -253 -3 -295c16.667 1.33301 43.667 2.33301 81 3c8.66699 0 16 -2.83301 22 -8.5s9 -12.667 9 -21
s-2.83301 -15.5 -8.5 -21.5s-12.5 -9 -20.5 -9c-36 -0.666992 -70.333 -2 -103 -4h-7h-7c-8 0.666992 -14.833 4.16699 -20.5 10.5s-8.16699 13.5 -7.5 21.5v2c-37.333 -32.667 -76.666 -50.334 -117.999 -53.001c-52.667 -2.66699 -100.667 17.666 -144 60.999
c-38.667 40 -65.5 89.833 -80.5 149.5s-13.833 119.167 3.5 178.5c9.33301 28 26.166 51.667 50.499 71s52.166 34.333 83.499 45c30 9.33301 60 14 90 14c30.667 0.666992 59 -4.33301 85 -15c13.333 -5.33301 25.333 -12.666 36 -21.999c-0.666992 56.667 -4 104 -10 142
c-26 1.33301 -51.667 3.66602 -77 6.99902c-8 1.33301 -14.5 5.16602 -19.5 11.499s-7 13.666 -6 21.999s4.66699 15 11 20s13.833 7.16699 22.5 6.5z" />
    <glyph glyph-name="e" unicode="e" horiz-adv-x="580" 
d="M421 301c-0.666992 3.33301 -1 7.33203 -1 11.999c-0.666992 16 -1.33398 25.667 -2.00098 29c-5.33301 40.667 -20.5 70.5 -45.5 89.5s-54.833 27.5 -89.5 25.5c-36 -2.66699 -69 -15 -99 -37s-50.333 -50.667 -61 -86c-2 -6 -3.66699 -12 -5 -18
c2.66699 0.666992 5.33398 1 8.00098 1c8 0 31.667 -2 71 -6c48.667 -4.66699 83 -7.66699 103 -9c41.333 -3.33301 73.333 -4.33301 96 -3c10 0.666992 18.333 1.33398 25 2.00098zM467 169.999c-10.667 -77.333 -44 -131.999 -100 -163.999
c-50.667 -28.667 -105.667 -31.667 -165 -9c-38 14.667 -70.167 38.167 -96.5 70.5s-44.333 72.666 -54 120.999s-5.16699 102.833 13.5 163.5c14.667 48 42.167 86.667 82.5 116s84.166 45.333 131.499 48c49.333 3.33301 92.833 -9.16699 130.5 -37.5
s60.5 -71.166 68.5 -128.499c0.666992 -5.33301 1.33398 -16.666 2.00098 -33.999c0.666992 -8.66699 1 -16 1 -22v-9c-0.666992 -2 -1 -3.66699 -1 -5c-0.666992 -4.66699 -2 -8.66699 -4 -12c-6.66699 -11.333 -18.667 -19.333 -36 -24
c-10.667 -2.66699 -24.334 -4.33398 -41.001 -5.00098c-25.333 -1.33301 -59.666 -0.333008 -102.999 3c-25.333 1.33301 -60.333 4.33301 -105 9c-38 4 -60.333 6 -67 6c-6 0 -11.333 1.66699 -16 5c-4 -52.667 5.33301 -97.334 28 -134.001s51.667 -61.667 87 -75
c42 -16 80.333 -14.333 115 5c38.667 22 61.667 62 69 120c1.33301 8 5.33301 14.5 12 19.5s14 7 22 6s14.5 -4.83301 19.5 -11.5s7.16699 -14 6.5 -22z" />
    <glyph glyph-name="f" unicode="f" horiz-adv-x="515" 
d="M306 429c-30.667 4 -68.6689 5.33398 -114.002 4.00098c-0.666992 -26.667 -1 -56.667 -1 -90c0 -110.667 3 -200 9 -268c22 0 44.667 -0.666992 68 -2c8 -0.666992 14.833 -4 20.5 -10s8.16699 -13.167 7.5 -21.5s-4 -15.333 -10 -21s-13.333 -8.16699 -22 -7.5
c-82 5.33301 -156.667 2.66602 -224 -8.00098c-8 -1.33301 -15.333 0.5 -22 5.5s-10.667 11.667 -12 20s0.5 15.833 5.5 22.5s11.833 10.667 20.5 12c34 4.66699 70 8 108 10c-6 69.333 -9 158.666 -9 267.999c0 31.333 0.333008 61 1 89
c-29.333 -1.33301 -53.333 -2 -72 -2c-8 0 -15 3 -21 9s-9 13 -9 21s3 15 9 21s13 9 21 9c16 0 41.333 0.666992 76 2c0 4.66699 0.333008 9.66699 1 15c4.66699 55.333 12.5 93.666 23.5 114.999s26 37 45 47s37.833 14.333 56.5 13s36.667 -4 54 -8
c26 -8.66699 48.667 -21 68 -37c24 -20.667 34.333 -41.667 31 -63c-4.66699 -22.667 -12.667 -37.667 -24 -45c-17.333 -11.333 -34 -8.66602 -50 8.00098c-5.33301 5.33301 -10.666 12.666 -15.999 21.999c-1.33301 2 -2.66602 4.66699 -3.99902 8l-1 1
c-8 13.333 -6.33301 25.666 5 36.999c-8.66699 4.66699 -17.667 8.33398 -27 11.001c-42 14 -70 6.66699 -84 -22c-7.33301 -14 -13 -45 -17 -93l-1 -7c46.667 0.666992 86 -1 118 -5c8 -1.33301 14.5 -5.16602 19.5 -11.499s7 -13.666 6 -21.999s-4.66699 -15 -11 -20
s-13.833 -7.16699 -22.5 -6.5z" />
    <glyph glyph-name="g" unicode="g" horiz-adv-x="629" 
d="M342 445l-0.999023 0.000976562c-24 2.66699 -50 1 -78 -5s-51.833 -15.5 -71.5 -28.5s-32.5 -27.833 -38.5 -44.5c-6 -18 -2.66699 -39 10 -63c13.333 -26 30.333 -43.333 51 -52c26.667 -11.333 63.667 -11.333 111 0c36 8.66699 60.333 21 73 37
c9.33301 11.333 12.666 25.666 9.99902 42.999c-5.33301 30 -27.333 67.667 -66 113zM206.001 68.001c-4 -4 -9.00195 -6.66797 -15.002 -8.00098c-20.667 -4.66699 -39 -13.167 -55 -25.5s-27.333 -26.166 -34 -41.499c-13.333 -32 -0.666016 -59.667 38.001 -83
c42 -26 106.667 -30.333 194 -13c24.667 5.33301 43.667 10.333 57 15c20 7.33301 33 15 39 23c8.66699 11.333 10 34 4 68c-3.33301 23.333 -20.666 42.333 -51.999 57c-30 14.667 -61.667 21 -95 19c-9.33301 -0.666992 -21.333 -2 -36 -4
c-3.33301 -0.666992 -9.5 -1.66699 -18.5 -3s-16.167 -2.33301 -21.5 -3zM458.999 505c0.666992 1.33301 1.66699 3.66406 3 6.99707l2 10l4 12c0.666992 3.33301 1 6.33301 1 9l-2 1l-8 4c-15.333 6.66699 -29.333 5 -42 -5c-13.333 -10 -24 -26.667 -32 -50
c0 -1.33301 -0.333008 -2.66602 -1 -3.99902c48 -56 75.667 -105 83 -147c6 -35.333 -1.66699 -65.666 -23 -90.999c-21.333 -26 -56.333 -45 -105 -57c-60 -14.667 -109.667 -14 -149 2c-20 8.66699 -37.667 21.667 -53 39c-26.667 -13.333 -41.334 -33 -44.001 -59
c-3.33301 -27.333 10.334 -44 41.001 -50c16 -2.66699 38.667 -2 68 2c5.33301 0.666992 12.5 1.83398 21.5 3.50098s15.167 2.5 18.5 2.5c16.667 2.66699 30.334 4.33398 41.001 5.00098c43.333 2 85 -6 125 -24c50 -24 78.667 -58 86 -102
c8 -51.333 2.66699 -89.333 -16 -114c-13.333 -18 -35.333 -32.333 -66 -43c-16.667 -6 -38.667 -11.667 -66 -17c-102.667 -21.333 -182 -15 -238 19c-32 20 -53.333 44.5 -64 73.5s-9.66699 57.167 3 84.5c9.33301 22.667 24.666 43 45.999 61
c-22 10 -38.167 24.5 -48.5 43.5s-14.166 39.833 -11.499 62.5c2.66699 20.667 10.167 40.167 22.5 58.5s28.833 33.166 49.5 44.499c-16 36 -18.667 69.667 -8 101c10 29.333 30.667 54.333 62 75c46.667 30 101.667 44.667 165 44l2 2l2 2
c0 0.666992 0.333008 1.66699 1 3c11.333 34 28.666 60 51.999 78c30.667 24 64.667 27.667 102 11c0.666992 0 3 -0.666992 7 -2c3.33301 -2 6.33301 -3.33301 9 -4c10.667 -6 18.667 -13.333 24 -22c4.66699 -8 6.66699 -18 6 -30c0 -6.66699 -1 -14.667 -3 -24
c-0.666992 -3.33301 -1.66699 -7.33301 -3 -12l-4 -12c-1.33301 -4 -2 -6.33301 -2 -7c-2 -8 -6.66699 -14 -14 -18s-15 -5 -23 -3s-14 6.66699 -18 14s-5 15 -3 23z" />
    <glyph glyph-name="h" unicode="h" horiz-adv-x="718" 
d="M35 62c25.333 5.33301 55.3379 8 90.0049 8c4 32 6.83301 67.667 8.5 107s2.33398 72.833 2.00098 100.5s-1.33301 65.5 -3 113.5s-2.5 83 -2.5 105v30v47c0 16.667 -0.333008 30 -1 40c-8 0 -18.333 -0.666992 -31 -2c-8.66699 -0.666992 -17.834 -1.5 -27.501 -2.5
s-18.167 -2 -25.5 -3s-11.333 -1.5 -12 -1.5c-8 -0.666992 -15.333 1.66602 -22 6.99902s-10.334 12 -11.001 20s1.66602 15.333 6.99902 22s12 10.334 20 11.001c0.666992 0 4.83398 0.333008 12.501 1s16.334 1.5 26.001 2.5s18.5 2.16699 26.5 3.5
c17.333 1.33301 31 2.33301 41 3h16c2.66699 0 5 -0.333008 7 -1c7.33301 -0.666992 13.666 -3.33398 18.999 -8.00098c4 -4 7 -9 9 -15c0.666992 -2.66699 1.33398 -6 2.00098 -10c1.33301 -4.66699 2.33301 -11 3 -19c0.666992 -12 1 -28 1 -48v-47v-30v-26
c42.667 32.667 90.667 49.667 144 51c35.333 0.666992 68 -7.33301 98 -24s53 -42 69 -76c10.667 -22.667 18.667 -46 24 -70s7.66602 -50.5 6.99902 -79.5s-1.5 -52.333 -2.5 -70s-3.83301 -43.334 -8.5 -77.001s-7.33398 -55.167 -8.00098 -64.5
c28.667 -2.66699 53.667 -4 75 -4c8 0 15 -3 21 -9s9 -13 9 -21s-3 -15 -9 -21s-13 -9 -21 -9c-26 0 -64.667 2.33301 -116 7s-87.666 7 -108.999 7c-8 0 -15 3 -21 9s-9 13 -9 21s3 15 9 21s13 9 21 9c23.333 0 53.333 -1.66699 90 -5c1.33301 14 4.16602 37 8.49902 69
s7.16602 56.167 8.49902 72.5s2.16602 37 2.49902 62s-1.66699 47.667 -6 68s-10.833 39.833 -19.5 58.5c-20.667 44.667 -58 66.667 -112 66c-24.667 -0.666992 -48.834 -6.5 -72.501 -17.5s-43.167 -25.5 -58.5 -43.5c-3.33301 -4 -7 -7 -11 -9
c4 -143.333 1.33301 -251.333 -8 -324c40.667 -2.66699 67.334 -4 80.001 -4c8 0 15 -3 21 -9s9 -13 9 -21s-3 -15 -9 -21s-13 -9 -21 -9c-14 0 -49.333 1.66699 -106 5c-4.66699 -1.33301 -9.33398 -1.66602 -14.001 -0.999023c-2 0.666992 -4.33301 1.33398 -7 2.00098
c-34.667 2 -65 0.333008 -91 -5c-8 -2 -15.5 -0.666992 -22.5 4s-11.333 11 -13 19s-0.166992 15.5 4.5 22.5s11 11.167 19 12.5z" />
    <glyph glyph-name="i" unicode="i" horiz-adv-x="413" 
d="M47 498c6 -1.33301 11.168 -2.33691 15.501 -3.00391s7.33301 -1.16699 9 -1.5s3 -0.666016 4 -0.999023s1.83301 -0.5 2.5 -0.5h1h1c0.666992 0 1.66699 0.166992 3 0.5s2.83301 0.5 4.5 0.5s4 0.166992 7 0.5s6.5 0.833008 10.5 1.5h2
c0.666992 0 1.16699 0.166992 1.5 0.5s1.33301 0.666016 3 0.999023s3.83398 0.833008 6.50098 1.5c14 3.33301 26.333 2 37 -4c8 -4.66699 13.667 -12 17 -22c2 -4.66699 3.66699 -10.667 5 -18c2 -10 3.33301 -24.667 4 -44
c1.33301 -32.667 1.66602 -73.667 0.999023 -123c-0.666992 -32.667 -1.83398 -73.667 -3.50098 -123s-2.5 -77.666 -2.5 -84.999v-1c42 -1.33301 78.333 -3 109 -5c8 -0.666992 14.833 -4.16699 20.5 -10.5s8.16699 -13.5 7.5 -21.5s-4.16699 -14.833 -10.5 -20.5
s-13.5 -8.16699 -21.5 -7.5c-24.667 2 -50.667 3.33301 -78 4s-57.833 1.33398 -91.5 2.00098s-59.834 1.33398 -78.501 2.00098c-8 0 -14.833 3.16699 -20.5 9.5s-8.5 13.5 -8.5 21.5s3.16699 14.833 9.5 20.5s13.5 8.5 21.5 8.5
c18.667 -0.666992 45.667 -1.33398 81 -2.00098c0 7.33301 0.833008 35.833 2.5 85.5s2.83398 90.834 3.50098 123.501c0.666992 50.667 0.333984 90.334 -0.999023 119.001c-0.666992 12 -1.33398 21.667 -2.00098 29c-3.33301 -0.666992 -6 -1 -8 -1c-22 -2 -34 -3 -36 -3
s-4.66699 0.333008 -8 1s-8 1.5 -14 2.5s-11.333 1.83301 -16 2.5c-8 1.33301 -14.5 5.5 -19.5 12.5s-6.83301 14.5 -5.5 22.5s5.5 14.5 12.5 19.5s14.5 6.83301 22.5 5.5zM174.001 598.996c0 -8 -3 -15 -9 -21s-13 -9 -21 -9s-15 3 -21 9s-9 13 -9 21s3 15 9 21s13 9 21 9
s15 -3 21 -9s9 -13 9 -21z" />
    <glyph glyph-name="j" unicode="j" horiz-adv-x="309" 
d="M209 461c0 -8.66699 -0.333984 -49.9971 -1.00098 -123.997c-0.666992 -70.667 -2 -131.667 -4 -183c-2.66699 -71.333 -7.66699 -129.666 -15 -174.999c-9.33301 -60 -23 -101 -41 -123c-22.667 -28 -58 -44.333 -106 -49c-39.333 -3.33301 -71.833 3.5 -97.5 20.5
s-42.5 38.167 -50.5 63.5c-3.33301 11.333 -4.66602 22 -3.99902 32c2 15.333 8.66699 26.666 20 33.999c13.333 9.33301 28 9.66602 44 0.999023c10 -5.33301 20 -14.666 30 -27.999c4.66699 -6.66699 6.5 -14 5.5 -22s-4.83301 -14.667 -11.5 -20
c-2.66699 -2 -5.66699 -3.66699 -9 -5c16.667 -13.333 39 -18.666 67 -15.999c31.333 2.66699 53.333 11.667 66 27c11.333 13.333 20.666 44.666 27.999 93.999c6.66699 44.667 11.334 100.667 14.001 168c1.33301 26 2.66602 118.333 3.99902 277
c-2 0 -14.667 0.333008 -38 1c-29.333 0.666992 -51.666 2 -66.999 4c-8.66699 1.33301 -15.5 5.16602 -20.5 11.499s-7 13.666 -6 21.999s4.66699 15 11 20s13.5 7.16699 21.5 6.5c15.333 -2 36.333 -3.33301 63 -4c37.333 -0.666992 59.333 -1.33398 66 -2.00098h2
c8 0 14.833 -3 20.5 -9s8.5 -13.333 8.5 -22zM184.999 597.003c0 -8 -3 -15 -9 -21s-13 -9 -21 -9s-15 3 -21 9s-9 13 -9 21s3 15 9 21s13 9 21 9s15 -3 21 -9s9 -13 9 -21z" />
    <glyph glyph-name="k" unicode="k" horiz-adv-x="711" 
d="M280 489c28.667 3.33301 58.666 5.33105 89.999 5.99805s68.166 0.5 110.499 -0.5s71.166 -1.5 86.499 -1.5c8 0 15 -3 21 -9s9 -13 9 -21s-3 -15 -9 -21s-13 -9 -21 -9c-15.333 0 -50.333 0.666992 -105 2c-1.33301 -5.33301 -3.33301 -10 -6 -14
c-34.667 -43.333 -74 -85.333 -118 -126l82 -107c35.333 -46 66.333 -82.667 93 -110l4 -6c22.667 -1.33301 45.334 -3.33301 68.001 -6c8 -1.33301 14.5 -5.33301 19.5 -12s7 -14 6 -22s-4.83301 -14.5 -11.5 -19.5s-14 -7.16699 -22 -6.5
c-78.667 10.667 -150.334 10.667 -215.001 0c-8.66699 -1.33301 -16.334 0.5 -23.001 5.5s-10.667 11.667 -12 20s0.5 15.833 5.5 22.5s11.5 10.667 19.5 12c26.667 4 54.667 6.33301 84 7c-16.667 18.667 -37.667 44.667 -63 78l-80 104c-28 -23.333 -56.333 -45 -85 -65
c-4.66699 -3.33301 -10 -5 -16 -5c-1.33301 -44.667 -2.66602 -83.667 -3.99902 -117c16.667 -0.666992 38 -2 64 -4c8 -0.666992 14.833 -4.16699 20.5 -10.5s8.16699 -13.5 7.5 -21.5s-4.16699 -14.833 -10.5 -20.5s-13.5 -8.16699 -21.5 -7.5
c-96 6.66699 -170 6.33398 -222 -0.999023c-8 -0.666992 -15.333 1.5 -22 6.5s-10.5 11.5 -11.5 19.5s1 15.333 6 22s11.5 10.667 19.5 12c34 4.66699 70.667 6.66699 110 6c3.33301 96.667 6 193.334 8 290.001c1.33301 74.667 2 134 2 178c0 25.333 -0.333008 45 -1 59
c-0.666992 5.33301 -1 9.33301 -1 12c-5.33301 1.33301 -14.333 2 -27 2c-42.667 0 -70 2.33301 -82 7c-7.33301 2.66699 -12.666 7.83398 -15.999 15.501s-3.66602 15.334 -0.999023 23.001s7.83398 13.167 15.501 16.5s15.5 3.66602 23.5 0.999023
c5.33301 -2 25.666 -3 60.999 -3c17.333 0 30.666 -1.33301 39.999 -4c20.667 -4 34.334 -13.333 41.001 -28c2 -4.66699 3.33301 -11 4 -19c0.666992 -5.33301 1.33398 -12.333 2.00098 -21c0.666992 -14.667 1 -35 1 -61c0 -44.667 -0.666992 -104.334 -2 -179.001
c-0.666992 -32.667 -1.66699 -67.667 -3 -105c73.333 53.333 139 114.333 197 183c-38.667 -0.666992 -72.667 -3 -102 -7c-8 -0.666992 -15.333 1.5 -22 6.5s-10.5 11.5 -11.5 19.5s1 15.333 6 22s11.5 10.667 19.5 12z" />
    <glyph glyph-name="l" unicode="l" horiz-adv-x="399" 
d="M20 68c26.667 2 57.668 2.66992 93.001 2.00293c1.33301 47.333 3.66602 140.333 6.99902 279c1.33301 72.667 2.33301 134 3 184v59v13c-6 2.66699 -15.333 4 -28 4c-5.33301 0 -26.666 -1.66699 -63.999 -5c-8.66699 -0.666992 -16.167 1.66602 -22.5 6.99902
s-9.83301 12.166 -10.5 20.499s1.66602 15.666 6.99902 21.999s12 9.83301 20 10.5c40 3.33301 63.667 5 71 5c43.333 -0.666992 71.333 -14 84 -40l3 -11v-3v-5v-18v-60c-0.666992 -50 -2 -111.333 -4 -184c-2 -134.667 -4 -227.667 -6 -279
c47.333 -0.666992 79.333 -1 96 -1c8 0 15 -3 21 -9s9 -13 9 -21s-3 -15 -9 -21s-13 -9 -21 -9c-18.667 0 -46 0.333008 -82 1s-63.167 1 -81.5 1s-45.5 -0.666992 -81.5 -2c-8 -0.666992 -15.167 1.83301 -21.5 7.5s-9.83301 12.5 -10.5 20.5s1.83301 15.167 7.5 21.5
s12.5 9.83301 20.5 10.5z" />
    <glyph glyph-name="m" unicode="m" horiz-adv-x="1004" 
d="M362 61c22.667 4.66699 49.6611 6.34082 80.9941 5.00781v3c-1.33301 18.667 -1.33301 47.667 0 87c2 53.333 2.66699 86 2 98c0 76 -9.33301 127.333 -28 154c-1.33301 2 -2.83301 4 -4.5 6s-3.5 3.83301 -5.5 5.5s-3.66699 3 -5 4s-3.66602 2.33301 -6.99902 4
s-5.66602 3 -6.99902 4s-4.16602 2.33301 -8.49902 4s-7.16602 2.83398 -8.49902 3.50098s-4.66602 2 -9.99902 4s-9 3.33301 -11 4c-44.667 17.333 -86.667 -0.333984 -126 -53.001c-6.66699 -8.66699 -15.667 -12.667 -27 -12c0 -28.667 -0.333008 -69 -1 -121
c0 -20 -0.166992 -44.833 -0.5 -74.5s-0.666016 -54.667 -0.999023 -75s-0.5 -35.833 -0.5 -46.5c36.667 -1.33301 64.667 -2 84 -2c8 0 15 -3 21 -9s9 -13 9 -21s-3 -15 -9 -21s-13 -9 -21 -9c-0.666992 0 -43 1 -127 3c-50.667 1.33301 -91.667 0.333008 -123 -3
c-8.66699 -0.666992 -16.167 1.66602 -22.5 6.99902s-9.83301 12.166 -10.5 20.499s1.66602 15.666 6.99902 21.999s12 9.83301 20 10.5c32 2.66699 69.333 3.66699 112 3c0 11.333 0.166992 27.166 0.5 47.499s0.666016 45.166 0.999023 74.499s0.5 54 0.5 74
c0.666992 52 1 94.333 1 127v41v1v1c-6.66699 1.33301 -16 2.33301 -28 3h-36c-15.333 0 -26.666 0.333008 -33.999 1c-8 1.33301 -14.5 5.5 -19.5 12.5s-6.83301 14.5 -5.5 22.5s5.5 14.5 12.5 19.5s14.5 6.83301 22.5 5.5c3.33301 -0.666992 11 -1 23 -1h39
c16.667 -0.666992 30.667 -2.66699 42 -6c18.667 -5.33301 32 -14.666 40 -27.999c1.33301 -2 2.33301 -4.33301 3 -7c54 57.333 112.667 73.666 176 48.999c1.33301 -0.666992 5.33301 -2.33398 12 -5.00098s11.5 -4.5 14.5 -5.5s7.66699 -3 14 -6s11.333 -5.66699 15 -8
s8 -5.5 13 -9.5s9.66699 -8.16699 14 -12.5s8.5 -9.16602 12.5 -14.499l2 -4c18.667 22 40.334 39.667 65.001 53c25.333 13.333 51.666 21 78.999 23c32.667 2.66699 63 -3.33301 91 -18c28.667 -15.333 51 -39.666 67 -72.999c15.333 -32 25.666 -93.667 30.999 -185
c2.66699 -46.667 4 -106.334 4 -179.001c34.667 -0.666992 57.334 -1 68.001 -1c8 0 15 -3 21 -9s9 -13 9 -21s-3 -15 -9 -21s-13 -9 -21 -9c-14 0 -35 0.333008 -63 1s-52.167 0.833984 -72.5 0.500977s-40.166 -1.5 -59.499 -3.5c-8 -0.666992 -15.167 1.5 -21.5 6.5
s-10 11.667 -11 20s1 15.666 6 21.999s11.833 10.166 20.5 11.499c21.333 2 45.666 3.33301 72.999 4c0 70 -1.33301 128.333 -4 175c-4.66699 83.333 -13 137.333 -25 162c-20.667 42 -53.667 61 -99 57c-21.333 -1.33301 -42 -8 -62 -20s-36.333 -27.333 -49 -46
c-3.33301 -4.66699 -7.66602 -8.33398 -12.999 -11.001c7.33301 -31.333 11 -72 11 -122c0.666992 -14.667 0 -48.334 -2 -101.001c-1.33301 -37.333 -1.33301 -64.333 0 -81c0 -4 -0.666992 -7.66699 -2 -11c26 -2.66699 46.333 -4 61 -4c8 0 15 -3 21 -9s9 -13 9 -21
s-3 -15 -9 -21s-13 -9 -21 -9c-2.66699 0 -36 2.33301 -100 7c-36.667 2.66699 -66 2 -88 -2c-8 -2 -15.5 -0.666992 -22.5 4s-11.333 11 -13 19s-0.166992 15.5 4.5 22.5s11 11.167 19 12.5z" />
    <glyph glyph-name="n" unicode="n" horiz-adv-x="692" 
d="M362 61c22.667 4.66699 49.6621 6.33887 80.9951 5.00586v3c-1.33301 18.667 -1.33301 47.667 0 87c2 53.333 2.66699 86 2 98c0 76 -9.33301 127.333 -28 154c-1.33301 2 -2.83301 4 -4.5 6s-3.5 3.83301 -5.5 5.5s-3.66699 3 -5 4s-3.66602 2.33301 -6.99902 4
s-5.66602 3 -6.99902 4s-4.16602 2.33301 -8.49902 4s-7.16602 2.83398 -8.49902 3.50098s-4.66602 2 -9.99902 4s-9 3.33301 -11 4c-44.667 17.333 -86.667 -0.333984 -126 -53.001c-6.66699 -8.66699 -15.667 -12.667 -27 -12c0 -28.667 -0.333008 -69 -1 -121
c0 -20 -0.166992 -44.833 -0.5 -74.5s-0.666016 -54.667 -0.999023 -75s-0.5 -35.833 -0.5 -46.5c36.667 -1.33301 64.667 -2 84 -2c8 0 15 -3 21 -9s9 -13 9 -21s-3 -15 -9 -21s-13 -9 -21 -9c-0.666992 0 -43 1 -127 3c-50.667 1.33301 -91.667 0.333008 -123 -3
c-8.66699 -0.666992 -16.167 1.66602 -22.5 6.99902s-9.83301 12.166 -10.5 20.499s1.66602 15.666 6.99902 21.999s12 9.83301 20 10.5c32 2.66699 69.333 3.66699 112 3c0 11.333 0.166992 27.166 0.5 47.499s0.666016 45.166 0.999023 74.499s0.5 54 0.5 74
c0.666992 52 1 94.333 1 127v41v1v1c-6.66699 1.33301 -16 2.33301 -28 3h-36c-15.333 0 -26.666 0.333008 -33.999 1c-8 1.33301 -14.5 5.5 -19.5 12.5s-6.83301 14.5 -5.5 22.5s5.5 14.5 12.5 19.5s14.5 6.83301 22.5 5.5c3.33301 -0.666992 11 -1 23 -1h39
c16.667 -0.666992 30.667 -2.66699 42 -6c18.667 -5.33301 32 -14.666 40 -27.999c1.33301 -2 2.33301 -4.33301 3 -7c54 57.333 112.667 73.666 176 48.999c1.33301 -0.666992 5.33301 -2.33398 12 -5.00098s11.5 -4.5 14.5 -5.5s7.66699 -3 14 -6s11.333 -5.66699 15 -8
s8 -5.5 13 -9.5s9.66699 -8.16699 14 -12.5s8.5 -9.16602 12.5 -14.499c25.333 -36.667 38 -99 38 -187c0.666992 -14.667 0 -48.334 -2 -101.001c-1.33301 -37.333 -1.33301 -64.333 0 -81c0 -4 -0.666992 -7.66699 -2 -11c26 -2.66699 46.333 -4 61 -4c8 0 15 -3 21 -9
s9 -13 9 -21s-3 -15 -9 -21s-13 -9 -21 -9c-2.66699 0 -36 2.33301 -100 7c-36.667 2.66699 -66 2 -88 -2c-8 -2 -15.5 -0.666992 -22.5 4s-11.333 11 -13 19s-0.166992 15.5 4.5 22.5s11 11.167 19 12.5z" />
    <glyph glyph-name="o" unicode="o" horiz-adv-x="585" 
d="M423 343c-13.333 51.333 -38.668 85.833 -76.001 103.5s-77 19.167 -119 4.5c-44.667 -16 -80 -46.5 -106 -91.5s-32.667 -98.833 -20 -161.5c10.667 -50.667 33.334 -90.167 68.001 -118.5s74.667 -37.833 120 -28.5c35.333 8 60.333 17.667 75 29
c28 22.667 45.667 60 53 112c3.33301 23.333 5 72 5 146v5zM482.998 329c0.666992 -68.667 -1.33105 -117 -5.99805 -145c-9.33301 -68 -34 -118 -74 -150c-22 -18 -55.667 -31.667 -101 -41c-32.667 -7.33301 -63.834 -7.16602 -93.501 0.500977s-55.5 21 -77.5 40
s-40.5 41.5 -55.5 67.5s-25.5 54.333 -31.5 85c-16 77.333 -7.33301 145 26 203s79.333 97.667 138 119c22 7.33301 44.5 11.666 67.5 12.999s45.5 -1.5 67.5 -8.5s42.167 -17.333 60.5 -31s34.666 -32 48.999 -55s24.833 -49.5 31.5 -79.5c1.33301 -6 1 -12 -1 -18z" />
    <glyph glyph-name="p" unicode="p" horiz-adv-x="630" 
d="M189 121c2 -1.33301 4.00293 -2.99902 6.00293 -4.99902c26 -33.333 54.333 -54 85 -62c49.333 -12.667 91.666 -3.33398 126.999 27.999c29.333 25.333 47.666 47 54.999 65c4.66699 10 7.33398 22 8.00098 36s0.666992 29.333 0 46
c-0.666992 49.333 -3.33398 83.333 -8.00098 102c-8.66699 33.333 -22.334 59.666 -41.001 78.999s-39.667 31.333 -63 36s-47.833 2 -73.5 -8s-49.5 -27.667 -71.5 -53c-6 -6 -13 -9.33301 -21 -10l-2 -15c-2 -15.333 -3 -24.666 -3 -27.999
c-0.666992 -20 0 -90.333 2 -211zM39.0029 501.001c2 0 9.66797 0.335938 23.001 1.00293c8.66699 0.666992 23 1.66699 43 3s33.667 2 41 2c5.33301 0.666992 10 1 14 1h5h1h2c1.33301 0 2.66602 -0.333008 3.99902 -1c6 -0.666992 11.333 -3.66699 16 -9
c6 -6 9.33301 -14.333 10 -25c0.666992 -4.66699 1 -10.667 1 -18c54 45.333 111 62 171 50c36 -7.33301 67.333 -25 94 -53c26 -27.333 44.667 -63 56 -107c6 -22.667 9.33301 -61.334 10 -116.001c1.33301 -11.333 1.33301 -27.833 0 -49.5s-5.33301 -40.5 -12 -56.5
c-12 -26.667 -35.667 -55.667 -71 -87c-25.333 -21.333 -54 -35.5 -86 -42.5s-63.667 -6.16699 -95 2.5c-28 7.33301 -53.667 20.333 -77 39c-0.666992 -54.667 -4 -103.334 -10 -146.001c32.667 0 62.667 1 90 3c8 0.666992 15.167 -1.83301 21.5 -7.5
s9.83301 -12.5 10.5 -20.5s-1.83301 -15.167 -7.5 -21.5s-12.5 -9.83301 -20.5 -10.5c-60.667 -4 -140.667 -3.33301 -240 2c-8 0.666992 -14.833 4 -20.5 10s-8.16699 13.167 -7.5 21.5s4 15.333 10 21s13.333 8.16699 22 7.5c30.667 -2 57.667 -3.33301 81 -4
c6.66699 42.667 10.334 88.5 11.001 137.5s0.166992 103 -1.5 162s-1.83398 107.167 -0.500977 144.5c0 4.66699 1 15.667 3 33c2.66699 23.333 4.33398 38.666 5.00098 45.999c2 14 3 25.333 3 34l-29 -2c-20.667 -1.33301 -35.334 -2.33301 -44.001 -3
c-14.667 -0.666992 -24 -1 -28 -1c-8 0 -14.833 3 -20.5 9s-8.5 13.167 -8.5 21.5s3 15.333 9 21s13.333 8.5 22 8.5z" />
    <glyph glyph-name="q" unicode="q" horiz-adv-x="674" 
d="M407 118c2 54 2.99902 102.334 2.99902 145.001c0 13.333 -1 34.333 -3 63s-3 49 -3 61c-14 16 -26.167 28.167 -36.5 36.5s-22.5 14.5 -36.5 18.5c-50 14.667 -93 7.66699 -129 -21c-27.333 -22 -47.166 -50.5 -59.499 -85.5s-16.833 -70.5 -13.5 -106.5
s13 -69.667 29 -101c24 -46 54.667 -72.667 92 -80c42 -8.66699 86.333 11.666 133 60.999c6.66699 6.66699 14.667 9.66699 24 9zM466.999 467.001c-3.33301 -17.333 -4.66309 -36.6689 -3.99609 -58.002c5.33301 -9.33301 5.66602 -19 0.999023 -29
c4 -75.333 6 -114.333 6 -117c0 -37.333 -0.666992 -76.166 -2 -116.499s-3 -87.666 -5 -141.999s-3.66699 -93.166 -5 -116.499c30.667 0 58.667 1 84 3c8 0.666992 15.167 -1.83301 21.5 -7.5s9.83301 -12.5 10.5 -20.5s-1.83301 -15.167 -7.5 -21.5
s-12.5 -9.83301 -20.5 -10.5c-60.667 -4 -140.667 -3.33301 -240 2c-8 0.666992 -14.833 4 -20.5 10s-8.16699 13.167 -7.5 21.5s4 15.333 10 21s13.333 8.16699 22 7.5c33.333 -2 62.666 -3.33301 87.999 -4c0.666992 8.66699 3 61 7 157
c-55.333 -48.667 -111 -67.667 -167 -57c-28.667 6 -54.334 19 -77.001 39s-41.334 44.333 -56.001 73c-19.333 37.333 -31.333 77.666 -36 120.999c-4.66699 44 1 88.667 17 134c15.333 44.667 41.333 81.667 78 111c52.667 42.667 113.667 53.667 183 33
c22 -6.66699 41.667 -17 59 -31c0.666992 2.66699 1 5.33398 1 8.00098c1.33301 8 5.33301 14.5 12 19.5s14.167 6.83301 22.5 5.5s15 -5.33301 20 -12s6.83301 -14.334 5.5 -23.001z" />
    <glyph glyph-name="r" unicode="r" horiz-adv-x="581" 
d="M50 498c2.66699 -0.666992 16.998 -0.333984 42.998 0.999023c27.333 1.33301 47 -1 59 -7c18 -8 30.667 -20.333 38 -37c6.66699 7.33301 13.334 13.666 20.001 18.999c27.333 21.333 62 34.333 104 39c49.333 5.33301 87.333 -4.33398 114 -29.001
c4 -3.33301 8.33301 -9 13 -17c2.66699 -5.33301 6 -11.666 10 -18.999c7.33301 -14 12.333 -24.333 15 -31c4.66699 -12 8.33398 -23 11.001 -33c4.66699 -18 5.66699 -33 3 -45c-4.66699 -24 -16 -42.5 -34 -55.5s-36.333 -18.5 -55 -16.5
c-11.333 1.33301 -21.333 5.66602 -30 12.999s-13.334 17.666 -14.001 30.999c-0.666992 20 10 41 32 63c11.333 11.333 23.666 12.666 36.999 3.99902c-1.33301 5.33301 -3.33301 11 -6 17c-2 4.66699 -6 13.334 -12 26.001c-3.33301 6.66699 -6.33301 12 -9 16
c-0.666992 1.33301 -1.66699 2.66602 -3 3.99902c-14 11.333 -35.667 15.333 -65 12c-30.667 -3.33301 -55.667 -12.333 -75 -27c-4.66699 -3.33301 -10.334 -9.66602 -17.001 -18.999c-12.667 -15.333 -20.334 -24.333 -23.001 -27c-4 -4.66699 -8.66699 -7.66699 -14 -9
l-1 -14c-1.33301 -10 -2 -17 -2 -21c-0.666992 -33.333 -0.5 -80.166 0.5 -140.499s1.5 -101.5 1.5 -123.5c0 -3.33301 -0.666992 -6.66602 -2 -9.99902c44.667 -2.66699 80.334 -4 107.001 -4c8 0 15 -3 21 -9s9 -13 9 -21s-3 -15 -9 -21s-13 -9 -21 -9
c-28.667 0 -71 1.66699 -127 5c-55.333 2.66699 -96.666 4 -123.999 4c-8 0 -15 3 -21 9s-9 13 -9 21s3 15 9 21s13 9 21 9c24 0 53 -0.666992 87 -2c-0.666992 2 -1 4.33301 -1 7c0 22 -0.5 63.333 -1.5 124s-1.16699 107.334 -0.5 140.001c0 6.66699 0.666992 15.667 2 27
l3 29c2 20.667 2.33301 34 1 40c-1.33301 2 -3.83301 3.83301 -7.5 5.5s-14.167 2.16699 -31.5 1.5c-30.667 -1.33301 -48 -1.66602 -52 -0.999023c-8 0.666992 -14.667 4.33398 -20 11.001s-7.66602 14 -6.99902 22s4.33398 14.667 11.001 20s14 7.66602 22 6.99902z" />
    <glyph glyph-name="s" unicode="s" horiz-adv-x="528" 
d="M351 404c-16 17.333 -38.8281 29.668 -68.4951 37.001s-58.5 7.66602 -86.5 0.999023c-27.333 -5.33301 -47.333 -16.333 -60 -33s-15.667 -39.334 -9 -68.001c4.66699 -18.667 20 -32.667 46 -42c8.66699 -3.33301 17.667 -6 27 -8s23.166 -4.66699 41.499 -8
s29.833 -5.33301 34.5 -6c50.667 -9.33301 87.334 -23.666 110.001 -42.999c35.333 -29.333 49 -72.333 41 -129c-6.66699 -45.333 -28.334 -77.333 -65.001 -96c-28 -15.333 -64.333 -20.333 -109 -15c-48.667 5.33301 -96 20.333 -142 45c0.666992 -10 1 -19.333 1 -28
c0 -8 -3 -15 -9 -21s-13 -9 -21 -9s-15 3 -21 9s-9 13 -9 21c0 18 -1.33301 48.667 -4 92c-2.66699 42.667 -3.66699 75 -3 97c0 8 3.16699 14.833 9.5 20.5s13.5 8.5 21.5 8.5s14.833 -3.16699 20.5 -9.5s8.5 -13.5 8.5 -21.5c-0.666992 -21.333 0 -50 2 -86
c18 -13.333 41.167 -25.666 69.5 -36.999s56.166 -18.666 83.499 -21.999c31.333 -3.33301 56.166 -0.333008 74.499 9s29.166 26.333 32.499 51c5.33301 35.333 -1 60.333 -19 75c-14.667 12.667 -42.334 22.667 -83.001 30c-4.66699 0.666992 -13.334 2 -26.001 4l-31 6
c-7.33301 1.33301 -16.333 3.33301 -27 6s-20 5.66699 -28 9c-46 16 -74 44 -84 84c-12 46.667 -5.33301 86.334 20 119.001c21.333 28 52.666 46.333 93.999 55c26.667 6 55.334 7 86.001 3s58.334 -12.667 83.001 -26c0 9.33301 0.666992 18.166 2 26.499
s5.33301 15 12 20s14.167 6.83301 22.5 5.5s15 -5.33301 20 -12s6.83301 -14 5.5 -22c-2.66699 -22.667 -4 -39.334 -4 -50.001s0.666992 -27.5 2 -50.5s2 -41.5 2 -55.5c0 -8 -3 -15 -9 -21s-13 -9 -21 -9s-15 3 -21 9s-9 13 -9 21c0 7.33301 -0.666992 28.666 -2 63.999
h-1z" />
    <glyph glyph-name="t" unicode="t" horiz-adv-x="472" 
d="M172 639c-1.33301 -22 -1.66602 -55.002 -0.999023 -99.002v-47c57.333 0.666992 108.333 1.66699 153 3c8 0 15.167 -2.83301 21.5 -8.5s9.5 -12.5 9.5 -20.5s-2.83301 -15.167 -8.5 -21.5s-12.5 -9.5 -20.5 -9.5c-45.333 -1.33301 -97.333 -2.33301 -156 -3
c-1.33301 -19.333 -5.16602 -56.166 -11.499 -110.499s-9.16602 -98.166 -8.49902 -131.499s6.33398 -66.666 17.001 -99.999c8.66699 -28.667 27 -43.667 55 -45c12.667 -0.666992 25.5 2.16602 38.5 8.49902s24.167 15.833 33.5 28.5c6 8 10.333 18 13 30
s4.16699 21.833 4.5 29.5s0.5 22.167 0.5 43.5c0 8 3 15 9 21s13 9 21 9s15 -3 21 -9s9 -13 9 -21v-15v-17c0 -2.66699 -0.166992 -8.16699 -0.5 -16.5s-0.833008 -14.5 -1.5 -18.5s-1.83398 -9.83301 -3.50098 -17.5s-3.5 -14 -5.5 -19s-4.66699 -10.667 -8 -17
s-7 -12.5 -11 -18.5c-14.667 -20 -33 -35.5 -55 -46.5s-44.667 -15.833 -68 -14.5c-25.333 1.33301 -47.833 9.33301 -67.5 24s-33.834 35.667 -42.501 63c-8.66699 28.667 -14.167 60.167 -16.5 94.5s-2.5 63.833 -0.5 88.5s5.16699 56 9.5 94s7.16602 65.667 8.49902 83
h-81c-8 0 -15 3 -21 9s-9 13 -9 21s3 15 9 21s13 9 21 9h82v46c-0.666992 45.333 -0.333984 80 0.999023 104c0.666992 8 4.16699 14.833 10.5 20.5s13.5 8.16699 21.5 7.5s14.833 -4.16699 20.5 -10.5s8.16699 -13.5 7.5 -21.5z" />
    <glyph glyph-name="u" unicode="u" horiz-adv-x="716" 
d="M513 237c-1.33301 -17.333 -2.00195 -35.501 -2.00195 -54.501s0.333008 -41 1 -66s1 -43.167 1 -54.5c30 0 55.667 -1.33301 77 -4c8 -1.33301 14.5 -5.16602 19.5 -11.499s7 -13.666 6 -21.999s-4.66699 -15 -11 -20s-13.833 -7.16699 -22.5 -6.5
c-20.667 2.66699 -61.667 4 -123 4c-8 0 -15 3 -21 9s-9 13 -9 21c0 2 0.333008 4 1 6c-19.333 -15.333 -42 -27.333 -68 -36c-46 -14.667 -84.667 -18.667 -116 -12c-11.333 2 -21.833 6 -31.5 12s-16.667 11.333 -21 16s-10.166 11.334 -17.499 20.001
c-0.666992 0.666992 -3.33398 4 -8.00098 10l-12 18l-13 17l-4 6l-1 2c-1.33301 2 -2.33301 4 -3 6c-8 16 -13.667 45.333 -17 88c-2 30 -3.33301 69.333 -4 118c0 14.667 -0.166992 34.167 -0.5 58.5s-0.5 40.166 -0.5 47.499c0 13.333 -0.333008 23.333 -1 30
c-4.66699 0.666992 -11 1 -19 1c-6 0 -15.333 -0.333008 -28 -1h-25c-8 0.666992 -14.833 4.16699 -20.5 10.5s-8.16699 13.5 -7.5 21.5s4.16699 14.833 10.5 20.5s13.5 8.16699 21.5 7.5h18c14 0.666992 24.333 1 31 1c13.333 0 24.666 -1 33.999 -3
c16 -2.66699 27.667 -8.33398 35 -17.001c4 -4 6.66699 -8.66699 8 -14c0 -2 0.333008 -4.33301 1 -7c0.666992 -3.33301 1 -7.66602 1 -12.999c0.666992 -8 1 -20 1 -36c0 -7.33301 0.166992 -23.166 0.5 -47.499s0.5 -43.833 0.5 -58.5c0.666992 -47.333 2 -85.333 4 -114
c2.66699 -33.333 6.33398 -55.666 11.001 -66.999l3 -5l13 -17l12 -18c0.666992 -1.33301 1.5 -2.5 2.5 -3.5l2.5 -2.5v-1c8 -9.33301 14.333 -16 19 -20s10.334 -6.66699 17.001 -8c21.333 -4 50 0 86 12c16.667 5.33301 31.167 12.333 43.5 21s22.333 19.5 30 32.5
s13.834 25.667 18.501 38s8 28.166 10 47.499s3.33301 36.166 4 50.499s1 33.5 1 57.5c0 2 0.333008 14 1 36s1 37.667 1 47c-0.666992 17.333 -2 31 -4 41c0 1.33301 -0.333008 2.66602 -1 3.99902c-4 -0.666992 -9.33301 -1 -16 -1c-3.33301 0 -7 -0.166992 -11 -0.5
s-7.33301 -0.666016 -10 -0.999023s-5 -0.5 -7 -0.5h-4c-8.66699 -0.666992 -16 1.83301 -22 7.5s-9.33301 12.667 -10 21s1.83301 15.5 7.5 21.5s12.5 9.33301 20.5 10h4c2 0 4.33301 0.166992 7 0.5s6.16699 0.666016 10.5 0.999023s8.16602 0.5 11.499 0.5
c9.33301 0.666992 17 1 23 1h10c2 -0.666992 3.66699 -1 5 -1c4 -0.666992 7.66699 -2 11 -4c14.667 -8 24.667 -23.333 30 -46c2.66699 -14 4.33398 -31.667 5.00098 -53c0 -12 -0.333008 -28.667 -1 -50s-1 -32.666 -1 -33.999v-56c1.33301 -4.66699 2 -9.33398 2 -14.001
z" />
    <glyph glyph-name="v" unicode="v" horiz-adv-x="694" 
d="M340 494c19.333 2 57.6689 2.00293 115.002 0.00292969c44.667 -1.33301 79.334 0 104.001 4c8 1.33301 15.5 -0.5 22.5 -5.5s11.167 -11.5 12.5 -19.5s-0.5 -15.5 -5.5 -22.5s-11.5 -11.167 -19.5 -12.5c-20.667 -3.33301 -43.667 -5 -69 -5l-32 -85l-32 -78l-36 -87
l-33 -79c-8.66699 -20.667 -15.667 -36.667 -21 -48c-5.33301 -12.667 -10 -22.667 -14 -30c-2.66699 -4.66699 -5.33398 -8.66699 -8.00098 -12c-2 -2.66699 -4 -5 -6 -7c-5.33301 -4.66699 -11.333 -7.66699 -18 -9c-10.667 -1.33301 -20.334 2 -29.001 10
c-4 2.66699 -8 6.66699 -12 12c-6 7.33301 -12.333 17.333 -19 30c-8.66699 15.333 -17 31.333 -25 48c-19.333 40.667 -42 98.667 -68 174c-26.667 77.333 -46.334 131 -59.001 161c-42 0.666992 -67.333 1 -76 1c-8 0 -15 3 -21 9s-9 13 -9 21s3 15 9 21s13 9 21 9
c13.333 0 34 -0.166992 62 -0.5s50.167 -0.5 66.5 -0.5s36 0.5 59 1.5s43.833 2.83301 62.5 5.5c8 0.666992 15.333 -1.5 22 -6.5s10.5 -11.5 11.5 -19.5s-1 -15.333 -6 -22s-11.5 -10.667 -19.5 -12c-33.333 -4 -72.666 -6.33301 -117.999 -7c6 -14.667 23 -61.667 51 -141
c26 -73.333 48 -129.333 66 -168c7.33301 -15.333 15 -30 23 -44l19 46c73.333 177.333 115 280.333 125 309c-40 1.33301 -70 1 -90 -1c-8.66699 -0.666992 -16.167 1.66602 -22.5 6.99902s-9.83301 12.166 -10.5 20.499s1.66602 15.666 6.99902 21.999s12 9.83301 20 10.5
z" />
    <glyph glyph-name="w" unicode="w" horiz-adv-x="915" 
d="M240 69l2.99707 10.9922c8 27.333 13 44 15 50c7.33301 28.667 23.333 83.334 48 164.001c20.667 66.667 36 120.334 46 161.001c2 8 6.5 14.167 13.5 18.5s14.5 5.5 22.5 3.5c0.666992 0 1.33398 -0.333008 2.00098 -1c8 2 15.333 0.833008 22 -3.5
s11 -10.166 13 -17.499l54 -211c13.333 -50.667 24.333 -91 33 -121c5.33301 -17.333 10 -31 14 -41l4 -12l1 -1l3 11c8 27.333 13 44 15 50c6 23.333 22 78 48 164c18.667 61.333 32.334 109 41.001 143c-7.33301 0 -24.166 0.166992 -50.499 0.5s-46.5 0.5 -60.5 0.5
c-8 0 -15 3 -21 9s-9 13 -9 21s3 15 9 21s13 9 21 9c14 0 40.667 -0.333008 80 -1s72 -0.666992 98 0s51.667 2.33398 77 5.00098c8 0.666992 15.167 -1.5 21.5 -6.5s10 -11.667 11 -20s-1 -15.666 -6 -21.999s-11.833 -10.166 -20.5 -11.499
c-26 -2.66699 -55.333 -4.33398 -88 -5.00098c-6.66699 -27.333 -22 -80.666 -46 -159.999l-47 -161l-15 -53l-10 -33c-2 -5.33301 -3.33301 -9.33301 -4 -12c-0.666992 -2 -1.33398 -3.66699 -2.00098 -5l-2 -4c-0.666992 -1.33301 -1.66699 -2.66602 -3 -3.99902
c-5.33301 -6 -11.666 -9.66699 -18.999 -11c-15.333 -2 -30.333 2.66699 -45 14c-5.33301 4.66699 -12.333 12 -21 22c-5.33301 6 -11 16.333 -17 31c-4 11.333 -8.66699 26.333 -14 45c-9.33301 30 -21 71 -35 123l-32 129l-25 -81l-47 -161l-15 -53l-10 -33
c-2 -5.33301 -3.33301 -9.33301 -4 -12c-0.666992 -2 -1.33398 -3.66699 -2.00098 -5l-2 -4c-0.666992 -1.33301 -1.66699 -2.66602 -3 -3.99902c-5.33301 -6 -11.666 -9.66699 -18.999 -11c-15.333 -2 -30.333 2.66699 -45 14c-5.33301 4.66699 -12.333 12 -21 22
c-5.33301 6 -11 16.333 -17 31c-4 11.333 -8.66699 26.333 -14 45c-9.33301 30 -21 71 -35 123l-51 204c-32 0.666992 -54 1 -66 1c-8 0 -15 3 -21 9s-9 13 -9 21s3 15 9 21s13 9 21 9c13.333 0 34 -0.166992 62 -0.5s50.167 -0.5 66.5 -0.5s36 0.5 59 1.5
s43.833 2.83301 62.5 5.5c8 0.666992 15.333 -1.5 22 -6.5s10.5 -11.5 11.5 -19.5s-1 -15.333 -6 -22s-11.5 -10.667 -19.5 -12c-36 -4.66699 -79.333 -7 -130 -7l48 -189c13.333 -50.667 24.333 -91 33 -121c5.33301 -17.333 10 -31 14 -41l4 -12z" />
    <glyph glyph-name="x" unicode="x" horiz-adv-x="740" 
d="M258 3c-98.667 -3.33301 -176.335 -3 -233.002 1c-8 0.666992 -14.833 4.16699 -20.5 10.5s-8.16699 13.5 -7.5 21.5s4.16699 14.833 10.5 20.5s13.5 8.16699 21.5 7.5c24.667 -2 50.334 -3 77.001 -3c1.33301 3.33301 3 6.66602 5 9.99902c6 8 23.667 33.667 53 77
c22.667 33.333 42.334 59.666 59.001 78.999l41 46l-24 33c-6 8 -14.667 18 -26 30l-29 32c-21.333 24 -36.333 47 -45 69h-91c-8 0 -15 3 -21 9s-9 13 -9 21s3 15 9 21s13 9 21 9c104.667 0 180.667 -1.33301 228 -4c8 -0.666992 14.833 -4 20.5 -10
s8.16699 -13.167 7.5 -21.5s-4 -15.333 -10 -21s-13.333 -8.16699 -22 -7.5c-20.667 1.33301 -42.334 2.33301 -65.001 3c5.33301 -8.66699 12.666 -18 21.999 -28l28 -31c12.667 -13.333 22.667 -25 30 -35l17 -23l110 118l-41 1c-8 0 -14.833 3.16699 -20.5 9.5
s-8.5 13.5 -8.5 21.5s3.16699 14.833 9.5 20.5s13.5 8.5 21.5 8.5c46.667 -1.33301 79 -2.33301 97 -3c6 5.33301 13 8 21 8s14.667 -3 20 -9c34.667 -0.666992 66.667 -1 96 -1c8 0 15 -3 21 -9s9 -13 9 -21s-3 -15 -9 -21s-13 -9 -21 -9c-33.333 0 -71 0.333008 -113 1
l-156 -164l146 -198c0.666992 -1.33301 1.66699 -2.66602 3 -3.99902c42.667 0 80.334 1 113.001 3c8.66699 0.666992 16 -1.83301 22 -7.5s9.33301 -12.667 10 -21s-1.83301 -15.5 -7.5 -21.5s-12.5 -9.33301 -20.5 -10c-36.667 -2 -119 -3 -247 -3c-8 0 -15 3 -21 9
s-9 13 -9 21s3 15 9 21s13 9 21 9h56l-115 156l-32 -37c-15.333 -17.333 -33.666 -41.666 -54.999 -72.999l-36 -53c20 0 46 0.666992 78 2c8 0 15.167 -2.83301 21.5 -8.5s9.5 -12.5 9.5 -20.5s-2.83301 -15.167 -8.5 -21.5s-12.5 -9.5 -20.5 -9.5z" />
    <glyph glyph-name="y" unicode="y" horiz-adv-x="728" 
d="M268 -11c-2 2.66699 -3.33496 5.6709 -4.00195 9.00391c-7.33301 20.667 -21.666 68.334 -42.999 143.001c-17.333 60.667 -31.666 107 -42.999 139c-5.33301 14.667 -16.666 41 -33.999 79c-12.667 28.667 -22.334 52 -29.001 70
c-10.667 0.666992 -27.334 1.16699 -50.001 1.5s-39.334 0.5 -50.001 0.5c-8 0 -15 3 -21 9s-9 13 -9 21s3 15 9 21s13 9 21 9c12.667 0 33.334 -0.333008 62.001 -1s51 -1 67 -1s35.167 1 57.5 3s42.166 5.33301 59.499 10c8 2 15.5 1 22.5 -3s11.5 -10.167 13.5 -18.5
s1 -16 -3 -23s-10.333 -11.5 -19 -13.5c-26.667 -7.33301 -58.667 -11.666 -96 -12.999c4.66699 -12 11.334 -27.667 20.001 -47c18 -40.667 29.667 -68.667 35 -84c12 -32.667 26.667 -80.334 44 -143.001l28 -96c19.333 39.333 39.333 84.666 60 135.999
c35.333 90 63.333 170.667 84 242c-46.667 0.666992 -74 1 -82 1s-15 3 -21 9s-9 13 -9 21s3 15 9 21s13 9 21 9c12 0 35.5 -0.166992 70.5 -0.5s64.333 -0.333008 88 0s46.834 1.16602 69.501 2.49902c8.66699 0.666992 16 -1.83301 22 -7.5s9.33301 -12.667 10 -21
s-1.83301 -15.5 -7.5 -21.5s-12.5 -9.33301 -20.5 -10c-25.333 -1.33301 -54.666 -2.33301 -87.999 -3c-19.333 -72.667 -49.666 -160.667 -90.999 -264c-56 -140.667 -102.333 -230.334 -139 -269.001c-31.333 -32 -71.666 -60 -120.999 -84
c-35.333 -16.667 -67 -22.334 -95 -17.001c-34 6 -60.667 26.667 -80 62c-0.666992 1.33301 -2 3.33301 -4 6c-2 4 -3.66699 7 -5 9c-5.33301 10.667 -7.66602 21 -6.99902 31c1.33301 15.333 8.66602 30.333 21.999 45c11.333 13.333 23.666 22.333 36.999 27
c10.667 4 20.667 4.66699 30 2c14 -4 23 -13.333 27 -28c4 -16 0 -38.333 -12 -67c-4 -8.66699 -10.667 -14.334 -20 -17.001c7.33301 -6 15 -9.66699 23 -11c15.333 -3.33301 34.666 0.666992 57.999 12c43.333 21.333 77.666 45.333 102.999 72
c9.33301 9.33301 19.333 23 30 41z" />
    <glyph glyph-name="z" unicode="z" horiz-adv-x="574" 
d="M71 321c-4.66699 20.667 -9.33008 42.9971 -13.9971 66.9971c-2.66699 16 -4.66699 29.333 -6 40c-1.33301 6.66699 -2 12.667 -2 18c0 7.33301 1 13.666 3 18.999c4 11.333 12 20 24 26c7.33301 4 16.666 7.33301 27.999 10c15.333 2.66699 36 4.33398 62 5.00098
c16.667 0.666992 37.667 0.333984 63 -0.999023c24 -0.666992 37.333 -1 40 -1s8.33398 0.166992 17.001 0.5s19.834 0.833008 33.501 1.5s25.5 1.33398 35.5 2.00098c22.667 0.666992 40 1.33398 52 2.00098h18c3.33301 0 6 -0.166992 8 -0.5s3.66699 -0.833008 5 -1.5
c7.33301 -1.33301 13.333 -5.66602 18 -12.999c6 -9.33301 7.33301 -20.666 4 -33.999c-2 -6 -5 -13 -9 -21c-6 -11.333 -15.333 -25 -28 -41c-22.667 -30 -40.667 -51.333 -54 -64l-70 -61l-73 -62c-17.333 -16 -37 -36 -59 -60s-40.333 -47.667 -55 -71
c30.667 -5.33301 85.667 -10 165 -14c42.667 -2 78 -2.66699 106 -2h25v2c0.666992 11.333 1.66699 27.333 3 48c0 10 0.333008 21.667 1 35s1.16699 24.333 1.5 33s0.5 14.334 0.5 17.001c0.666992 8 4.16699 14.833 10.5 20.5s13.5 8.16699 21.5 7.5
s14.833 -4.16699 20.5 -10.5s8.16699 -13.5 7.5 -21.5c0 -2.66699 -0.166992 -8.16699 -0.5 -16.5s-0.833008 -19 -1.5 -32s-1 -24.5 -1 -34.5c-1.33301 -21.333 -2.33301 -38.333 -3 -51c-0.666992 -7.33301 -1.33398 -13.333 -2.00098 -18c0 -2.66699 -0.333008 -5 -1 -7
c-0.666992 -5.33301 -2.66699 -10.333 -6 -15c-4.66699 -6.66699 -12 -11 -22 -13c-4 -1.33301 -9 -2.33301 -15 -3c-10 -0.666992 -23 -1 -39 -1c-28.667 -0.666992 -65 0 -109 2c-100.667 5.33301 -162.334 11 -185.001 17c-0.666992 0 -3.33398 0.666992 -8.00098 2
s-8.66699 2.33301 -12 3c-16 6 -26.333 16.333 -31 31c-4.66699 15.333 0 29.666 14 42.999l7 7h1c16 26 36.167 52.5 60.5 79.5s45.833 48.833 64.5 65.5l76 65l68 59c10 9.33301 25.333 28 46 56l11 14c-8 0 -17.333 -0.333008 -28 -1
c-12.667 -0.666992 -24.667 -1.33398 -36 -2.00098c-14.667 -0.666992 -26.334 -1.16699 -35.001 -1.5s-14.334 -0.5 -17.001 -0.5c-3.33301 0 -17.666 0.333008 -42.999 1c-24 1.33301 -44 1.66602 -60 0.999023c-22 0 -39 -1.33301 -51 -4
c-2.66699 -0.666992 -4.66699 -1.33398 -6 -2.00098v-5c1.33301 -9.33301 3.33301 -21.333 6 -36c4 -23.333 8.33301 -44.666 13 -63.999c2 -8 0.833008 -15.5 -3.5 -22.5s-10.5 -11.5 -18.5 -13.5s-15.5 -0.833008 -22.5 3.5s-11.5 10.5 -13.5 18.5z" />
    <glyph glyph-name="braceleft" unicode="{" horiz-adv-x="498" 
d="M363 610c-24 4 -42.3301 1.99902 -54.9971 -6.00098c-10 -6.66699 -18 -18.667 -24 -36c-2 -7.33301 -3.83301 -15.166 -5.5 -23.499s-2.83398 -18 -3.50098 -29s-1.16699 -19.833 -1.5 -26.5s-0.5 -17.334 -0.5 -32.001v-28v-19v-20c0 -17.333 -0.666992 -32.333 -2 -45
c-4.66699 -40.667 -17.334 -71 -38.001 -91c-2.66699 -2.66699 -6 -5.33398 -10 -8.00098l8 -16c6.66699 -13.333 11.334 -23 14.001 -29c5.33301 -12.667 8.66602 -22 9.99902 -28c3.33301 -21.333 4.66602 -54.666 3.99902 -99.999c-0.666992 -46 0 -78 2 -96
c3.33301 -29.333 11 -50.666 23 -63.999c13.333 -16 35 -24.333 65 -25c8 0 14.833 -3.16699 20.5 -9.5s8.5 -13.5 8.5 -21.5s-3.16699 -14.833 -9.5 -20.5s-13.5 -8.5 -21.5 -8.5c-48 1.33301 -84.333 16.666 -109 45.999c-20 22.667 -32.333 54.667 -37 96
c-2 20.667 -2.66699 55.334 -2 104.001c0.666992 42 -0.666016 71.667 -3.99902 89c0 1.33301 -1.66699 5.66602 -5 12.999l-13 28l-14 28c-2 5.33301 -3.33301 9.33301 -4 12c-1.33301 2.66699 -2 5 -2 7c-1.33301 6 -1.33301 11.667 0 17
c4.66699 13.333 14.667 22.666 30 27.999l6 2c9.33301 10.667 15.333 28.334 18 53.001c1.33301 10.667 2 24 2 40v20v18v27c0 15.333 0.166992 26.833 0.5 34.5s1 18 2 31s2.5 24.833 4.5 35.5s4.33301 20.667 7 30c10 30.667 26.333 53.334 49 68.001
c25.333 16 57.666 21 96.999 15c8 -1.33301 14.5 -5.5 19.5 -12.5s6.83301 -14.5 5.5 -22.5s-5.5 -14.5 -12.5 -19.5s-14.5 -6.83301 -22.5 -5.5z" />
    <glyph glyph-name="bar" unicode="|" horiz-adv-x="390" 
d="M265 707c1.33301 -17.333 4.99707 -46.335 10.9971 -87.002c6 -41.333 9.66699 -72.333 11 -93c2 -7.33301 2.5 -30.166 1.5 -68.499s-1.5 -60.833 -1.5 -67.5s-1 -29 -3 -67s-3 -60 -3 -66c-1.33301 -34.667 0.333984 -92.334 5.00098 -173.001
c4.66699 -78.667 5.33398 -138.667 2.00098 -180c-1.33301 -12.667 -3.5 -31.834 -6.5 -57.501s-5.16699 -45.167 -6.5 -58.5c-0.666992 -8 -4.16699 -14.667 -10.5 -20s-13.666 -7.66602 -21.999 -6.99902s-15.166 4.16699 -20.499 10.5s-7.66602 13.833 -6.99902 22.5
c1.33301 12.667 3.5 31.834 6.5 57.501s5.16699 45.167 6.5 58.5c3.33301 39.333 2.66602 96 -2.00098 170c-5.33301 84 -7 143.667 -5 179c0.666992 7.33301 1.83398 29.833 3.50098 67.5s2.66699 59.5 3 65.5s0.833008 27.667 1.5 65s0 59 -2 65
c-1.33301 20.667 -4.66602 50 -9.99902 88c-6.66699 42 -10.667 72.667 -12 92c-0.666992 8 1.66602 15.167 6.99902 21.5s12.166 9.83301 20.499 10.5s15.666 -1.66602 21.999 -6.99902s9.83301 -12.333 10.5 -21z" />
    <glyph glyph-name="braceright" unicode="}" horiz-adv-x="461" 
d="M163 -108c24 -3.33301 42.3291 -0.668945 54.9961 7.99805c10 6.66699 17.667 18.667 23 36c4.66699 16.667 7.33398 38.5 8.00098 65.5s0.333984 51.833 -0.999023 74.5c-0.666992 44.667 -0.666992 72.667 0 84c4 40.667 16 71.334 36 92.001
c2.66699 3.33301 6.33398 6.33301 11.001 9l-9 8c-6.66699 7.33301 -11.667 13.666 -15 18.999c-3.33301 6.66699 -7 20 -11 40c-2.66699 14.667 -4.66699 26.667 -6 36c-2 16.667 -3 47.334 -3 92.001c0 38 -1.66699 66 -5 84c-4 24.667 -12 42.667 -24 54
c-13.333 13.333 -34.666 20 -63.999 20c-8 0 -15 3 -21 9s-9 13 -9 21s3 15 9 21s13 9 21 9c45.333 0 80.666 -12.333 105.999 -37c20.667 -20 34.334 -48.667 41.001 -86c4 -22 6 -53.833 6 -95.5s1 -69.5 3 -83.5c0.666992 -8 2.33398 -18.667 5.00098 -32
c2.66699 -14.667 4.66699 -22.667 6 -24l3 -4l14 -13c18 -19.333 24 -39 18 -59c-4 -13.333 -13.667 -23 -29 -29l-6 -3c-9.33301 -10 -15 -27.667 -17 -53c-0.666992 -9.33301 -0.666992 -35.666 0 -78.999c1.33301 -17.333 1.66602 -42.5 0.999023 -75.5
s-4.33398 -60.167 -11.001 -81.5c-8.66699 -31.333 -24 -54.333 -46 -69c-25.333 -17.333 -57.666 -23.333 -96.999 -18c-8 1.33301 -14.5 5.33301 -19.5 12s-7 14 -6 22s4.83301 14.5 11.5 19.5s14 7.16699 22 6.5z" />
    <glyph glyph-name="asciitilde" unicode="~" horiz-adv-x="678" 
d="M571 678c-50.667 -57.333 -99.6689 -86.9971 -147.002 -88.9971c-14 0 -28.5 2.33301 -43.5 7s-26.333 9 -34 13s-18.5 10.333 -32.5 19c-34 20 -59 29.667 -75 29c-29.333 -1.33301 -62.666 -24.333 -99.999 -69c-5.33301 -6.66699 -12.166 -10.334 -20.499 -11.001
s-15.666 1.66602 -21.999 6.99902s-9.83301 12.166 -10.5 20.499s1.66602 15.5 6.99902 21.5c48.667 58.667 96.334 89 143.001 91c13.333 0.666992 27.666 -1.33301 42.999 -6s26.666 -9 33.999 -13l32 -19c34 -20.667 59.667 -30.667 77 -30
c30 1.33301 64.333 24.333 103 69c6 6 13 9.33301 21 10s15.167 -1.83301 21.5 -7.5s9.83301 -12.5 10.5 -20.5s-1.66602 -15.333 -6.99902 -22z" />
    <glyph glyph-name="exclamdown" unicode="&#xa1;" horiz-adv-x="334" 
d="M234 336c-2.66699 -16.667 -4 -34.1699 -4 -52.5029s0.5 -39.833 1.5 -64.5s1.5 -44 1.5 -58c0 -92 -1.66699 -191.667 -5 -299c0 -8 -3.16699 -14.833 -9.5 -20.5s-13.5 -8.5 -21.5 -8.5s-14.833 3.16699 -20.5 9.5s-8.5 13.5 -8.5 21.5c3.33301 106 5 205 5 297
c0 10.667 -0.5 28.834 -1.5 54.501s-1.33301 48.834 -1 69.501s1.5 40.334 3.5 59.001c1.33301 8 5.33301 14.5 12 19.5s14 7 22 6s14.5 -4.83301 19.5 -11.5s7.16699 -14 6.5 -22zM230 452.997c0 -8 -3 -15 -9 -21s-13 -9 -21 -9s-15 3 -21 9s-9 13 -9 21s3 15 9 21
s13 9 21 9s15 -3 21 -9s9 -13 9 -21z" />
    <glyph glyph-name="cent" unicode="&#xa2;" horiz-adv-x="617" 
d="M283 142c0.666992 24 4.66699 111.672 12 263.005c2 39.333 1.66699 85 -1 137c-24 -4.66699 -46.333 -13.334 -67 -26.001s-36.667 -28.334 -48 -47.001c-18 -28.667 -27.667 -72.334 -29 -131.001c-0.666992 -58.667 7 -103 23 -133
c6.66699 -10.667 18 -21.334 34 -32.001s35 -19.334 57 -26.001c6 -2 12.333 -3.66699 19 -5zM350 604.005c35.333 -3.33301 66.6699 -14.334 94.0029 -33.001c24.667 -17.333 44.667 -44 60 -80c20 -48.667 14.667 -85.667 -16 -111
c-8.66699 -7.33301 -20.667 -11.333 -36 -12c-14 -1.33301 -26 1 -36 7c-19.333 11.333 -26.666 27.333 -21.999 48c3.33301 14.667 13.666 30 30.999 46c5.33301 4.66699 11.666 7 18.999 7c-10 21.333 -21.333 36.333 -34 45c-16 11.333 -34.667 18.666 -56 21.999
c2.66699 -53.333 3 -100 1 -140c-7.33301 -153.333 -11.333 -241.666 -12 -264.999c12 1.33301 22 4 30 8c18 10 33.5 25.667 46.5 47s26.167 48 39.5 80c3.33301 8 8.83301 13.5 16.5 16.5s15.334 3 23.001 0s13 -8.33301 16 -16s3.16699 -15.167 0.5 -22.5
c-6.66699 -16.667 -12.667 -30.5 -18 -41.5s-12.666 -24.833 -21.999 -41.5s-20.333 -31.334 -33 -44.001s-26.334 -22.667 -41.001 -30c-16.667 -9.33301 -36.667 -15 -60 -17c-0.666992 -34.667 -1 -68 -1 -100c0 -8 -3 -15 -9 -21s-13 -9 -21 -9s-15 3 -21 9s-9 13 -9 21
c0 32.667 0.333008 67.334 1 104.001c-11.333 2 -23 4.66699 -35 8c-27.333 8.66699 -52.333 20.5 -75 35.5s-39.334 32.5 -50.001 52.5c-22 38.667 -32.333 92.667 -31 162s13.666 123.333 36.999 162c16.667 26.667 39.667 48.834 69 66.501s60.666 29.167 93.999 34.5
c-2.66699 47.333 -4.33398 82 -5.00098 104c0 8 2.83301 15.167 8.5 21.5s12.5 9.5 20.5 9.5s15.167 -2.83301 21.5 -8.5s9.5 -12.5 9.5 -20.5c0.666992 -22 2.33398 -56.667 5.00098 -104z" />
    <glyph glyph-name="sterling" unicode="&#xa3;" horiz-adv-x="790" 
d="M259 80l-33.002 23.999l-28 19c-25.333 17.333 -46.666 26 -63.999 26c-25.333 0.666992 -43.666 -9.33301 -54.999 -30c-10.667 -18.667 -8.33398 -36.667 6.99902 -54c9.33301 -10 23.833 -16.167 43.5 -18.5s42.834 -0.166016 69.501 6.50098
c22.667 6 42.667 15 60 27zM521.998 339.999c-30.667 0.666992 -93.9932 -0.664062 -189.993 -3.99707c8 -22 14.333 -41.5 19 -58.5s9 -36.167 13 -57.5s5.16699 -42.166 3.5 -62.499s-5.83398 -39.5 -12.501 -57.5c31.333 -12.667 62 -21.667 92 -27
c57.333 -10 102.666 -5.66699 135.999 13c32.667 18 48.667 41 48 69c-0.666992 26 -13 49 -37 69c-22 19.333 -43 26 -63 20c-22.667 -6.66699 -38.667 -32 -48 -76c-1.33301 -8 -5.5 -14.333 -12.5 -19s-14.5 -6.16699 -22.5 -4.5s-14.333 6 -19 13s-6 14.5 -4 22.5
c13.333 68 43.333 108.667 90 122c40.667 12 80.334 1.33301 119.001 -32c36.667 -32 55.667 -70 57 -114c1.33301 -52 -24.667 -92.667 -78 -122c-46.667 -26 -105.667 -32.667 -177 -20c-38.667 7.33301 -77.667 19.333 -117 36c-28 -25.333 -62.667 -43.666 -104 -54.999
c-20.667 -6 -41 -9.33301 -61 -10s-40.5 2.16602 -61.5 8.49902s-37.833 16.833 -50.5 31.5c-17.333 18.667 -27 39.5 -29 62.5s2.66699 43.5 14 61.5c10 18.667 24.667 33.667 44 45c19.333 10.667 40.333 15.667 63 15c30 -0.666992 62.667 -13 98 -37l32 -23
c16 -11.333 28 -19.333 36 -24c5.33301 14 8.16602 29 8.49902 45s-1.66699 33.667 -6 53s-8.83301 36.5 -13.5 51.5s-11.667 34.833 -21 59.5c-69.333 -0.666992 -128.666 2 -177.999 8c-8 1.33301 -14.5 5.33301 -19.5 12s-7 14 -6 22s4.83301 14.5 11.5 19.5
s14 7.16699 22 6.5c44 -6 93.667 -8.66699 149 -8c-8.66699 24 -15 45.5 -19 64.5s-6.33301 39.667 -7 62s3.16602 43.666 11.499 63.999s21.166 39.166 38.499 56.499c18.667 17.333 45 30.333 79 39s68.333 11.667 103 9c23.333 -1.33301 45.166 -5.33301 65.499 -12
s39.166 -18 56.499 -34s28 -35.667 32 -59c4.66699 -32.667 -1.33301 -59.834 -18 -81.501s-36.667 -34.834 -60 -39.501c-12 -2 -24.333 -0.666992 -37 4s-20.667 15.334 -24 32.001c-4 22 8.33301 47 37 75c6 6 13 9 21 9s15 -3 21 -9c-2 14.667 -11.5 27.167 -28.5 37.5
s-40.167 16.5 -69.5 18.5c-28.667 1.33301 -55.834 -1.16699 -81.501 -7.5s-43.834 -14.833 -54.501 -25.5c-16 -14.667 -25.833 -32.5 -29.5 -53.5s-3.16699 -42.5 1.5 -64.5s13 -49.667 25 -83c110.667 3.33301 182 4.66602 214 3.99902c8 0 14.833 -3 20.5 -9
s8.5 -13.167 8.5 -21.5s-3 -15.333 -9 -21s-13.333 -8.5 -22 -8.5z" />
    <glyph glyph-name="currency" unicode="&#xa4;" horiz-adv-x="700" 
d="M507 494c5.33301 -6.66699 10 -13.3232 14 -19.9902c2 -3.33301 3.33301 -6.66602 4 -9.99902c7.33301 -4.66699 12 -11.334 14 -20.001c13.333 -82 2 -152 -34 -210c40 -48.667 65.667 -78.667 77 -90c5.33301 -6 8 -13.167 8 -21.5s-3 -15.333 -9 -21
s-13.167 -8.5 -21.5 -8.5s-15.5 3 -21.5 9c-14 14.667 -37.667 42.667 -71 84c-31.333 -29.333 -68 -49 -110 -59c-32 -7.33301 -64.833 -7.83301 -98.5 -1.5s-63.5 19.166 -89.5 38.499l-66 -74c-5.33301 -6.66699 -12.166 -10.334 -20.499 -11.001
s-15.666 1.66602 -21.999 6.99902s-9.83301 12.166 -10.5 20.499s1.66602 15.5 6.99902 21.5l69 79c-18.667 26.667 -31.334 58 -38.001 94c-12 71.333 5.66699 134.333 53 189c-3.33301 3.33301 -28 32.666 -74 87.999c-5.33301 6 -7.66602 13.167 -6.99902 21.5
s4.16699 15.166 10.5 20.499s13.666 7.66602 21.999 6.99902s15.166 -4.33398 20.499 -11.001c46 -54.667 70 -83.334 72 -86.001c16.667 11.333 34.334 21 53.001 29c35.333 15.333 74 21.333 116 18c41.333 -3.33301 78 -17 110 -41c44 43.333 71.667 71.666 83 84.999
c6 6 13 9.33301 21 10s15.167 -1.83301 21.5 -7.5s9.83301 -12.5 10.5 -20.5s-1.66602 -15.333 -6.99902 -22c-12.667 -14 -41.334 -43 -86.001 -87zM471 442.011c-16 24.667 -36 43.4971 -60 56.4971s-48.5 19.333 -73.5 19s-50.5 -5.16602 -76.5 -14.499
c-39.333 -16 -70 -41.167 -92 -75.5s-29 -73.166 -21 -116.499c8 -49.333 31.333 -85 70 -107c38 -22.667 79.667 -28.667 125 -18c46.667 10.667 83.667 37.334 111 80.001c28 42 36.667 97.667 26 167c-4 2 -7 5 -9 9z" />
    <glyph glyph-name="yen" unicode="&#xa5;" horiz-adv-x="810" 
d="M638 334c-40.667 4.66699 -110.328 6.99902 -208.995 6.99902c-3.33301 0 -6.66602 0.666992 -9.99902 2l-45 -55c0.666992 -12.667 1 -25.667 1 -39c126 -0.666992 222 3.33301 288 12c8 0.666992 15.333 -1.5 22 -6.5s10.5 -11.5 11.5 -19.5s-1 -15.333 -6 -22
s-11.5 -10.667 -19.5 -12c-68.667 -9.33301 -167.667 -13.333 -297 -12c-0.666992 -37.333 -2.66699 -80 -6 -128c71.333 -4 109.666 -6 114.999 -6c8 0 15 -3 21 -9s9 -13 9 -21s-3 -15 -9 -21s-13 -9 -21 -9c-21.333 0 -51.333 1.33301 -90 4
s-72.334 3.83398 -101.001 3.50098s-55 -3.83301 -79 -10.5c-8 -2 -15.667 -1 -23 3s-12 10 -14 18s-1 15.667 3 23s10 12 18 14c30.667 8 67.667 12 111 12c3.33301 48 5.33301 90.333 6 127h-25c-9.33301 0 -31.666 -0.333008 -66.999 -1s-65 -0.666992 -89 0
s-47.333 2.33398 -70 5.00098c-8 1.33301 -14.5 5.33301 -19.5 12s-7 14 -6 22s4.83301 14.5 11.5 19.5s14 7.16699 22 6.5c21.333 -2.66699 43 -4.33398 65 -5.00098s50 -0.666992 84 0s57 1 69 1h26v15c-4 2.66699 -7.33301 5.66699 -10 9l-40 61
c-39.333 4 -107.333 6 -204 6c-8 0 -15 3 -21 9s-9 13 -9 21s3 15 9 21s13 9 21 9c78.667 0 133 -1 163 -3c-56 88 -95 156.667 -117 206c-13.333 -1.33301 -23 -2.33301 -29 -3c-28.667 -2 -52.667 -2.66699 -72 -2c-8 0 -14.833 3.16699 -20.5 9.5s-8.5 13.5 -8.5 21.5
s3.16699 14.833 9.5 20.5s13.5 8.5 21.5 8.5c16.667 -0.666992 38.667 0 66 2c2.66699 0.666992 13 1.66699 31 3l41 3c62 3.33301 112 -2 150 -16c7.33301 -2.66699 12.666 -7.83398 15.999 -15.501s3.66602 -15.334 0.999023 -23.001s-7.83398 -13.167 -15.501 -16.5
s-15.5 -3.66602 -23.5 -0.999023c-26 10 -60.333 14.333 -103 13c28.667 -59.333 83.667 -150 165 -272c70.667 83.333 130.334 172.333 179.001 267c-2.66699 0 -9 -0.666992 -19 -2l-23 -2c-28.667 -2 -52.667 -2.66699 -72 -2c-8 0 -14.833 3.16699 -20.5 9.5
s-8.5 13.5 -8.5 21.5s3.16699 14.833 9.5 20.5s13.5 8.5 21.5 8.5c16.667 -0.666992 38.667 0 66 2c2.66699 0.666992 13 1.66699 31 3l41 3c62 3.33301 112 -2 150 -16c7.33301 -2.66699 12.666 -7.83398 15.999 -15.501s3.66602 -15.334 0.999023 -23.001
s-7.83398 -13.167 -15.501 -16.5s-15.5 -3.66602 -23.5 -0.999023c-22.667 8.66699 -51 13 -85 13c-35.333 -72.667 -75.666 -140.667 -120.999 -204c77.333 0 137.666 -2.33301 180.999 -7c8.66699 -1.33301 15.5 -5.16602 20.5 -11.499s7 -13.666 6 -21.999
s-4.66699 -15 -11 -20s-13.5 -7.16699 -21.5 -6.5z" />
    <glyph glyph-name="section" unicode="&#xa7;" horiz-adv-x="629" 
d="M252 390c-13.333 -15.333 -22.8359 -28.833 -28.5029 -40.5s-8.16699 -25.167 -7.5 -40.5c0.666992 -30.667 13.667 -53.334 39 -68.001c8.66699 -4.66699 18 -9 28 -13s22.5 -8.33301 37.5 -13s27.167 -8.66699 36.5 -12c16 -5.33301 31.667 -13 47 -23
c22.667 30.667 35 63.334 37 98.001c1.33301 20.667 -4.33398 36 -17.001 46c-11.333 9.33301 -32.666 18.333 -63.999 27c-3.33301 1.33301 -9.66602 3.33301 -18.999 6s-16.666 5 -21.999 7l-21 6c-8.66699 2.66699 -16.667 5.66699 -24 9s-14.666 7 -21.999 11z
M179.997 -12c2.66699 -4 5.66602 -8.00293 8.99902 -12.0029c17.333 -20.667 39.333 -37.334 66 -50.001c31.333 -15.333 66.333 -16 105 -2c38 14.667 64 38.667 78 72c12 28 7 57 -15 87s-50.667 51.333 -86 64c-5.33301 2 -16.333 5.5 -33 10.5s-31.5 10 -44.5 15
s-24.5 10.5 -34.5 16.5c-44.667 26 -67.667 65.333 -69 118c-1.33301 41.333 15 81.333 49 120c-7.33301 7.33301 -13.666 15.666 -18.999 24.999c-23.333 40 -32.333 78.333 -27 115c6 35.333 21.667 63 47 83s55.333 32 90 36c30.667 4 62 2 94 -6s58.667 -21 80 -39
c38.667 -32 58.667 -63.333 60 -94c0 -15.333 -4 -28.666 -12 -39.999s-17.667 -20 -29 -26c-6.66699 -3.33301 -13.667 -5.66602 -21 -6.99902s-15.666 -1.16602 -24.999 0.500977s-17.333 5.83398 -24 12.501c-12 12.667 -15 28 -9 46c4 12 12.667 24.333 26 37
c4 4 8.66699 6.66699 14 8c-5.33301 5.33301 -11.333 11 -18 17c-14.667 12 -33.834 21.167 -57.501 27.5s-47.167 7.83301 -70.5 4.5c-50.667 -6.66699 -79 -30 -85 -70c-4 -22 2.33301 -47 19 -75c2.66699 -4 5.5 -8 8.5 -12s6 -7.5 9 -10.5s7 -6 12 -9s9 -5.5 12 -7.5
s7.83301 -4.33301 14.5 -7l14 -6c2.66699 -1.33301 8 -3.16602 16 -5.49902s13.5 -4 16.5 -5s9.16699 -2.83301 18.5 -5.5s15.333 -4.33398 18 -5.00098c38.667 -11.333 66.667 -24 84 -38c28.667 -23.333 42 -55 40 -95c-2.66699 -48 -19.334 -92.333 -50.001 -133
c7.33301 -8 14 -16 20 -24c36 -48.667 43.667 -97.667 23 -147c-14 -32 -36.333 -58.5 -67 -79.5s-63.167 -33.167 -97.5 -36.5s-67.833 2 -100.5 16c-34 16.667 -62.667 38.334 -86 65.001c-35.333 42 -43 82.333 -23 121c6.66699 12.667 16.5 22.667 29.5 30
s26.5 9 40.5 5c19.333 -6 29.333 -19.667 30 -41c0 -14 -5 -30.333 -15 -49c-5.33301 -9.33301 -13.666 -14.333 -24.999 -15z" />
    <glyph glyph-name="copyright" unicode="&#xa9;" horiz-adv-x="832" 
d="M711 216c-10 -79.333 -45 -142.999 -105 -190.999s-130.333 -72 -211 -72h-15h-17c-2.66699 0 -8 0.166992 -16 0.5s-14 0.666016 -18 0.999023s-9.66699 1 -17 2s-13.5 2.16699 -18.5 3.5s-10.667 3 -17 5s-12.166 4.33301 -17.499 7
c-49.333 22 -92.833 57.5 -130.5 106.5s-64.334 103.333 -80.001 163s-17.5 115.5 -5.5 167.5c14.667 66.667 53 127.667 115 183c45.333 40 93.333 67.333 144 82c51.333 15.333 100.5 19 147.5 11s90.5 -25.333 130.5 -52c61.333 -41.333 105.333 -98.5 132 -171.5
s28 -151.167 4 -234.5c-1.33301 -4 -3 -7.66699 -5 -11zM475 440.001c-18.667 30.667 -41.666 48.334 -68.999 53.001c-26 4.66699 -52.333 -1.66602 -79 -18.999c-27.333 -18 -48.666 -43 -63.999 -75s-20 -65.333 -14 -100c6.66699 -35.333 21.667 -64 45 -86
s49.666 -35 78.999 -39c28 -4 53.333 1.66699 76 17s38 40.666 46 75.999c2 8 6.5 14.167 13.5 18.5s14.5 5.5 22.5 3.5s14.167 -6.5 18.5 -13.5s5.5 -14.5 3.5 -22.5c-11.333 -50 -34.833 -87 -70.5 -111s-74.834 -33 -117.501 -27c-42 5.33301 -79.333 23.5 -112 54.5
s-53.334 70.833 -62.001 119.5c-9.33301 46.667 -3.66602 91.667 17.001 135s49.667 77 87 101c40 25.333 80 34.666 120 27.999c26 -4.66699 49.667 -15.667 71 -33c1.33301 6.66699 3 13.334 5 20.001c2.66699 8 7.66699 13.833 15 17.5s15 4.33398 23 2.00098
s13.833 -7.16602 17.5 -14.499s4.5 -15 2.5 -23c-3.33301 -10.667 -5.83301 -22.667 -7.5 -36s-2.66699 -24 -3 -32s-0.333008 -21.833 0 -41.5s0.5 -32.834 0.5 -39.501c0 -8 -3 -15 -9 -21s-13 -9 -21 -9s-15 3 -21 9s-9 13 -9 21c0 6 -0.166992 16.167 -0.5 30.5
s-0.5 25.166 -0.5 32.499c-0.666992 1.33301 -1.66699 2.66602 -3 3.99902zM658.001 243.001c20.667 71.333 19.8311 137.335 -2.50195 198.002s-58.833 108 -109.5 142c-32.667 22 -68 36.333 -106 43s-78.333 3.66699 -121 -9s-83 -35.667 -121 -69
c-52.667 -46.667 -85 -97 -97 -151c-9.33301 -44 -7.16602 -91.333 6.50098 -142s36.334 -96.834 68.001 -138.501s67.5 -71.834 107.5 -90.501c10 -4 22 -7.16699 36 -9.5s24.333 -3.5 31 -3.5h45c67.333 0 125 19.333 173 58s75.667 90 83 154c0.666992 6 3 11.333 7 16v2
z" />
    <glyph glyph-name="guillemotleft" unicode="&#xab;" horiz-adv-x="415" 
d="M105 105c-1.33301 10.667 -13.668 37.333 -37.001 80c-11.333 20.667 -19.333 37.334 -24 50.001c-8 20.667 -10.667 38.667 -8 54c4 22 17 49.667 39 83c4.66699 7.33301 12.334 18.5 23.001 33.5s18 26.167 22 33.5c4.66699 6.66699 11 11 19 13
s15.5 0.833008 22.5 -3.5s11.5 -10.5 13.5 -18.5s1 -15.667 -3 -23l-24 -33l-23 -35c-17.333 -26 -27 -46 -29 -60c-1.33301 -4.66699 0 -12.334 4 -23.001c4 -10 11 -24 21 -42c26 -48.667 40.667 -81.667 44 -99c1.33301 -8 -0.5 -15.5 -5.5 -22.5
s-11.5 -11.167 -19.5 -12.5s-15.5 0.5 -22.5 5.5s-11.167 11.5 -12.5 19.5zM255.998 94.999c-0.666992 3.33301 -1.49805 6.33008 -2.49805 8.99707s-2 5.5 -3 8.5s-2 5.5 -3 7.5s-2.33301 4.83301 -4 8.5s-2.83398 6.16699 -3.50098 7.5s-2.33398 4 -5.00098 8
s-4.33398 6.66699 -5.00098 8s-2.66699 4.5 -6 9.5s-5.33301 8.16699 -6 9.5c-2 2.66699 -6 8.33398 -12 17.001c-6.66699 8.66699 -11.667 16 -15 22c-14.667 23.333 -21 44.333 -19 63c2 20.667 12.667 49.334 32 86.001l21 36c9.33301 16 15.333 27 18 33
c4 8 9.83301 13.167 17.5 15.5s15.334 1.66602 23.001 -2.00098s12.667 -9.33398 15 -17.001s1.83301 -15.167 -1.5 -22.5c-3.33301 -6.66699 -9.66602 -18 -18.999 -34l-21 -37c-15.333 -29.333 -23.666 -50.666 -24.999 -63.999
c-0.666992 -5.33301 2.66602 -13.666 9.99902 -24.999c2.66699 -4.66699 7 -11 13 -19c6.66699 -10 11 -16.667 13 -20c1.33301 -1.33301 3.66602 -4.66602 6.99902 -9.99902l7 -11c1.33301 -2 3.5 -5.5 6.5 -10.5s5.16699 -8.83301 6.5 -11.5l5 -11
c2.66699 -4.66699 4.66699 -9 6 -13l4 -12c2 -5.33301 3.33301 -10.333 4 -15c2 -8 0.833008 -15.5 -3.5 -22.5s-10.5 -11.5 -18.5 -13.5s-15.5 -0.833008 -22.5 3.5s-11.5 10.5 -13.5 18.5z" />
    <glyph glyph-name="registered" unicode="&#xae;" horiz-adv-x="555" 
d="M389 522c12 50.667 7.16895 92.002 -14.498 124.002s-52.834 52.667 -93.501 62s-79.167 5.5 -115.5 -11.5s-60.5 -44.833 -72.5 -83.5c-14.667 -45.333 -11.334 -86.333 9.99902 -123s52.333 -62.334 93 -77.001s79 -13.834 115 2.49902s60.667 48.833 74 97.5
c0.666992 3.33301 2 6.33301 4 9zM443.002 496.002c-8 -28 -19.3311 -52.333 -33.998 -73s-31 -36.834 -49 -48.501s-37.5 -20.167 -58.5 -25.5s-42 -7.16602 -63 -5.49902s-41.833 6.16699 -62.5 13.5c-54 19.333 -95.833 54.166 -125.5 104.499
s-34.834 106.833 -15.501 169.5c9.33301 28.667 23.5 53.5 42.5 74.5s40.333 36.333 64 46s49 16.334 76 20.001s52.5 2.16699 76.5 -4.5c56 -12.667 99.667 -42.167 131 -88.5s38.666 -103.833 21.999 -172.5c-0.666992 -4 -2 -7.33301 -4 -10zM205.004 627.002
c0.666992 -15.333 1.00098 -33 1.00098 -53c39.333 0 63 0.666992 71 2c10 2.66699 16.667 6.33398 20 11.001c4 5.33301 4.66699 13.666 2 24.999c-0.666992 4 -2 8 -4 12c-0.666992 1.33301 -1.33398 3 -2.00098 5c-4 1.33301 -10.667 2 -20 2
c-8.66699 0 -20.667 -0.333008 -36 -1c-4 -0.666992 -9.83301 -1.16699 -17.5 -1.5s-12.5 -0.833008 -14.5 -1.5zM230.005 453.002l-76.0029 -0.000976562c-10 0 -15 5 -15 15s5 15 15 15h21v143h-9c-4 0 -7.33301 1.66699 -10 5s-4 7 -4 11s1.66699 7.33301 5 10s7 4 11 4
s26.333 1.33301 67 4c16 0.666992 29 1 39 1c14 0 24.667 -1.66699 32 -5c6.66699 -3.33301 12.334 -10 17.001 -20c2.66699 -6 4.66699 -12 6 -18c4.66699 -20 2 -36.333 -8 -49c-5.33301 -7.33301 -13 -13.333 -23 -18c0.666992 -1.33301 1.33398 -6.33301 2.00098 -15
s1.33398 -15.667 2.00098 -21c2 -14 5 -23.667 9 -29c1.33301 -2 2.66602 -3.66699 3.99902 -5l2 4c6.66699 15.333 8.33398 28.333 5.00098 39c-0.666992 4 0 7.83301 2 11.5s5 6 9 7s7.83301 0.5 11.5 -1.5s6.16699 -5 7.5 -9c4 -18 1.66699 -37.333 -7 -58
c-5.33301 -13.333 -13 -21.333 -23 -24c-12 -2.66699 -23.667 3.33301 -35 18c-6.66699 9.33301 -11.667 23.666 -15 42.999l-3 34c-7.33301 -1.33301 -28.333 -1.66602 -63 -0.999023c-0.666992 -37.333 -1 -57.666 -1 -60.999h25c10 0 15 -5 15 -15s-5 -15 -15 -15z" />
    <glyph glyph-name="acute" unicode="&#xb4;" horiz-adv-x="509" 
d="M393 638c-16 -8 -41.001 -19.667 -75.001 -35s-57.667 -26.333 -71 -33c-7.33301 -4 -15 -4.83301 -23 -2.5s-13.833 7.16602 -17.5 14.499s-4.33398 15 -2.00098 23s7.16602 13.667 14.499 17c17.333 9.33301 42.333 21.333 75 36s56.334 26 71.001 34
c7.33301 3.33301 15 3.83301 23 1.5s13.833 -7.16602 17.5 -14.499s4.33398 -15 2.00098 -23s-7.16602 -14 -14.499 -18z" />
    <glyph glyph-name="uni00B5" unicode="&#xb5;" horiz-adv-x="539" 
d="M439 456c-4.66699 -48.667 -6.33398 -118.331 -5.00098 -208.998c1.33301 -107.333 1 -179.333 -1 -216c-0.666992 -8 -4.16699 -14.833 -10.5 -20.5s-13.5 -8.16699 -21.5 -7.5s-14.833 4.16699 -20.5 10.5s-8.16699 13.5 -7.5 21.5l2 44
c-8.66699 -13.333 -17 -25 -25 -35c-26 -29.333 -55.333 -47.166 -88 -53.499s-62.667 -2.5 -90 11.5c-25.333 11.333 -49 28 -71 50c1.33301 -95.333 2 -159 2 -191c0 -8 -3 -15 -9 -21s-13 -9 -21 -9s-15 3 -21 9s-9 13 -9 21c0 32 -0.5 92 -1.5 180
s-1.16699 155.667 -0.5 203c0 24 1.66699 60.667 5 110s5 85 5 107c0 8 3 15 9 21s13 9 21 9s15 -3 21 -9s9 -13 9 -21c0 -25.333 -1.66699 -62.333 -5 -111s-5 -84 -5 -106v-82c1.33301 -2 2.66602 -4.33301 3.99902 -7c8.66699 -21.333 21.334 -41 38.001 -59
s34.334 -31 53.001 -39c40.667 -18 76.667 -9 108 27c8 8.66699 19.667 25.667 35 51c14 23.333 26.333 41 37 53c-0.666992 1.33301 -1.33398 20.666 -2.00098 57.999c-1.33301 90.667 0.333984 162.667 5.00098 216c0.666992 8 4.33398 14.667 11.001 20
s14 7.66602 22 6.99902s14.667 -4.33398 20 -11.001s7.66602 -14 6.99902 -22z" />
    <glyph glyph-name="paragraph" unicode="&#xb6;" horiz-adv-x="625" 
d="M377 -83c-4.66699 154 -2.00098 380.001 7.99902 678.001c-16.667 0 -32 0.666992 -46 2c-5.33301 0.666992 -27 3 -65 7c-10 -298.667 -12.667 -524.334 -8 -677.001c0 -8 -2.83301 -15.167 -8.5 -21.5s-12.5 -9.5 -20.5 -9.5s-15.167 2.83301 -21.5 8.5
s-9.5 12.5 -9.5 20.5c-3.33301 112.667 -3.66602 242.667 -0.999023 390c-55.333 2 -101.333 16 -138 42c-48.667 35.333 -69 84.666 -61 147.999c7.33301 52.667 32.666 94.334 75.999 125.001c15.333 10.667 32 19.167 50 25.5s37.5 9.83301 58.5 10.5
s38.167 0.833984 51.5 0.500977s31.833 -1.83301 55.5 -4.5s38.834 -4.33398 45.501 -5.00098c28 -0.666992 44.5 -1.16699 49.5 -1.5s21.5 0.166992 49.5 1.5s45.333 2 52 2c8 0 15.167 -2.83301 21.5 -8.5s9.5 -12.5 9.5 -20.5s-2.83301 -15.167 -8.5 -21.5
s-12.5 -9.5 -20.5 -9.5c-3.33301 0 -20.333 -0.666992 -51 -2c-10 -299.333 -12.667 -525.333 -8 -678c0 -8 -2.83301 -15.167 -8.5 -21.5s-12.5 -9.5 -20.5 -9.5s-15.167 2.83301 -21.5 8.5s-9.5 12.5 -9.5 20.5z" />
    <glyph glyph-name="guillemotright" unicode="&#xbb;" horiz-adv-x="399" 
d="M221 433c0.666992 -3.33301 1.32812 -6.33398 1.99512 -9.00098s1.66699 -5.5 3 -8.5s2.33301 -5.5 3 -7.5s1.83398 -4.83301 3.50098 -8.5s2.83398 -6.16699 3.50098 -7.5s2.16699 -4.16602 4.5 -8.49902s4 -7.16602 5 -8.49902s3 -4.5 6 -9.5
s4.83301 -8.16699 5.5 -9.5l11 -17c6 -9.33301 10.667 -17.333 14 -24c13.333 -23.333 19 -44.333 17 -63c-3.33301 -22 -14.666 -50 -33.999 -84l-23 -36c-10 -16 -16.667 -27 -20 -33c-4 -7.33301 -10 -12 -18 -14s-15.667 -1 -23 3s-12 10 -14 18s-1 15.667 3 23
c3.33301 6 10 17 20 33l23 36c16 27.333 24.667 48 26 62c0.666992 5.33301 -2.33301 14 -9 26c-2.66699 5.33301 -6.66699 12 -12 20c-6.66699 10 -11 16.667 -13 20c-0.666992 1.33301 -2.66699 4.66602 -6 9.99902s-5.5 9 -6.5 11s-3 5.5 -6 10.5s-5 8.83301 -6 11.5
s-2.66699 6.5 -5 11.5s-4.16602 9.33301 -5.49902 13s-2.66602 8 -3.99902 13s-2.33301 9.83301 -3 14.5c-2 8 -0.666992 15.5 4 22.5s11 11.333 19 13s15.5 0.166992 22.5 -4.5s11.167 -11 12.5 -19zM95.9941 430.999c0.666992 -3.33301 1.32812 -6.33398 1.99512 -9.00098
s1.66699 -5.5 3 -8.5s2.33301 -5.5 3 -7.5s1.83398 -4.83301 3.50098 -8.5s2.83398 -6.16699 3.50098 -7.5s2.16699 -4.16602 4.5 -8.49902s4 -7.16602 5 -8.49902s3 -4.5 6 -9.5s4.83301 -8.16699 5.5 -9.5l11 -17c6 -9.33301 10.667 -17.333 14 -24
c13.333 -23.333 19 -44.333 17 -63c-3.33301 -22 -14.666 -50 -33.999 -84l-23 -36c-10 -16 -16.667 -27 -20 -33c-4 -7.33301 -10 -12 -18 -14s-15.667 -1 -23 3s-12 10 -14 18s-1 15.667 3 23c3.33301 6 10 17 20 33l23 36c16 27.333 24.667 48 26 62
c0.666992 5.33301 -2.33301 14 -9 26c-2.66699 5.33301 -6.66699 12 -12 20c-6.66699 10 -11 16.667 -13 20c-0.666992 1.33301 -2.66699 4.66602 -6 9.99902s-5.5 9 -6.5 11s-3 5.5 -6 10.5s-5 8.83301 -6 11.5s-2.66699 6.5 -5 11.5s-4.16602 9.33301 -5.49902 13
s-2.66602 8 -3.99902 13s-2.33301 9.83301 -3 14.5c-2 8 -0.666992 15.5 4 22.5s11 11.333 19 13s15.5 0.166992 22.5 -4.5s11.167 -11 12.5 -19z" />
    <glyph glyph-name="questiondown" unicode="&#xbf;" horiz-adv-x="612" 
d="M377 34c0 0.666992 -0.176758 0.99707 -0.509766 0.99707s-0.666016 0.166992 -0.999023 0.5s-1.16602 1 -2.49902 2s-3 2.5 -5 4.5c-14 11.333 -20.333 24.333 -19 39s9.33301 26.334 24 35.001c6.66699 4 15 7 25 9c22.667 5.33301 43 2 61 -10
c14.667 -9.33301 26.334 -23.333 35.001 -42c11.333 -24.667 17.333 -53.667 18 -87c0.666992 -41.333 -19.666 -75.333 -60.999 -102c-28 -18.667 -59.667 -32.667 -95 -42c-34.667 -10 -69.667 -13.667 -105 -11c-38 2.66699 -72.333 13 -103 31
c-30.667 18.667 -54.667 45.334 -72 80.001c-9.33301 19.333 -15.666 33.666 -18.999 42.999c-9.33301 26.667 -11.666 48.667 -6.99902 66c10 34 26 61.5 48 82.5s49 40.5 81 58.5l22 12l21 10l16.5 10.5c7 4.33301 12.333 7.83301 16 10.5s7.66699 5.83398 12 9.50098
s8 7.5 11 11.5s5.5 8 7.5 12c2.66699 5.33301 6.33398 23 11.001 53c1.33301 8 5.5 14.5 12.5 19.5s14.5 6.83301 22.5 5.5s14.5 -5.5 19.5 -12.5s6.83301 -14.5 5.5 -22.5c-6 -35.333 -11.667 -58.333 -17 -69c-4.66699 -10 -10.667 -19.333 -18 -28
s-17 -17.334 -29 -26.001l-26 -17c-4.66699 -3.33301 -15.334 -9.33301 -32.001 -18s-25.334 -13.334 -26.001 -14.001c-27.333 -15.333 -49.166 -30.666 -65.499 -45.999s-27.833 -34.666 -34.5 -57.999c-1.33301 -5.33301 0.333984 -15 5.00098 -29
c2.66699 -8 8.33398 -20.667 17.001 -38c22.667 -47.333 64.334 -73 125.001 -77c58.667 -4 113.334 10.333 164.001 43c22 14.667 33 32 33 52c0 24.667 -4 45.334 -12 62.001c-3.33301 7.33301 -7.33301 12.666 -12 15.999c4.66699 -12.667 2 -23.667 -8 -33
c-6.66699 -5.33301 -14 -7.66602 -22 -6.99902s-15 4 -21 10zM349.99 435.997c0 -8 -3 -15 -9 -21s-13 -9 -21 -9s-15 3 -21 9s-9 13 -9 21s3 15 9 21s13 9 21 9s15 -3 21 -9s9 -13 9 -21z" />
    <glyph glyph-name="Agrave" unicode="&#xc0;" horiz-adv-x="851" 
d="M255 291c66.667 6.66699 138.666 10.332 215.999 10.999l-16 50c-24 74.667 -43.333 131.334 -58 170.001c-8.66699 24 -16 42.667 -22 56c-3.33301 6.66699 -6 11.667 -8 15v1c-1.33301 0 -2.16602 0.166992 -2.49902 0.5s-0.166016 0.833008 0.500977 1.5
c-4 -2.66699 -8.33301 -9 -13 -19c-4.66699 -9.33301 -9.66699 -22.333 -15 -39c-7.33301 -22 -11.333 -34.333 -12 -37c-9.33301 -23.333 -23 -63.666 -41 -120.999c-12.667 -40.667 -22.334 -70.334 -29.001 -89.001zM231.999 228.998
c-2.66699 -6.66699 -14.9941 -34.0049 -36.9941 -82.0049c-14.667 -33.333 -25.667 -61.333 -33 -84h147c8 0 15 -3 21 -9s9 -13 9 -21s-3 -15 -9 -21s-13 -9 -21 -9h-291c-8 0 -15 3 -21 9s-9 13 -9 21s3 15 9 21s13 9 21 9h81c8.66699 29.333 22.667 65.333 42 108
c24.667 56 39.667 91 45 105c9.33301 24.667 22.666 65.334 39.999 122.001c17.333 54.667 31.666 96.334 42.999 125.001c0.666992 1.33301 4.33398 12.333 11.001 33c6 20 12 36 18 48c10 20.667 22.333 35 37 43c21.333 12.667 43.666 11.334 66.999 -3.99902
c5.33301 -4 10.666 -10 15.999 -18c3.33301 -6 7 -13.333 11 -22c7.33301 -14.667 15.666 -34.667 24.999 -60c14 -39.333 33.333 -97 58 -173l24 -74l24 -76l20 -61l18 -53l11 -32c2 -3.33301 3 -7 3 -11c34.667 -1.33301 72 -3.66602 112 -6.99902
c8 -0.666992 14.667 -4.16699 20 -10.5s7.66602 -13.666 6.99902 -21.999s-4.16699 -15.166 -10.5 -20.499s-13.833 -7.66602 -22.5 -6.99902c-118.667 10.667 -223.334 10.334 -314.001 -0.999023c-8.66699 -0.666992 -16.167 1.5 -22.5 6.5s-10 11.667 -11 20
s1 15.666 6 21.999s11.5 10.166 19.5 11.499c46.667 5.33301 97.667 8.33301 153 9c-10 25.333 -29.667 84.666 -59 177.999c-94 0 -180 -4.33301 -258 -13zM306.005 844.993c38 -28 89.6689 -59.001 155.002 -93.001c7.33301 -4 12.166 -10 14.499 -18
s1.66602 -15.667 -2.00098 -23s-9.5 -12.166 -17.5 -14.499s-15.667 -1.83301 -23 1.5c-68 36 -122.333 69 -163 99c-6.66699 4.66699 -10.5 11.167 -11.5 19.5s0.833008 15.833 5.5 22.5s11.167 10.5 19.5 11.5s15.833 -0.833008 22.5 -5.5z" />
    <glyph glyph-name="Aacute" unicode="&#xc1;" horiz-adv-x="851" 
d="M255 291c66.667 6.66699 138.666 10.332 215.999 10.999l-16 50c-24 74.667 -43.333 131.334 -58 170.001c-8.66699 24 -16 42.667 -22 56c-3.33301 6.66699 -6 11.667 -8 15v1c-1.33301 0 -2.16602 0.166992 -2.49902 0.5s-0.166016 0.833008 0.500977 1.5
c-4 -2.66699 -8.33301 -9 -13 -19c-4.66699 -9.33301 -9.66699 -22.333 -15 -39c-7.33301 -22 -11.333 -34.333 -12 -37c-9.33301 -23.333 -23 -63.666 -41 -120.999c-12.667 -40.667 -22.334 -70.334 -29.001 -89.001zM231.999 228.998
c-2.66699 -6.66699 -14.9941 -34.0049 -36.9941 -82.0049c-14.667 -33.333 -25.667 -61.333 -33 -84h147c8 0 15 -3 21 -9s9 -13 9 -21s-3 -15 -9 -21s-13 -9 -21 -9h-291c-8 0 -15 3 -21 9s-9 13 -9 21s3 15 9 21s13 9 21 9h81c8.66699 29.333 22.667 65.333 42 108
c24.667 56 39.667 91 45 105c9.33301 24.667 22.666 65.334 39.999 122.001c17.333 54.667 31.666 96.334 42.999 125.001c0.666992 1.33301 4.33398 12.333 11.001 33c6 20 12 36 18 48c10 20.667 22.333 35 37 43c21.333 12.667 43.666 11.334 66.999 -3.99902
c5.33301 -4 10.666 -10 15.999 -18c3.33301 -6 7 -13.333 11 -22c7.33301 -14.667 15.666 -34.667 24.999 -60c14 -39.333 33.333 -97 58 -173l24 -74l24 -76l20 -61l18 -53l11 -32c2 -3.33301 3 -7 3 -11c34.667 -1.33301 72 -3.66602 112 -6.99902
c8 -0.666992 14.667 -4.16699 20 -10.5s7.66602 -13.666 6.99902 -21.999s-4.16699 -15.166 -10.5 -20.499s-13.833 -7.66602 -22.5 -6.99902c-118.667 10.667 -223.334 10.334 -314.001 -0.999023c-8.66699 -0.666992 -16.167 1.5 -22.5 6.5s-10 11.667 -11 20
s1 15.666 6 21.999s11.5 10.166 19.5 11.499c46.667 5.33301 97.667 8.33301 153 9c-10 25.333 -29.667 84.666 -59 177.999c-94 0 -180 -4.33301 -258 -13zM454.005 773.993c-42.667 -14.667 -96.001 -42.001 -160.001 -82.001c-7.33301 -4 -15 -5 -23 -3
s-14.167 6.5 -18.5 13.5s-5.5 14.5 -3.5 22.5s6.33301 14.333 13 19c68 41.333 125.333 70 172 86c8 2.66699 15.667 2.33398 23 -0.999023s12.333 -9 15 -17s2.33398 -15.667 -0.999023 -23s-9 -12.333 -17 -15z" />
    <glyph glyph-name="Acircumflex" unicode="&#xc2;" horiz-adv-x="851" 
d="M255 291c66.667 6.66699 138.666 10.332 215.999 10.999l-16 50c-24 74.667 -43.333 131.334 -58 170.001c-8.66699 24 -16 42.667 -22 56c-3.33301 6.66699 -6 11.667 -8 15v1c-1.33301 0 -2.16602 0.166992 -2.49902 0.5s-0.166016 0.833008 0.500977 1.5
c-4 -2.66699 -8.33301 -9 -13 -19c-4.66699 -9.33301 -9.66699 -22.333 -15 -39c-7.33301 -22 -11.333 -34.333 -12 -37c-9.33301 -23.333 -23 -63.666 -41 -120.999c-12.667 -40.667 -22.334 -70.334 -29.001 -89.001zM231.999 228.998
c-2.66699 -6.66699 -14.9941 -34.0049 -36.9941 -82.0049c-14.667 -33.333 -25.667 -61.333 -33 -84h147c8 0 15 -3 21 -9s9 -13 9 -21s-3 -15 -9 -21s-13 -9 -21 -9h-291c-8 0 -15 3 -21 9s-9 13 -9 21s3 15 9 21s13 9 21 9h81c8.66699 29.333 22.667 65.333 42 108
c24.667 56 39.667 91 45 105c9.33301 24.667 22.666 65.334 39.999 122.001c17.333 54.667 31.666 96.334 42.999 125.001c0.666992 1.33301 4.33398 12.333 11.001 33c6 20 12 36 18 48c10 20.667 22.333 35 37 43c21.333 12.667 43.666 11.334 66.999 -3.99902
c5.33301 -4 10.666 -10 15.999 -18c3.33301 -6 7 -13.333 11 -22c7.33301 -14.667 15.666 -34.667 24.999 -60c14 -39.333 33.333 -97 58 -173l24 -74l24 -76l20 -61l18 -53l11 -32c2 -3.33301 3 -7 3 -11c34.667 -1.33301 72 -3.66602 112 -6.99902
c8 -0.666992 14.667 -4.16699 20 -10.5s7.66602 -13.666 6.99902 -21.999s-4.16699 -15.166 -10.5 -20.499s-13.833 -7.66602 -22.5 -6.99902c-118.667 10.667 -223.334 10.334 -314.001 -0.999023c-8.66699 -0.666992 -16.167 1.5 -22.5 6.5s-10 11.667 -11 20
s1 15.666 6 21.999s11.5 10.166 19.5 11.499c46.667 5.33301 97.667 8.33301 153 9c-10 25.333 -29.667 84.666 -59 177.999c-94 0 -180 -4.33301 -258 -13zM185.005 737.993c13.333 3.33301 25.0029 7.66895 35.0029 13.002s24 14.333 42 27l17 12l24 16
c24 14.667 45.333 20.667 64 18s46.667 -16 84 -40l37 -24l33 -21c7.33301 -4.66699 12 -11 14 -19s0.833008 -15.5 -3.5 -22.5s-10.5 -11.5 -18.5 -13.5s-15.333 -1 -22 3c-6 3.33301 -17.333 10.666 -34 21.999c-16 11.333 -28.667 19.666 -38 24.999
c-30 18.667 -50 28.667 -60 30c-4.66699 0.666992 -13 -2.66602 -25 -9.99902c-5.33301 -2.66699 -12 -7 -20 -13l-18 -13l-30 -20c-6.66699 -4 -16.334 -9 -29.001 -15s-25.334 -10.333 -38.001 -13c-8.66699 -2 -16.5 -0.833008 -23.5 3.5s-11.333 10.666 -13 18.999
s-0.333984 16 3.99902 23s10.5 11.167 18.5 12.5z" />
    <glyph glyph-name="Atilde" unicode="&#xc3;" horiz-adv-x="851" 
d="M255 291c66.667 6.66699 138.666 10.332 215.999 10.999l-16 50c-24 74.667 -43.333 131.334 -58 170.001c-8.66699 24 -16 42.667 -22 56c-3.33301 6.66699 -6 11.667 -8 15v1c-1.33301 0 -2.16602 0.166992 -2.49902 0.5s-0.166016 0.833008 0.500977 1.5
c-4 -2.66699 -8.33301 -9 -13 -19c-4.66699 -9.33301 -9.66699 -22.333 -15 -39c-7.33301 -22 -11.333 -34.333 -12 -37c-9.33301 -23.333 -23 -63.666 -41 -120.999c-12.667 -40.667 -22.334 -70.334 -29.001 -89.001zM231.999 228.998
c-2.66699 -6.66699 -14.9941 -34.0049 -36.9941 -82.0049c-14.667 -33.333 -25.667 -61.333 -33 -84h147c8 0 15 -3 21 -9s9 -13 9 -21s-3 -15 -9 -21s-13 -9 -21 -9h-291c-8 0 -15 3 -21 9s-9 13 -9 21s3 15 9 21s13 9 21 9h81c8.66699 29.333 22.667 65.333 42 108
c24.667 56 39.667 91 45 105c9.33301 24.667 22.666 65.334 39.999 122.001c17.333 54.667 31.666 96.334 42.999 125.001c0.666992 1.33301 4.33398 12.333 11.001 33c6 20 12 36 18 48c10 20.667 22.333 35 37 43c21.333 12.667 43.666 11.334 66.999 -3.99902
c5.33301 -4 10.666 -10 15.999 -18c3.33301 -6 7 -13.333 11 -22c7.33301 -14.667 15.666 -34.667 24.999 -60c14 -39.333 33.333 -97 58 -173l24 -74l24 -76l20 -61l18 -53l11 -32c2 -3.33301 3 -7 3 -11c34.667 -1.33301 72 -3.66602 112 -6.99902
c8 -0.666992 14.667 -4.16699 20 -10.5s7.66602 -13.666 6.99902 -21.999s-4.16699 -15.166 -10.5 -20.499s-13.833 -7.66602 -22.5 -6.99902c-118.667 10.667 -223.334 10.334 -314.001 -0.999023c-8.66699 -0.666992 -16.167 1.5 -22.5 6.5s-10 11.667 -11 20
s1 15.666 6 21.999s11.5 10.166 19.5 11.499c46.667 5.33301 97.667 8.33301 153 9c-10 25.333 -29.667 84.666 -59 177.999c-94 0 -180 -4.33301 -258 -13zM200.005 755.993c18.667 36 44.999 56.3291 78.999 60.9961c19.333 2 46.333 -2.33301 81 -13
c22 -7.33301 38.167 -12.166 48.5 -14.499s22.333 -2.5 36 -0.5s25.834 8 36.501 18c6 6 13.167 8.66699 21.5 8s15.333 -4 21 -10s8.16699 -13.167 7.5 -21.5s-4 -15.166 -10 -20.499c-14 -12.667 -28.667 -22 -44 -28s-31.5 -8.33301 -48.5 -7s-30.333 3 -40 5
s-22.5 5.66699 -38.5 11c-3.33301 1.33301 -6 2.33301 -8 3c-26.667 8 -45.334 11.333 -56.001 10c-12.667 -1.33301 -24 -11 -34 -29c-3.33301 -7.33301 -9 -12.166 -17 -14.499s-15.667 -1.66602 -23 2.00098s-12.166 9.5 -14.499 17.5s-1.5 15.667 2.5 23z" />
    <glyph glyph-name="Adieresis" unicode="&#xc4;" horiz-adv-x="851" 
d="M255 291c66.667 6.66699 138.666 10.332 215.999 10.999l-16 50c-24 74.667 -43.333 131.334 -58 170.001c-8.66699 24 -16 42.667 -22 56c-3.33301 6.66699 -6 11.667 -8 15v1c-1.33301 0 -2.16602 0.166992 -2.49902 0.5s-0.166016 0.833008 0.500977 1.5
c-4 -2.66699 -8.33301 -9 -13 -19c-4.66699 -9.33301 -9.66699 -22.333 -15 -39c-7.33301 -22 -11.333 -34.333 -12 -37c-9.33301 -23.333 -23 -63.666 -41 -120.999c-12.667 -40.667 -22.334 -70.334 -29.001 -89.001zM231.999 228.998
c-2.66699 -6.66699 -14.9941 -34.0049 -36.9941 -82.0049c-14.667 -33.333 -25.667 -61.333 -33 -84h147c8 0 15 -3 21 -9s9 -13 9 -21s-3 -15 -9 -21s-13 -9 -21 -9h-291c-8 0 -15 3 -21 9s-9 13 -9 21s3 15 9 21s13 9 21 9h81c8.66699 29.333 22.667 65.333 42 108
c24.667 56 39.667 91 45 105c9.33301 24.667 22.666 65.334 39.999 122.001c17.333 54.667 31.666 96.334 42.999 125.001c0.666992 1.33301 4.33398 12.333 11.001 33c6 20 12 36 18 48c10 20.667 22.333 35 37 43c21.333 12.667 43.666 11.334 66.999 -3.99902
c5.33301 -4 10.666 -10 15.999 -18c3.33301 -6 7 -13.333 11 -22c7.33301 -14.667 15.666 -34.667 24.999 -60c14 -39.333 33.333 -97 58 -173l24 -74l24 -76l20 -61l18 -53l11 -32c2 -3.33301 3 -7 3 -11c34.667 -1.33301 72 -3.66602 112 -6.99902
c8 -0.666992 14.667 -4.16699 20 -10.5s7.66602 -13.666 6.99902 -21.999s-4.16699 -15.166 -10.5 -20.499s-13.833 -7.66602 -22.5 -6.99902c-118.667 10.667 -223.334 10.334 -314.001 -0.999023c-8.66699 -0.666992 -16.167 1.5 -22.5 6.5s-10 11.667 -11 20
s1 15.666 6 21.999s11.5 10.166 19.5 11.499c46.667 5.33301 97.667 8.33301 153 9c-10 25.333 -29.667 84.666 -59 177.999c-94 0 -180 -4.33301 -258 -13zM298.005 782.993c0 -8 -3 -15 -9 -21s-13 -9 -21 -9s-15 3 -21 9s-9 13 -9 21s3 15 9 21s13 9 21 9s15 -3 21 -9
s9 -13 9 -21zM483.005 777.993c0 -8 -3 -15 -9 -21s-13 -9 -21 -9s-15 3 -21 9s-9 13 -9 21s3 15 9 21s13 9 21 9s15 -3 21 -9s9 -13 9 -21z" />
    <glyph glyph-name="Aring" unicode="&#xc5;" horiz-adv-x="851" 
d="M255 291c66.667 6.66699 138.666 10.332 215.999 10.999l-16 50c-24 74.667 -43.333 131.334 -58 170.001c-8.66699 24 -16 42.667 -22 56c-3.33301 6.66699 -6 11.667 -8 15v1c-1.33301 0 -2.16602 0.166992 -2.49902 0.5s-0.166016 0.833008 0.500977 1.5
c-4 -2.66699 -8.33301 -9 -13 -19c-4.66699 -9.33301 -9.66699 -22.333 -15 -39c-7.33301 -22 -11.333 -34.333 -12 -37c-9.33301 -23.333 -23 -63.666 -41 -120.999c-12.667 -40.667 -22.334 -70.334 -29.001 -89.001zM231.999 228.998
c-2.66699 -6.66699 -14.9941 -34.0049 -36.9941 -82.0049c-14.667 -33.333 -25.667 -61.333 -33 -84h147c8 0 15 -3 21 -9s9 -13 9 -21s-3 -15 -9 -21s-13 -9 -21 -9h-291c-8 0 -15 3 -21 9s-9 13 -9 21s3 15 9 21s13 9 21 9h81c8.66699 29.333 22.667 65.333 42 108
c24.667 56 39.667 91 45 105c9.33301 24.667 22.666 65.334 39.999 122.001c17.333 54.667 31.666 96.334 42.999 125.001c0.666992 1.33301 4.33398 12.333 11.001 33c6 20 12 36 18 48c10 20.667 22.333 35 37 43c21.333 12.667 43.666 11.334 66.999 -3.99902
c5.33301 -4 10.666 -10 15.999 -18c3.33301 -6 7 -13.333 11 -22c7.33301 -14.667 15.666 -34.667 24.999 -60c14 -39.333 33.333 -97 58 -173l24 -74l24 -76l20 -61l18 -53l11 -32c2 -3.33301 3 -7 3 -11c34.667 -1.33301 72 -3.66602 112 -6.99902
c8 -0.666992 14.667 -4.16699 20 -10.5s7.66602 -13.666 6.99902 -21.999s-4.16699 -15.166 -10.5 -20.499s-13.833 -7.66602 -22.5 -6.99902c-118.667 10.667 -223.334 10.334 -314.001 -0.999023c-8.66699 -0.666992 -16.167 1.5 -22.5 6.5s-10 11.667 -11 20
s1 15.666 6 21.999s11.5 10.166 19.5 11.499c46.667 5.33301 97.667 8.33301 153 9c-10 25.333 -29.667 84.666 -59 177.999c-94 0 -180 -4.33301 -258 -13zM385.005 769.993c0 1.33301 -0.336914 3 -1.00391 5c-4.66699 17.333 -7 26.666 -7 27.999v2
c-11.333 16.667 -24.666 24 -39.999 22c-7.33301 -1.33301 -13.666 -5.66602 -18.999 -12.999s-7.33301 -18.666 -6 -33.999c0.666992 -10.667 5.83398 -19 15.501 -25s20.334 -7.83301 32.001 -5.5s20.167 9.16602 25.5 20.499zM443.001 785.993
c3.33301 -14.667 2.3291 -27.6621 -3.00391 -38.9951c-9.33301 -21.333 -24.166 -36.833 -44.499 -46.5s-40.666 -13.334 -60.999 -11.001s-38.666 11.166 -54.999 26.499s-25.5 34.666 -27.5 57.999c-2.66699 30.667 3.33301 56.167 18 76.5s34.334 32.166 59.001 35.499
c24 3.33301 46.5 -2.16699 67.5 -16.5s36.5 -35.5 46.5 -63.5c2.66699 -6.66699 2.66699 -13.334 0 -20.001z" />
    <glyph glyph-name="AE" unicode="&#xc6;" horiz-adv-x="1031" 
d="M484 605l-21 1.99902c-42.667 -73.333 -91 -152.333 -145 -237c40.667 2.66699 96 3.33398 166 2.00098h3c-2 98 -3 175.667 -3 233zM442 668.999c85.333 -6.66699 156.332 -9.66895 212.999 -9.00195c6.66699 0 14 0.5 22 1.5s18.5 2.83301 31.5 5.5
s23.167 4.33398 30.5 5.00098c44 7.33301 78.333 6 103 -4c26 -10.667 44.333 -23 55 -37c4 -5.33301 7 -13 9 -23c1.33301 -6 2.66602 -13.667 3.99902 -23c1.33301 -14.667 3 -34.334 5 -59.001c2 -34 3.66699 -67 5 -99c0 -8 -2.83301 -15.167 -8.5 -21.5
s-12.5 -9.5 -20.5 -9.5s-15.167 2.83301 -21.5 8.5s-9.5 12.5 -9.5 20.5c-1.33301 28.667 -3 61 -5 97c-1.33301 24 -3 42.667 -5 56c-0.666992 7.33301 -1.66699 13.333 -3 18v1c-4.66699 4.66699 -13.667 9.66699 -27 15c-14.667 6 -38.334 6.33301 -71.001 1
c-4.66699 -0.666992 -14.167 -2.33398 -28.5 -5.00098s-26.666 -4.66699 -36.999 -6s-19.833 -2 -28.5 -2c-34.667 -0.666992 -71.667 0 -111 2c0 -57.333 1 -137.666 3 -240.999c74.667 8.66699 123.334 12.667 146.001 12c0.666992 41.333 3.66699 77.333 9 108
c2 8.66699 6.33301 15.334 13 20.001s14.167 6.16699 22.5 4.5s14.833 -5.83398 19.5 -12.501s6.33398 -14 5.00098 -22c-5.33301 -26.667 -8.33301 -54.667 -9 -84s-0.333984 -65.166 0.999023 -107.499s2 -72.5 2 -90.5c0 -8 -3 -15 -9 -21s-13 -9 -21 -9s-15 3 -21 9
s-9 13 -9 21c0 15.333 -0.5 38 -1.5 68s-1.5 48.667 -1.5 56c-10.667 0.666992 -22.5 0.666992 -35.5 0s-24.333 -1.66699 -34 -3s-22.5 -3 -38.5 -5s-28.333 -3.33301 -37 -4c2 -102 3 -183.333 3 -244l105 -2l161 -3l50 -2c0 2.66699 0.333008 5.66699 1 9
c1.33301 15.333 2.33301 36.666 3 63.999v48c0 13.333 -0.166992 27 -0.5 41s-0.5 22.667 -0.5 26c0 8 3 15 9 21s13 9 21 9s15 -3 21 -9s9 -13 9 -21c0 -3.33301 0.166992 -12.166 0.5 -26.499s0.5 -28.166 0.5 -41.499v-48c-0.666992 -29.333 -1.66699 -52.666 -3 -69.999
c-1.33301 -11.333 -3 -20.666 -5 -27.999c-3.33301 -13.333 -9 -22.666 -17 -27.999c-4 -4 -10 -6 -18 -6h-1h-1h-2h-2h-14l-52 2l-161 3c-158.667 3.33301 -247 5 -265 5c-8 0 -15 3 -21 9s-9 13 -9 21s3 15 9 21s13 9 21 9c10.667 0 44.334 -0.666992 101.001 -2
c0 62 -1 146.667 -3 254h-6c-80 2 -142.667 0.666992 -188 -4c-5.33301 -0.666992 -10.333 0 -15 2l-97 -147l-41 -56c-12 -16 -21 -28.667 -27 -38h112c8 0 15 -3 21 -9s9 -13 9 -21s-3 -15 -9 -21s-13 -9 -21 -9h-262c-8 0 -15 3 -21 9s-9 13 -9 21s3 15 9 21s13 9 21 9
h84c0 5.33301 1.33301 10.666 4 15.999c8.66699 13.333 22.334 32.666 41.001 57.999s31.667 43.333 39 54c117.333 175.333 209.666 321 276.999 437v8c0.666992 8 4.16699 14.667 10.5 20s13.833 7.66602 22.5 6.99902z" />
    <glyph glyph-name="Ccedilla" unicode="&#xc7;" horiz-adv-x="674" 
d="M565 655c-2.66699 -34 -3.66992 -74.3271 -3.00293 -120.994l3 -126c0 -8 -3 -15 -9 -21s-13 -9 -21 -9s-15 3 -21 9s-9 13 -9 21c0 12 -0.166992 25 -0.5 39s-0.666016 29.333 -0.999023 46s-0.833008 29.667 -1.5 39v7l-28 17l-28 18
c-5.33301 3.33301 -13.833 8.33301 -25.5 15s-20.834 11.5 -27.501 14.5s-15.167 6.33301 -25.5 10s-19.5 6 -27.5 7s-16.667 1.66699 -26 2s-18.333 -0.5 -27 -2.5c-43.333 -10 -78.666 -34.5 -105.999 -73.5s-46 -87.167 -56 -144.5
c-9.33301 -55.333 -9.66602 -110 -0.999023 -164c8 -54.667 23 -98.667 45 -132c22.667 -34.667 59.667 -56.334 111 -65.001c64.667 -11.333 117.667 3.66699 159 45c38 38 63 93 75 165c1.33301 8 5.5 14.5 12.5 19.5s14.5 6.83301 22.5 5.5s14.5 -5.5 19.5 -12.5
s6.83301 -14.5 5.5 -22.5c-14.667 -84.667 -45.667 -150.667 -93 -198c-38.667 -38.667 -85 -60.334 -139 -65.001l-1 -1l-15 -23c33.333 3.33301 59.333 0.333008 78 -9c20 -10 32.333 -26 37 -48c4.66699 -20 2.33398 -44.667 -6.99902 -74
c-11.333 -34.667 -41.333 -55.334 -90 -62.001c-40.667 -5.33301 -73.667 -0.333008 -99 15l-27 20l-23 18c-6.66699 4.66699 -10.5 11.167 -11.5 19.5s0.833008 15.833 5.5 22.5s11.167 10.5 19.5 11.5s15.833 -0.833008 22.5 -5.5l24 -19
c8.66699 -6.66699 16 -11.667 22 -15c13.333 -8.66699 33 -11 59 -7c24 3.33301 37.333 10 40 20c6.66699 19.333 8.66699 33.666 6 42.999c-0.666992 4 -2.33398 6.66699 -5.00098 8c-11.333 5.33301 -35.333 4.66602 -72 -2.00098c-9.33301 -1.33301 -17 -2 -23 -2
c-10 -0.666992 -18.333 0.666016 -25 3.99902c-14.667 6.66699 -21 18.334 -19 35.001c0.666992 6.66699 3.33398 13.334 8.00098 20.001c2 4 8.66699 13.333 20 28l5 6h-1c-68 12 -118.333 42.333 -151 91c-27.333 41.333 -45.666 93.333 -54.999 156
s-8.66602 124 2.00098 184c7.33301 43.333 19 82 35 116c16 35.333 38.833 67 68.5 95s64.167 46.333 103.5 55c12 2.66699 24.333 4.16699 37 4.5s24.5 -0.333984 35.5 -2.00098s22.667 -4.5 35 -8.5s23.333 -8 33 -12s20.334 -9.16699 32.001 -15.5
s21.167 -11.833 28.5 -16.5l28 -18c0.666992 18 1.66699 35 3 51c0.666992 8 4.16699 14.667 10.5 20s13.666 7.66602 21.999 6.99902s15.166 -4.16699 20.499 -10.5s7.66602 -13.833 6.99902 -22.5z" />
    <glyph glyph-name="Egrave" unicode="&#xc8;" horiz-adv-x="684" 
d="M60 656c123.333 -9.33301 213.329 -12.001 269.996 -8.00098c2.66699 0 20.167 2 52.5 6s57.166 5.66699 74.499 5c2.66699 0 7 0.333008 13 1c10 0.666992 15.667 1 17 1c19.333 1.33301 35.333 -1.66699 48 -9c8.66699 -5.33301 15.334 -14 20.001 -26
c3.33301 -7.33301 6 -16.666 8 -27.999c4 -17.333 7.66699 -40 11 -68c5.33301 -44.667 8.66602 -83.334 9.99902 -116.001c0 -8 -2.83301 -15.167 -8.5 -21.5s-12.5 -9.5 -20.5 -9.5s-15.167 2.83301 -21.5 8.5s-9.5 12.5 -9.5 20.5
c-1.33301 30.667 -4.33301 67.667 -9 111c-3.33301 26 -6.66602 46.667 -9.99902 62c-1.33301 6.66699 -3 12 -5 16c-2 0.666992 -5 0.666992 -9 0c-0.666992 0 -6 -0.333008 -16 -1c-8 -0.666992 -14.667 -1 -20 -1c-15.333 0.666992 -36.666 -0.833008 -63.999 -4.5
s-46.333 -5.83398 -57 -6.50098c-36 -2.66699 -76.667 -3.33398 -122 -2.00098c0 -53.333 1 -122.333 3 -207c8.66699 0.666992 23 2.33398 43 5.00098s38.333 4.83398 55 6.50098s32.667 2.5 48 2.5c0.666992 43.333 3.66699 80.666 9 111.999
c2 8.66699 6.33301 15.334 13 20.001s14.167 6.16699 22.5 4.5s14.833 -5.83398 19.5 -12.501s6.33398 -14 5.00098 -22c-5.33301 -26.667 -8.33301 -54.667 -9 -84s-0.333984 -65.166 0.999023 -107.499s2 -72.5 2 -90.5c0 -8 -3 -15 -9 -21s-13 -9 -21 -9s-15 3 -21 9
s-9 13 -9 21c0 14.667 -0.5 37.167 -1.5 67.5s-1.5 48.166 -1.5 53.499c-13.333 -0.666992 -27.666 -1.66699 -42.999 -3s-32.666 -3.33301 -51.999 -6s-35 -4.66699 -47 -6h-3c2 -109.333 3 -193.333 3 -252l89 -2l161 -3l50 -2c0 2.66699 0.333008 5.66699 1 9
c1.33301 15.333 2.33301 36.666 3 63.999v48c0 13.333 -0.166992 27 -0.5 41s-0.5 22.667 -0.5 26c0 8 3 15 9 21s13 9 21 9s15 -3 21 -9s9 -13 9 -21c0 -3.33301 0.166992 -12.166 0.5 -26.499s0.5 -28.166 0.5 -41.499v-48c-0.666992 -29.333 -1.66699 -52.666 -3 -69.999
c-1.33301 -11.333 -3 -20.666 -5 -27.999c-3.33301 -13.333 -9 -22.666 -17 -27.999c-4 -4 -10 -6 -18 -6h-1h-1h-2h-2h-14l-52 2l-161 3c-158.667 3.33301 -247 5 -265 5c-8 0 -15 3 -21 9s-9 13 -9 21s3 15 9 21s13 9 21 9c11.333 0 50.333 -0.666992 117 -2
c0 58.667 -1.16699 145.834 -3.5 261.501s-3.5 202.167 -3.5 259.5l-96 7c-8.66699 0.666992 -15.667 4.16699 -21 10.5s-7.66602 13.666 -6.99902 21.999s4.16699 15.166 10.5 20.499s13.5 7.66602 21.5 6.99902zM249.996 834.999
c31.333 -22.667 83.999 -50.6641 157.999 -83.9971c8 -3.33301 13.333 -8.83301 16 -16.5s2.33398 -15.334 -0.999023 -23.001s-8.83301 -12.834 -16.5 -15.501s-15.167 -2.33398 -22.5 0.999023c-79.333 36 -136 66 -170 90c-6.66699 4.66699 -10.667 11 -12 19
s0.5 15.5 5.5 22.5s11.5 11.167 19.5 12.5s15.667 -0.666992 23 -6z" />
    <glyph glyph-name="Eacute" unicode="&#xc9;" horiz-adv-x="684" 
d="M60 656c123.333 -9.33301 213.329 -12.001 269.996 -8.00098c2.66699 0 20.167 2 52.5 6s57.166 5.66699 74.499 5c2.66699 0 7 0.333008 13 1c10 0.666992 15.667 1 17 1c19.333 1.33301 35.333 -1.66699 48 -9c8.66699 -5.33301 15.334 -14 20.001 -26
c3.33301 -7.33301 6 -16.666 8 -27.999c4 -17.333 7.66699 -40 11 -68c5.33301 -44.667 8.66602 -83.334 9.99902 -116.001c0 -8 -2.83301 -15.167 -8.5 -21.5s-12.5 -9.5 -20.5 -9.5s-15.167 2.83301 -21.5 8.5s-9.5 12.5 -9.5 20.5
c-1.33301 30.667 -4.33301 67.667 -9 111c-3.33301 26 -6.66602 46.667 -9.99902 62c-1.33301 6.66699 -3 12 -5 16c-2 0.666992 -5 0.666992 -9 0c-0.666992 0 -6 -0.333008 -16 -1c-8 -0.666992 -14.667 -1 -20 -1c-15.333 0.666992 -36.666 -0.833008 -63.999 -4.5
s-46.333 -5.83398 -57 -6.50098c-36 -2.66699 -76.667 -3.33398 -122 -2.00098c0 -53.333 1 -122.333 3 -207c8.66699 0.666992 23 2.33398 43 5.00098s38.333 4.83398 55 6.50098s32.667 2.5 48 2.5c0.666992 43.333 3.66699 80.666 9 111.999
c2 8.66699 6.33301 15.334 13 20.001s14.167 6.16699 22.5 4.5s14.833 -5.83398 19.5 -12.501s6.33398 -14 5.00098 -22c-5.33301 -26.667 -8.33301 -54.667 -9 -84s-0.333984 -65.166 0.999023 -107.499s2 -72.5 2 -90.5c0 -8 -3 -15 -9 -21s-13 -9 -21 -9s-15 3 -21 9
s-9 13 -9 21c0 14.667 -0.5 37.167 -1.5 67.5s-1.5 48.166 -1.5 53.499c-13.333 -0.666992 -27.666 -1.66699 -42.999 -3s-32.666 -3.33301 -51.999 -6s-35 -4.66699 -47 -6h-3c2 -109.333 3 -193.333 3 -252l89 -2l161 -3l50 -2c0 2.66699 0.333008 5.66699 1 9
c1.33301 15.333 2.33301 36.666 3 63.999v48c0 13.333 -0.166992 27 -0.5 41s-0.5 22.667 -0.5 26c0 8 3 15 9 21s13 9 21 9s15 -3 21 -9s9 -13 9 -21c0 -3.33301 0.166992 -12.166 0.5 -26.499s0.5 -28.166 0.5 -41.499v-48c-0.666992 -29.333 -1.66699 -52.666 -3 -69.999
c-1.33301 -11.333 -3 -20.666 -5 -27.999c-3.33301 -13.333 -9 -22.666 -17 -27.999c-4 -4 -10 -6 -18 -6h-1h-1h-2h-2h-14l-52 2l-161 3c-158.667 3.33301 -247 5 -265 5c-8 0 -15 3 -21 9s-9 13 -9 21s3 15 9 21s13 9 21 9c11.333 0 50.333 -0.666992 117 -2
c0 58.667 -1.16699 145.834 -3.5 261.501s-3.5 202.167 -3.5 259.5l-96 7c-8.66699 0.666992 -15.667 4.16699 -21 10.5s-7.66602 13.666 -6.99902 21.999s4.16699 15.166 10.5 20.499s13.5 7.66602 21.5 6.99902zM433.996 786.999
c-44.667 -18.667 -95.667 -49.332 -153 -91.999c-6.66699 -4.66699 -14.167 -6.5 -22.5 -5.5s-14.833 4.83301 -19.5 11.5s-6.5 14.167 -5.5 22.5s4.83301 14.833 11.5 19.5c61.333 46 117 79.333 167 100c7.33301 2.66699 14.833 2.5 22.5 -0.5s13 -8.33301 16 -16
s3 -15.334 0 -23.001s-8.5 -13.167 -16.5 -16.5z" />
    <glyph glyph-name="Ecircumflex" unicode="&#xca;" horiz-adv-x="684" 
d="M60 656c123.333 -9.33301 213.329 -12.001 269.996 -8.00098c2.66699 0 20.167 2 52.5 6s57.166 5.66699 74.499 5c2.66699 0 7 0.333008 13 1c10 0.666992 15.667 1 17 1c19.333 1.33301 35.333 -1.66699 48 -9c8.66699 -5.33301 15.334 -14 20.001 -26
c3.33301 -7.33301 6 -16.666 8 -27.999c4 -17.333 7.66699 -40 11 -68c5.33301 -44.667 8.66602 -83.334 9.99902 -116.001c0 -8 -2.83301 -15.167 -8.5 -21.5s-12.5 -9.5 -20.5 -9.5s-15.167 2.83301 -21.5 8.5s-9.5 12.5 -9.5 20.5
c-1.33301 30.667 -4.33301 67.667 -9 111c-3.33301 26 -6.66602 46.667 -9.99902 62c-1.33301 6.66699 -3 12 -5 16c-2 0.666992 -5 0.666992 -9 0c-0.666992 0 -6 -0.333008 -16 -1c-8 -0.666992 -14.667 -1 -20 -1c-15.333 0.666992 -36.666 -0.833008 -63.999 -4.5
s-46.333 -5.83398 -57 -6.50098c-36 -2.66699 -76.667 -3.33398 -122 -2.00098c0 -53.333 1 -122.333 3 -207c8.66699 0.666992 23 2.33398 43 5.00098s38.333 4.83398 55 6.50098s32.667 2.5 48 2.5c0.666992 43.333 3.66699 80.666 9 111.999
c2 8.66699 6.33301 15.334 13 20.001s14.167 6.16699 22.5 4.5s14.833 -5.83398 19.5 -12.501s6.33398 -14 5.00098 -22c-5.33301 -26.667 -8.33301 -54.667 -9 -84s-0.333984 -65.166 0.999023 -107.499s2 -72.5 2 -90.5c0 -8 -3 -15 -9 -21s-13 -9 -21 -9s-15 3 -21 9
s-9 13 -9 21c0 14.667 -0.5 37.167 -1.5 67.5s-1.5 48.166 -1.5 53.499c-13.333 -0.666992 -27.666 -1.66699 -42.999 -3s-32.666 -3.33301 -51.999 -6s-35 -4.66699 -47 -6h-3c2 -109.333 3 -193.333 3 -252l89 -2l161 -3l50 -2c0 2.66699 0.333008 5.66699 1 9
c1.33301 15.333 2.33301 36.666 3 63.999v48c0 13.333 -0.166992 27 -0.5 41s-0.5 22.667 -0.5 26c0 8 3 15 9 21s13 9 21 9s15 -3 21 -9s9 -13 9 -21c0 -3.33301 0.166992 -12.166 0.5 -26.499s0.5 -28.166 0.5 -41.499v-48c-0.666992 -29.333 -1.66699 -52.666 -3 -69.999
c-1.33301 -11.333 -3 -20.666 -5 -27.999c-3.33301 -13.333 -9 -22.666 -17 -27.999c-4 -4 -10 -6 -18 -6h-1h-1h-2h-2h-14l-52 2l-161 3c-158.667 3.33301 -247 5 -265 5c-8 0 -15 3 -21 9s-9 13 -9 21s3 15 9 21s13 9 21 9c11.333 0 50.333 -0.666992 117 -2
c0 58.667 -1.16699 145.834 -3.5 261.501s-3.5 202.167 -3.5 259.5l-96 7c-8.66699 0.666992 -15.667 4.16699 -21 10.5s-7.66602 13.666 -6.99902 21.999s4.16699 15.166 10.5 20.499s13.5 7.66602 21.5 6.99902zM139.996 741.999c13.333 3.33301 25 7.66895 35 13.002
s24 14.333 42 27c0.666992 0 6.33398 4 17.001 12c8.66699 6.66699 16.667 12 24 16c24.667 15.333 46.334 21.666 65.001 18.999c18 -3.33301 45.667 -16.666 83 -39.999l36 -25c16.667 -10.667 28 -17.667 34 -21c7.33301 -4.66699 12 -11 14 -19
s0.833008 -15.5 -3.5 -22.5s-10.5 -11.5 -18.5 -13.5s-15.333 -1 -22 3l-34 23l-38 24c-30.667 19.333 -51 29.666 -61 30.999c-4 0.666992 -12 -2.66602 -24 -9.99902l-20 -13c-11.333 -8.66699 -17.333 -13.334 -18 -14.001l-31 -20c-6 -4 -15.333 -9 -28 -15
s-25.334 -10.333 -38.001 -13c-8.66699 -2 -16.5 -0.833008 -23.5 3.5s-11.333 10.666 -13 18.999s-0.333984 16 3.99902 23s10.5 11.167 18.5 12.5z" />
    <glyph glyph-name="Edieresis" unicode="&#xcb;" horiz-adv-x="684" 
d="M60 656c123.333 -9.33301 213.329 -12.001 269.996 -8.00098c2.66699 0 20.167 2 52.5 6s57.166 5.66699 74.499 5c2.66699 0 7 0.333008 13 1c10 0.666992 15.667 1 17 1c19.333 1.33301 35.333 -1.66699 48 -9c8.66699 -5.33301 15.334 -14 20.001 -26
c3.33301 -7.33301 6 -16.666 8 -27.999c4 -17.333 7.66699 -40 11 -68c5.33301 -44.667 8.66602 -83.334 9.99902 -116.001c0 -8 -2.83301 -15.167 -8.5 -21.5s-12.5 -9.5 -20.5 -9.5s-15.167 2.83301 -21.5 8.5s-9.5 12.5 -9.5 20.5
c-1.33301 30.667 -4.33301 67.667 -9 111c-3.33301 26 -6.66602 46.667 -9.99902 62c-1.33301 6.66699 -3 12 -5 16c-2 0.666992 -5 0.666992 -9 0c-0.666992 0 -6 -0.333008 -16 -1c-8 -0.666992 -14.667 -1 -20 -1c-15.333 0.666992 -36.666 -0.833008 -63.999 -4.5
s-46.333 -5.83398 -57 -6.50098c-36 -2.66699 -76.667 -3.33398 -122 -2.00098c0 -53.333 1 -122.333 3 -207c8.66699 0.666992 23 2.33398 43 5.00098s38.333 4.83398 55 6.50098s32.667 2.5 48 2.5c0.666992 43.333 3.66699 80.666 9 111.999
c2 8.66699 6.33301 15.334 13 20.001s14.167 6.16699 22.5 4.5s14.833 -5.83398 19.5 -12.501s6.33398 -14 5.00098 -22c-5.33301 -26.667 -8.33301 -54.667 -9 -84s-0.333984 -65.166 0.999023 -107.499s2 -72.5 2 -90.5c0 -8 -3 -15 -9 -21s-13 -9 -21 -9s-15 3 -21 9
s-9 13 -9 21c0 14.667 -0.5 37.167 -1.5 67.5s-1.5 48.166 -1.5 53.499c-13.333 -0.666992 -27.666 -1.66699 -42.999 -3s-32.666 -3.33301 -51.999 -6s-35 -4.66699 -47 -6h-3c2 -109.333 3 -193.333 3 -252l89 -2l161 -3l50 -2c0 2.66699 0.333008 5.66699 1 9
c1.33301 15.333 2.33301 36.666 3 63.999v48c0 13.333 -0.166992 27 -0.5 41s-0.5 22.667 -0.5 26c0 8 3 15 9 21s13 9 21 9s15 -3 21 -9s9 -13 9 -21c0 -3.33301 0.166992 -12.166 0.5 -26.499s0.5 -28.166 0.5 -41.499v-48c-0.666992 -29.333 -1.66699 -52.666 -3 -69.999
c-1.33301 -11.333 -3 -20.666 -5 -27.999c-3.33301 -13.333 -9 -22.666 -17 -27.999c-4 -4 -10 -6 -18 -6h-1h-1h-2h-2h-14l-52 2l-161 3c-158.667 3.33301 -247 5 -265 5c-8 0 -15 3 -21 9s-9 13 -9 21s3 15 9 21s13 9 21 9c11.333 0 50.333 -0.666992 117 -2
c0 58.667 -1.16699 145.834 -3.5 261.501s-3.5 202.167 -3.5 259.5l-96 7c-8.66699 0.666992 -15.667 4.16699 -21 10.5s-7.66602 13.666 -6.99902 21.999s4.16699 15.166 10.5 20.499s13.5 7.66602 21.5 6.99902zM266.996 776.999c0 -8 -3 -15 -9 -21s-13 -9 -21 -9
s-15 3 -21 9s-9 13 -9 21s3 15 9 21s13 9 21 9s15 -3 21 -9s9 -13 9 -21zM450.996 772.999c0 -8 -3 -15 -9 -21s-13 -9 -21 -9s-15 3 -21 9s-9 13 -9 21s3 15 9 21s13 9 21 9s15 -3 21 -9s9 -13 9 -21z" />
    <glyph glyph-name="Igrave" unicode="&#xcc;" horiz-adv-x="472" 
d="M29 62c31.333 8 69.6709 12.001 115.004 12.001c6 105.333 9 281.333 9 528c-6.66699 -0.666992 -12.667 -1.33398 -18 -2.00098c-28.667 -2 -52.667 -2.66699 -72 -2c-8 0 -14.833 3.16699 -20.5 9.5s-8.5 13.5 -8.5 21.5s3.16699 14.833 9.5 20.5s13.5 8.5 21.5 8.5
c16.667 -0.666992 38.667 0 66 2c2.66699 0.666992 13 1.66699 31 3l41 3c62 3.33301 112 -2 150 -16c7.33301 -2.66699 12.666 -7.83398 15.999 -15.501s3.66602 -15.334 0.999023 -23.001s-7.83398 -13.167 -15.501 -16.5s-15.5 -3.66602 -23.5 -0.999023
c-28.667 10.667 -68 14.667 -118 12c0 -250.667 -3 -428.667 -9 -534c66 -3.33301 103 -5 111 -5s15 -3 21 -9s9 -13 9 -21s-3 -15 -9 -21s-13 -9 -21 -9c-21.333 0 -51.333 1.33301 -90 4s-72.334 3.83398 -101.001 3.50098s-55 -3.83301 -79 -10.5c-8 -2 -15.667 -1 -23 3
s-12 10 -14 18s-1 15.667 3 23s10 12 18 14zM117.005 832.001c35.333 -20.667 90.335 -45 165.002 -73c8 -2.66699 13.667 -7.83398 17 -15.501s3.66602 -15.334 0.999023 -23.001s-7.83398 -13.167 -15.501 -16.5s-15.167 -3.66602 -22.5 -0.999023
c-78.667 28.667 -137 54.334 -175 77.001c-7.33301 4.66699 -12 11 -14 19s-0.833008 15.5 3.5 22.5s10.5 11.5 18.5 13.5s15.333 1 22 -3z" />
    <glyph glyph-name="Iacute" unicode="&#xcd;" horiz-adv-x="472" 
d="M29 62c31.333 8 69.6709 12.001 115.004 12.001c6 105.333 9 281.333 9 528c-6.66699 -0.666992 -12.667 -1.33398 -18 -2.00098c-28.667 -2 -52.667 -2.66699 -72 -2c-8 0 -14.833 3.16699 -20.5 9.5s-8.5 13.5 -8.5 21.5s3.16699 14.833 9.5 20.5s13.5 8.5 21.5 8.5
c16.667 -0.666992 38.667 0 66 2c2.66699 0.666992 13 1.66699 31 3l41 3c62 3.33301 112 -2 150 -16c7.33301 -2.66699 12.666 -7.83398 15.999 -15.501s3.66602 -15.334 0.999023 -23.001s-7.83398 -13.167 -15.501 -16.5s-15.5 -3.66602 -23.5 -0.999023
c-28.667 10.667 -68 14.667 -118 12c0 -250.667 -3 -428.667 -9 -534c66 -3.33301 103 -5 111 -5s15 -3 21 -9s9 -13 9 -21s-3 -15 -9 -21s-13 -9 -21 -9c-21.333 0 -51.333 1.33301 -90 4s-72.334 3.83398 -101.001 3.50098s-55 -3.83301 -79 -10.5c-8 -2 -15.667 -1 -23 3
s-12 10 -14 18s-1 15.667 3 23s10 12 18 14zM280.005 794.001c-50.667 -23.333 -101.999 -54.3301 -153.999 -92.9971c-6.66699 -4.66699 -14.167 -6.5 -22.5 -5.5s-14.833 4.83301 -19.5 11.5s-6.5 14.167 -5.5 22.5s4.83301 14.833 11.5 19.5
c54.667 40.667 110 73.667 166 99c7.33301 3.33301 14.833 3.66602 22.5 0.999023s13.167 -7.83398 16.5 -15.501s3.66602 -15.334 0.999023 -23.001s-8 -13.167 -16 -16.5z" />
    <glyph glyph-name="Icircumflex" unicode="&#xce;" horiz-adv-x="472" 
d="M29 62c31.333 8 69.6709 12.001 115.004 12.001c6 105.333 9 281.333 9 528c-6.66699 -0.666992 -12.667 -1.33398 -18 -2.00098c-28.667 -2 -52.667 -2.66699 -72 -2c-8 0 -14.833 3.16699 -20.5 9.5s-8.5 13.5 -8.5 21.5s3.16699 14.833 9.5 20.5s13.5 8.5 21.5 8.5
c16.667 -0.666992 38.667 0 66 2c2.66699 0.666992 13 1.66699 31 3l41 3c62 3.33301 112 -2 150 -16c7.33301 -2.66699 12.666 -7.83398 15.999 -15.501s3.66602 -15.334 0.999023 -23.001s-7.83398 -13.167 -15.501 -16.5s-15.5 -3.66602 -23.5 -0.999023
c-28.667 10.667 -68 14.667 -118 12c0 -250.667 -3 -428.667 -9 -534c66 -3.33301 103 -5 111 -5s15 -3 21 -9s9 -13 9 -21s-3 -15 -9 -21s-13 -9 -21 -9c-21.333 0 -51.333 1.33301 -90 4s-72.334 3.83398 -101.001 3.50098s-55 -3.83301 -79 -10.5c-8 -2 -15.667 -1 -23 3
s-12 10 -14 18s-1 15.667 3 23s10 12 18 14zM7.00488 759.001c13.333 3.33301 25.0029 7.66895 35.0029 13.002s24 14.333 42 27l17 12l24 16c24 14.667 45.333 20.667 64 18s46.667 -16 84 -40l37 -24l33 -21c7.33301 -4.66699 12 -11 14 -19s0.833008 -15.5 -3.5 -22.5
s-10.5 -11.5 -18.5 -13.5s-15.333 -1 -22 3c-6 3.33301 -17.333 10.666 -34 21.999c-16 11.333 -28.667 19.666 -38 24.999c-30 18.667 -50 28.667 -60 30c-4.66699 0.666992 -13 -2.66602 -25 -9.99902c-5.33301 -2.66699 -12 -7 -20 -13l-18 -13l-30 -20
c-6.66699 -4 -16.334 -9 -29.001 -15s-25.334 -10.333 -38.001 -13c-8.66699 -2 -16.5 -0.833008 -23.5 3.5s-11.333 10.666 -13 18.999s-0.333984 16 3.99902 23s10.5 11.167 18.5 12.5z" />
    <glyph glyph-name="Idieresis" unicode="&#xcf;" horiz-adv-x="472" 
d="M29 62c31.333 8 69.6709 12.001 115.004 12.001c6 105.333 9 281.333 9 528c-6.66699 -0.666992 -12.667 -1.33398 -18 -2.00098c-28.667 -2 -52.667 -2.66699 -72 -2c-8 0 -14.833 3.16699 -20.5 9.5s-8.5 13.5 -8.5 21.5s3.16699 14.833 9.5 20.5s13.5 8.5 21.5 8.5
c16.667 -0.666992 38.667 0 66 2c2.66699 0.666992 13 1.66699 31 3l41 3c62 3.33301 112 -2 150 -16c7.33301 -2.66699 12.666 -7.83398 15.999 -15.501s3.66602 -15.334 0.999023 -23.001s-7.83398 -13.167 -15.501 -16.5s-15.5 -3.66602 -23.5 -0.999023
c-28.667 10.667 -68 14.667 -118 12c0 -250.667 -3 -428.667 -9 -534c66 -3.33301 103 -5 111 -5s15 -3 21 -9s9 -13 9 -21s-3 -15 -9 -21s-13 -9 -21 -9c-21.333 0 -51.333 1.33301 -90 4s-72.334 3.83398 -101.001 3.50098s-55 -3.83301 -79 -10.5c-8 -2 -15.667 -1 -23 3
s-12 10 -14 18s-1 15.667 3 23s10 12 18 14zM115.005 775.001c0 -8 -3 -15 -9 -21s-13 -9 -21 -9s-15 3 -21 9s-9 13 -9 21s3 15 9 21s13 9 21 9s15 -3 21 -9s9 -13 9 -21zM317.005 792.001c0 -8 -3 -15 -9 -21s-13 -9 -21 -9s-15 3 -21 9s-9 13 -9 21s3 15 9 21s13 9 21 9
s15 -3 21 -9s9 -13 9 -21z" />
    <glyph glyph-name="Ntilde" unicode="&#xd1;" horiz-adv-x="849" 
d="M239 761c18.667 36 44.999 56.3291 78.999 60.9961c19.333 2 46.333 -2.33301 81 -13c22 -7.33301 38.167 -12.166 48.5 -14.499s22.333 -2.5 36 -0.5s25.834 8 36.501 18c6 6 13.167 8.66699 21.5 8s15.333 -4 21 -10s8.16699 -13.167 7.5 -21.5s-4 -15.166 -10 -20.499
c-14 -12.667 -28.667 -22 -44 -28s-31.5 -8.33301 -48.5 -7s-30.333 3 -40 5s-22.5 5.66699 -38.5 11c-3.33301 1.33301 -6 2.33301 -8 3c-26.667 8 -45.334 11.333 -56.001 10c-12.667 -1.33301 -24 -11 -34 -29c-3.33301 -7.33301 -9 -12.166 -17 -14.499
s-15.667 -1.66602 -23 2.00098s-12.166 9.5 -14.499 17.5s-1.5 15.667 2.5 23zM33.999 651.996c4 0 18.335 0.330078 43.002 0.99707c8.66699 0 22.834 0.333008 42.501 1s31.167 1 34.5 1c10 0.666992 19 1 27 1h2c18.667 0.666992 33.334 1 44.001 1h26h9
c2 -0.666992 3.66699 -1 5 -1c6.66699 -0.666992 12.334 -4 17.001 -10c10 -11.333 15.667 -28 17 -50c0.666992 -12 1.33398 -18.667 2.00098 -20l43 -74l52 -89l41 -75c7.33301 -14 23.5 -48.667 48.5 -104s46.833 -96.666 65.5 -123.999
c0.666992 8.66699 1.16699 17.5 1.5 26.5s0.666016 17 0.999023 24s0.5 11.167 0.5 12.5c10.667 180.667 14.334 325 11.001 433c-6 -0.666992 -15.167 -1.5 -27.5 -2.5s-21.5 -1.83301 -27.5 -2.5c-28.667 -2 -52.667 -2.66699 -72 -2c-8 0 -14.833 3.16699 -20.5 9.5
s-8.5 13.5 -8.5 21.5s3.16699 14.833 9.5 20.5s13.5 8.5 21.5 8.5c16.667 -0.666992 38.667 0 66 2c2.66699 0.666992 13 1.66699 31 3l41 3c62 3.33301 112 -2 150 -16c7.33301 -2.66699 12.666 -7.83398 15.999 -15.501s3.66602 -15.334 0.999023 -23.001
s-7.83398 -13.167 -15.501 -16.5s-15.5 -3.66602 -23.5 -0.999023c-22 8 -49 12.333 -81 13c3.33301 -110 -0.333984 -256.333 -11.001 -439c0 -0.666992 -0.166992 -5.16699 -0.5 -13.5s-0.833008 -17.5 -1.5 -27.5l-2 -29c-1.33301 -18 -3 -32.667 -5 -44
c-1.33301 -7.33301 -3 -13.333 -5 -18c-1.33301 -4 -3 -7.33301 -5 -10c-4.66699 -7.33301 -10.667 -12.333 -18 -15c-19.333 -5.33301 -34.666 1.66699 -45.999 21l-5 10l-1 2c-20.667 24.667 -39 51.834 -55 81.501s-32.333 63.5 -49 101.5s-29.334 65.333 -38.001 82
c-12 24 -25.333 48.667 -40 74l-51 89l-43 73c-6 10 -9.33301 25.667 -10 47v4h-13h-15c0 -243.333 -3 -418.333 -9 -525c66 -3.33301 103 -5 111 -5s15 -3 21 -9s9 -13 9 -21s-3 -15 -9 -21s-13 -9 -21 -9c-21.333 0 -51.333 1.33301 -90 4
s-72.334 3.83398 -101.001 3.50098s-55 -3.83301 -79 -10.5c-8 -2 -15.667 -1 -23 3s-12 10 -14 18s-1 15.667 3 23s10 12 18 14c31.333 8 69.666 12 114.999 12c6 106 9 279.667 9 521c-6 0 -14.333 -0.166992 -25 -0.5s-20 -0.666016 -28 -0.999023s-15.333 -0.5 -22 -0.5
c-26 -0.666992 -42 -1 -48 -1c-8 0.666992 -14.833 4 -20.5 10s-8.16699 13.167 -7.5 21.5s4 15.333 10 21s13.333 8.16699 22 7.5z" />
    <glyph glyph-name="Ograve" unicode="&#xd2;" 
d="M543 528c4.66699 -4 7.66602 -9.00098 8.99902 -15.001c46 -196.667 27.667 -347.667 -55 -453c-18 -22 -37.333 -37.833 -58 -47.5s-45.667 -16.834 -75 -21.501c-69.333 -10 -130.5 6 -183.5 48s-88.5 97 -106.5 165c-14.667 55.333 -14.667 126 0 212
c16 94 43.333 159.667 82 197c28 28 62 47 102 57c39.333 10.667 78.333 12.334 117 5.00098c40 -7.33301 75.333 -23.666 106 -48.999s51.334 -58 62.001 -98zM249.999 838.999c60.667 -38 114.333 -66.001 161 -84.001c8 -3.33301 13.5 -8.66602 16.5 -15.999s3 -15 0 -23
s-8.16699 -13.5 -15.5 -16.5s-15 -3.16699 -23 -0.5c-50 20 -107 49.333 -171 88c-6.66699 4.66699 -11 11 -13 19s-0.833008 15.5 3.5 22.5s10.5 11.5 18.5 13.5s15.667 1 23 -3zM485.998 510.998c-7.33301 28 -21.8311 50.998 -43.498 68.998s-47.834 30 -78.501 36
c-30 6 -60 5 -90 -3s-55.333 -22 -76 -42c-29.333 -28.667 -51 -83.667 -65 -165c-12.667 -77.333 -13 -139.333 -1 -186c14.667 -56 42.667 -100.167 84 -132.5s88 -44.5 140 -36.5c23.333 3.33301 41.833 8.33301 55.5 15s26.167 17.334 37.5 32.001
c71.333 88.667 86.666 221.334 45.999 398.001c-4.66699 4 -7.66699 9 -9 15z" />
    <glyph glyph-name="Oacute" unicode="&#xd3;" 
d="M543 528c4.66699 -4 7.66602 -9.00098 8.99902 -15.001c46 -196.667 27.667 -347.667 -55 -453c-18 -22 -37.333 -37.833 -58 -47.5s-45.667 -16.834 -75 -21.501c-69.333 -10 -130.5 6 -183.5 48s-88.5 97 -106.5 165c-14.667 55.333 -14.667 126 0 212
c16 94 43.333 159.667 82 197c28 28 62 47 102 57c39.333 10.667 78.333 12.334 117 5.00098c40 -7.33301 75.333 -23.666 106 -48.999s51.334 -58 62.001 -98zM410.999 789.999c-48.667 -22 -99.998 -53.3291 -153.998 -93.9961c-6.66699 -4.66699 -14.167 -6.5 -22.5 -5.5
s-14.833 4.83301 -19.5 11.5s-6.5 14.167 -5.5 22.5s4.83301 14.833 11.5 19.5c57.333 43.333 112.666 76.666 165.999 99.999c7.33301 3.33301 14.833 3.66602 22.5 0.999023s13.167 -7.83398 16.5 -15.501s3.66602 -15.334 0.999023 -23.001s-8 -13.167 -16 -16.5z
M486.001 511.003c-7.33301 28 -21.8311 50.998 -43.498 68.998s-47.834 30 -78.501 36c-30 6 -60 5 -90 -3s-55.333 -22 -76 -42c-29.333 -28.667 -51 -83.667 -65 -165c-12.667 -77.333 -13 -139.333 -1 -186c14.667 -56 42.667 -100.167 84 -132.5s88 -44.5 140 -36.5
c23.333 3.33301 41.833 8.33301 55.5 15s26.167 17.334 37.5 32.001c71.333 88.667 86.666 221.334 45.999 398.001c-4.66699 4 -7.66699 9 -9 15z" />
    <glyph glyph-name="Ocircumflex" unicode="&#xd4;" 
d="M543 528c4.66699 -4 7.66602 -9.00098 8.99902 -15.001c46 -196.667 27.667 -347.667 -55 -453c-18 -22 -37.333 -37.833 -58 -47.5s-45.667 -16.834 -75 -21.501c-69.333 -10 -130.5 6 -183.5 48s-88.5 97 -106.5 165c-14.667 55.333 -14.667 126 0 212
c16 94 43.333 159.667 82 197c28 28 62 47 102 57c39.333 10.667 78.333 12.334 117 5.00098c40 -7.33301 75.333 -23.666 106 -48.999s51.334 -58 62.001 -98zM139.999 757.999c13.333 3.33301 25.002 7.66895 35.002 13.002s24 14.333 42 27l17 12l24 16
c24 14.667 45.333 20.667 64 18s46.667 -16 84 -40l38 -24l32 -21c7.33301 -4.66699 12 -11 14 -19s0.833008 -15.5 -3.5 -22.5s-10.5 -11.5 -18.5 -13.5s-15.333 -1 -22 3c-6 3.33301 -17.333 10.666 -34 21.999c-16 11.333 -28.667 19.666 -38 24.999
c-30 18.667 -50 28.667 -60 30c-4.66699 0.666992 -13 -2.66602 -25 -9.99902c-5.33301 -2.66699 -12 -7 -20 -13l-18 -13l-31 -20c-6 -4 -15.333 -9 -28 -15s-25.334 -10.333 -38.001 -13c-8.66699 -2 -16.5 -0.833008 -23.5 3.5s-11.333 10.666 -13 18.999
s-0.333984 16 3.99902 23s10.5 11.167 18.5 12.5zM486.001 511.002c-7.33301 28 -21.8311 50.998 -43.498 68.998s-47.834 30 -78.501 36c-30 6 -60 5 -90 -3s-55.333 -22 -76 -42c-29.333 -28.667 -51 -83.667 -65 -165c-12.667 -77.333 -13 -139.333 -1 -186
c14.667 -56 42.667 -100.167 84 -132.5s88 -44.5 140 -36.5c23.333 3.33301 41.833 8.33301 55.5 15s26.167 17.334 37.5 32.001c71.333 88.667 86.666 221.334 45.999 398.001c-4.66699 4 -7.66699 9 -9 15z" />
    </font>
</defs>
</svg>
